<ttFont>
    <TTGlyph name=".notdef" xMin="193" yMin="0" xMax="1034" yMax="1462">
      <contour>
        <pt x="193" y="1462" on="1"/>
        <pt x="1034" y="1462" on="1"/>
        <pt x="1034" y="0" on="1"/>
        <pt x="193" y="0" on="1"/>
      </contour>
      <contour>
        <pt x="297" y="104" on="1"/>
        <pt x="930" y="104" on="1"/>
        <pt x="930" y="1358" on="1"/>
        <pt x="297" y="1358" on="1"/>
      </contour>
    </TTGlyph>
    <TTGlyph name="uniA500" xMin="45" yMin="0" xMax="1286" yMax="1462">
      <contour>
        <pt x="496" y="750" on="1"/>
        <pt x="496" y="697" on="0"/>
        <pt x="462" y="616" on="0"/>
        <pt x="401" y="559" on="0"/>
        <pt x="317" y="530" on="0"/>
        <pt x="268" y="530" on="1"/>
        <pt x="218" y="530" on="0"/>
        <pt x="136" y="559" on="0"/>
        <pt x="77" y="615" on="0"/>
        <pt x="45" y="696" on="0"/>
        <pt x="45" y="748" on="1"/>
        <pt x="45" y="799" on="0"/>
        <pt x="77" y="878" on="0"/>
        <pt x="136" y="934" on="0"/>
        <pt x="218" y="963" on="0"/>
        <pt x="268" y="963" on="1"/>
        <pt x="316" y="963" on="0"/>
        <pt x="400" y="934" on="0"/>
        <pt x="461" y="879" on="0"/>
        <pt x="496" y="800" on="0"/>
      </contour>
      <contour>
        <pt x="371" y="748" on="1"/>
        <pt x="371" y="796" on="0"/>
        <pt x="313" y="850" on="0"/>
        <pt x="268" y="850" on="1"/>
        <pt x="223" y="850" on="0"/>
        <pt x="166" y="796" on="0"/>
        <pt x="166" y="748" on="1"/>
        <pt x="166" y="698" on="0"/>
        <pt x="219" y="645" on="0"/>
        <pt x="268" y="645" on="1"/>
        <pt x="315" y="645" on="0"/>
        <pt x="371" y="698" on="0"/>
      </contour>
      <contour>
        <pt x="1286" y="750" on="1"/>
        <pt x="1286" y="697" on="0"/>
        <pt x="1252" y="616" on="0"/>
        <pt x="1191" y="559" on="0"/>
        <pt x="1108" y="530" on="0"/>
        <pt x="1059" y="530" on="1"/>
        <pt x="1009" y="530" on="0"/>
        <pt x="927" y="559" on="0"/>
        <pt x="868" y="615" on="0"/>
        <pt x="836" y="696" on="0"/>
        <pt x="836" y="748" on="1"/>
        <pt x="836" y="799" on="0"/>
        <pt x="868" y="878" on="0"/>
        <pt x="927" y="934" on="0"/>
        <pt x="1009" y="963" on="0"/>
        <pt x="1059" y="963" on="1"/>
        <pt x="1107" y="963" on="0"/>
        <pt x="1190" y="934" on="0"/>
        <pt x="1251" y="879" on="0"/>
        <pt x="1286" y="800" on="0"/>
      </contour>
      <contour>
        <pt x="1161" y="748" on="1"/>
        <pt x="1161" y="796" on="0"/>
        <pt x="1104" y="850" on="0"/>
        <pt x="1059" y="850" on="1"/>
        <pt x="1014" y="850" on="0"/>
        <pt x="956" y="796" on="0"/>
        <pt x="956" y="748" on="1"/>
        <pt x="956" y="698" on="0"/>
        <pt x="1009" y="645" on="0"/>
        <pt x="1059" y="645" on="1"/>
        <pt x="1105" y="645" on="0"/>
        <pt x="1161" y="698" on="0"/>
      </contour>
      <contour>
        <pt x="1159" y="1321" on="1"/>
        <pt x="745" y="1321" on="1"/>
        <pt x="745" y="141" on="1"/>
        <pt x="1159" y="141" on="1"/>
        <pt x="1159" y="0" on="1"/>
        <pt x="172" y="0" on="1"/>
        <pt x="172" y="141" on="1"/>
        <pt x="586" y="141" on="1"/>
        <pt x="586" y="1321" on="1"/>
        <pt x="172" y="1321" on="1"/>
        <pt x="172" y="1462" on="1"/>
        <pt x="1159" y="1462" on="1"/>
      </contour>
    </TTGlyph>
    <TTGlyph name="uniA501" xMin="90" yMin="0" xMax="1331" yMax="1462">
      <contour>
        <pt x="1204" y="1075" on="1"/>
        <pt x="791" y="1075" on="1"/>
        <pt x="791" y="387" on="1"/>
        <pt x="1204" y="387" on="1"/>
        <pt x="1204" y="246" on="1"/>
        <pt x="791" y="246" on="1"/>
        <pt x="791" y="141" on="1"/>
        <pt x="1204" y="141" on="1"/>
        <pt x="1204" y="0" on="1"/>
        <pt x="217" y="0" on="1"/>
        <pt x="217" y="141" on="1"/>
        <pt x="631" y="141" on="1"/>
        <pt x="631" y="246" on="1"/>
        <pt x="217" y="246" on="1"/>
        <pt x="217" y="387" on="1"/>
        <pt x="631" y="387" on="1"/>
        <pt x="631" y="1075" on="1"/>
        <pt x="217" y="1075" on="1"/>
        <pt x="217" y="1217" on="1"/>
        <pt x="631" y="1217" on="1"/>
        <pt x="631" y="1321" on="1"/>
        <pt x="217" y="1321" on="1"/>
        <pt x="217" y="1462" on="1"/>
        <pt x="1204" y="1462" on="1"/>
        <pt x="1204" y="1321" on="1"/>
        <pt x="791" y="1321" on="1"/>
        <pt x="791" y="1217" on="1"/>
        <pt x="1204" y="1217" on="1"/>
      </contour>
      <contour>
        <pt x="541" y="750" on="1"/>
        <pt x="541" y="697" on="0"/>
        <pt x="507" y="616" on="0"/>
        <pt x="446" y="559" on="0"/>
        <pt x="362" y="530" on="0"/>
        <pt x="313" y="530" on="1"/>
        <pt x="263" y="530" on="0"/>
        <pt x="181" y="559" on="0"/>
        <pt x="122" y="615" on="0"/>
        <pt x="90" y="696" on="0"/>
        <pt x="90" y="748" on="1"/>
        <pt x="90" y="799" on="0"/>
        <pt x="122" y="878" on="0"/>
        <pt x="181" y="934" on="0"/>
        <pt x="263" y="963" on="0"/>
        <pt x="313" y="963" on="1"/>
        <pt x="361" y="963" on="0"/>
        <pt x="445" y="934" on="0"/>
        <pt x="506" y="879" on="0"/>
        <pt x="541" y="800" on="0"/>
      </contour>
      <contour>
        <pt x="1331" y="750" on="1"/>
        <pt x="1331" y="697" on="0"/>
        <pt x="1297" y="616" on="0"/>
        <pt x="1236" y="559" on="0"/>
        <pt x="1153" y="530" on="0"/>
        <pt x="1104" y="530" on="1"/>
        <pt x="1054" y="530" on="0"/>
        <pt x="972" y="559" on="0"/>
        <pt x="913" y="615" on="0"/>
        <pt x="881" y="696" on="0"/>
        <pt x="881" y="748" on="1"/>
        <pt x="881" y="799" on="0"/>
        <pt x="913" y="878" on="0"/>
        <pt x="972" y="934" on="0"/>
        <pt x="1054" y="963" on="0"/>
        <pt x="1104" y="963" on="1"/>
        <pt x="1152" y="963" on="0"/>
        <pt x="1235" y="934" on="0"/>
        <pt x="1296" y="879" on="0"/>
        <pt x="1331" y="800" on="0"/>
      </contour>
      <contour>
        <pt x="416" y="748" on="1"/>
        <pt x="416" y="796" on="0"/>
        <pt x="358" y="850" on="0"/>
        <pt x="313" y="850" on="1"/>
        <pt x="268" y="850" on="0"/>
        <pt x="211" y="796" on="0"/>
        <pt x="211" y="748" on="1"/>
        <pt x="211" y="698" on="0"/>
        <pt x="264" y="645" on="0"/>
        <pt x="313" y="645" on="1"/>
        <pt x="360" y="645" on="0"/>
        <pt x="416" y="698" on="0"/>
      </contour>
      <contour>
        <pt x="1206" y="748" on="1"/>
        <pt x="1206" y="796" on="0"/>
        <pt x="1149" y="850" on="0"/>
        <pt x="1104" y="850" on="1"/>
        <pt x="1059" y="850" on="0"/>
        <pt x="1001" y="796" on="0"/>
        <pt x="1001" y="748" on="1"/>
        <pt x="1001" y="698" on="0"/>
        <pt x="1054" y="645" on="0"/>
        <pt x="1104" y="645" on="1"/>
        <pt x="1150" y="645" on="0"/>
        <pt x="1206" y="698" on="0"/>
      </contour>
    </TTGlyph>
    <TTGlyph name="uniA502" xMin="68" yMin="-178" xMax="1528" yMax="1485">
      <contour>
        <pt x="745" y="-104" on="1"/>
        <pt x="838" y="55" on="1"/>
        <pt x="768" y="108" on="0"/>
        <pt x="694" y="272" on="0"/>
        <pt x="694" y="381" on="1"/>
        <pt x="694" y="495" on="0"/>
        <pt x="770" y="751" on="0"/>
        <pt x="838" y="885" on="1"/>
        <pt x="788" y="900" on="0"/>
        <pt x="700" y="981" on="0"/>
        <pt x="678" y="1055" on="1"/>
        <pt x="670" y="1055" on="1"/>
        <pt x="647" y="1002" on="0"/>
        <pt x="583" y="932" on="0"/>
        <pt x="510" y="888" on="0"/>
        <pt x="429" y="870" on="0"/>
        <pt x="389" y="870" on="1"/>
        <pt x="317" y="870" on="0"/>
        <pt x="199" y="914" on="0"/>
        <pt x="114" y="1018" on="0"/>
        <pt x="68" y="1189" on="0"/>
        <pt x="68" y="1317" on="1"/>
        <pt x="68" y="1462" on="1"/>
        <pt x="227" y="1462" on="1"/>
        <pt x="227" y="1317" on="1"/>
        <pt x="227" y="1159" on="0"/>
        <pt x="331" y="1006" on="0"/>
        <pt x="420" y="1006" on="1"/>
        <pt x="454" y="1006" on="0"/>
        <pt x="519" y="1035" on="0"/>
        <pt x="568" y="1099" on="0"/>
        <pt x="598" y="1202" on="0"/>
        <pt x="598" y="1276" on="1"/>
        <pt x="598" y="1462" on="1"/>
        <pt x="758" y="1462" on="1"/>
        <pt x="758" y="1272" on="1"/>
        <pt x="758" y="1210" on="0"/>
        <pt x="780" y="1117" on="0"/>
        <pt x="819" y="1054" on="0"/>
        <pt x="873" y="1017" on="0"/>
        <pt x="905" y="1010" on="1"/>
        <pt x="973" y="1128" on="0"/>
        <pt x="1138" y="1367" on="0"/>
        <pt x="1229" y="1485" on="1"/>
        <pt x="1360" y="1411" on="1"/>
        <pt x="1259" y="1280" on="0"/>
        <pt x="1075" y="1008" on="0"/>
        <pt x="936" y="742" on="0"/>
        <pt x="854" y="491" on="0"/>
        <pt x="854" y="381" on="1"/>
        <pt x="854" y="321" on="0"/>
        <pt x="886" y="225" on="0"/>
        <pt x="915" y="190" on="1"/>
        <pt x="1130" y="559" on="1"/>
        <pt x="1260" y="485" on="1"/>
        <pt x="1047" y="119" on="1"/>
        <pt x="1058" y="117" on="0"/>
        <pt x="1079" y="117" on="0"/>
        <pt x="1092" y="117" on="1"/>
        <pt x="1203" y="117" on="0"/>
        <pt x="1353" y="259" on="0"/>
        <pt x="1391" y="387" on="1"/>
        <pt x="1528" y="352" on="1"/>
        <pt x="1502" y="265" on="0"/>
        <pt x="1416" y="127" on="0"/>
        <pt x="1303" y="29" on="0"/>
        <pt x="1167" y="-23" on="0"/>
        <pt x="1092" y="-23" on="1"/>
        <pt x="1060" y="-23" on="0"/>
        <pt x="1001" y="-14" on="0"/>
        <pt x="973" y="-8" on="1"/>
        <pt x="874" y="-178" on="1"/>
      </contour>
    </TTGlyph>
    <TTGlyph name="uniA503" xMin="68" yMin="0" xMax="1688" yMax="1462">
      <contour>
        <pt x="1217" y="471" on="1"/>
        <pt x="705" y="471" on="1"/>
        <pt x="705" y="760" on="1"/>
        <pt x="638" y="765" on="0"/>
        <pt x="519" y="794" on="0"/>
        <pt x="431" y="861" on="0"/>
        <pt x="379" y="975" on="0"/>
        <pt x="379" y="1067" on="1"/>
        <pt x="379" y="1321" on="1"/>
        <pt x="68" y="1321" on="1"/>
        <pt x="68" y="1462" on="1"/>
        <pt x="850" y="1462" on="1"/>
        <pt x="850" y="1321" on="1"/>
        <pt x="539" y="1321" on="1"/>
        <pt x="539" y="1069" on="1"/>
        <pt x="539" y="1005" on="0"/>
        <pt x="583" y="936" on="0"/>
        <pt x="659" y="904" on="0"/>
        <pt x="759" y="899" on="0"/>
        <pt x="815" y="899" on="1"/>
        <pt x="865" y="899" on="0"/>
        <pt x="987" y="922" on="0"/>
        <pt x="1103" y="963" on="0"/>
        <pt x="1196" y="1019" on="0"/>
        <pt x="1217" y="1053" on="1"/>
        <pt x="1376" y="1053" on="1"/>
        <pt x="1376" y="141" on="1"/>
        <pt x="1688" y="141" on="1"/>
        <pt x="1688" y="0" on="1"/>
        <pt x="905" y="0" on="1"/>
        <pt x="905" y="141" on="1"/>
        <pt x="1217" y="141" on="1"/>
      </contour>
      <contour>
        <pt x="1208" y="872" on="1"/>
        <pt x="1146" y="824" on="0"/>
        <pt x="974" y="773" on="0"/>
        <pt x="864" y="762" on="1"/>
        <pt x="864" y="612" on="1"/>
        <pt x="1217" y="612" on="1"/>
        <pt x="1217" y="872" on="1"/>
      </contour>
    </TTGlyph>
    <TTGlyph name="uniA504" xMin="68" yMin="0" xMax="1688" yMax="1462">
      <contour>
        <pt x="1217" y="471" on="1"/>
        <pt x="705" y="471" on="1"/>
        <pt x="705" y="760" on="1"/>
        <pt x="638" y="765" on="0"/>
        <pt x="519" y="795" on="0"/>
        <pt x="431" y="863" on="0"/>
        <pt x="379" y="981" on="0"/>
        <pt x="379" y="1075" on="1"/>
        <pt x="68" y="1075" on="1"/>
        <pt x="68" y="1217" on="1"/>
        <pt x="379" y="1217" on="1"/>
        <pt x="379" y="1321" on="1"/>
        <pt x="68" y="1321" on="1"/>
        <pt x="68" y="1462" on="1"/>
        <pt x="850" y="1462" on="1"/>
        <pt x="850" y="1321" on="1"/>
        <pt x="539" y="1321" on="1"/>
        <pt x="539" y="1217" on="1"/>
        <pt x="850" y="1217" on="1"/>
        <pt x="850" y="1075" on="1"/>
        <pt x="539" y="1075" on="1"/>
        <pt x="539" y="1009" on="0"/>
        <pt x="583" y="937" on="0"/>
        <pt x="659" y="904" on="0"/>
        <pt x="759" y="899" on="0"/>
        <pt x="815" y="899" on="1"/>
        <pt x="865" y="899" on="0"/>
        <pt x="987" y="922" on="0"/>
        <pt x="1103" y="963" on="0"/>
        <pt x="1196" y="1019" on="0"/>
        <pt x="1217" y="1053" on="1"/>
        <pt x="1376" y="1053" on="1"/>
        <pt x="1376" y="387" on="1"/>
        <pt x="1688" y="387" on="1"/>
        <pt x="1688" y="246" on="1"/>
        <pt x="1376" y="246" on="1"/>
        <pt x="1376" y="141" on="1"/>
        <pt x="1688" y="141" on="1"/>
        <pt x="1688" y="0" on="1"/>
        <pt x="905" y="0" on="1"/>
        <pt x="905" y="141" on="1"/>
        <pt x="1217" y="141" on="1"/>
        <pt x="1217" y="246" on="1"/>
        <pt x="905" y="246" on="1"/>
        <pt x="905" y="387" on="1"/>
        <pt x="1217" y="387" on="1"/>
      </contour>
      <contour>
        <pt x="1208" y="872" on="1"/>
        <pt x="1146" y="824" on="0"/>
        <pt x="974" y="773" on="0"/>
        <pt x="864" y="762" on="1"/>
        <pt x="864" y="612" on="1"/>
        <pt x="1217" y="612" on="1"/>
        <pt x="1217" y="872" on="1"/>
      </contour>
    </TTGlyph>
    <TTGlyph name="uniA505" xMin="68" yMin="-20" xMax="1739" yMax="1477">
      <contour>
        <pt x="68" y="1116" on="1"/>
        <pt x="68" y="1197" on="0"/>
        <pt x="127" y="1330" on="0"/>
        <pt x="226" y="1425" on="0"/>
        <pt x="358" y="1477" on="0"/>
        <pt x="432" y="1477" on="1"/>
        <pt x="497" y="1477" on="0"/>
        <pt x="617" y="1435" on="0"/>
        <pt x="713" y="1358" on="0"/>
        <pt x="779" y="1250" on="0"/>
        <pt x="791" y="1184" on="1"/>
        <pt x="1016" y="1184" on="1"/>
        <pt x="1028" y="1250" on="0"/>
        <pt x="1093" y="1358" on="0"/>
        <pt x="1188" y="1435" on="0"/>
        <pt x="1308" y="1477" on="0"/>
        <pt x="1374" y="1477" on="1"/>
        <pt x="1448" y="1477" on="0"/>
        <pt x="1580" y="1425" on="0"/>
        <pt x="1680" y="1330" on="0"/>
        <pt x="1739" y="1197" on="0"/>
        <pt x="1739" y="1116" on="1"/>
        <pt x="1739" y="1035" on="0"/>
        <pt x="1680" y="903" on="0"/>
        <pt x="1580" y="808" on="0"/>
        <pt x="1448" y="756" on="0"/>
        <pt x="1374" y="756" on="1"/>
        <pt x="1309" y="756" on="0"/>
        <pt x="1190" y="796" on="0"/>
        <pt x="1095" y="871" on="0"/>
        <pt x="1029" y="977" on="0"/>
        <pt x="1016" y="1042" on="1"/>
        <pt x="971" y="1042" on="1"/>
        <pt x="971" y="694" on="1"/>
        <pt x="1033" y="683" on="0"/>
        <pt x="1142" y="623" on="0"/>
        <pt x="1222" y="531" on="0"/>
        <pt x="1268" y="410" on="0"/>
        <pt x="1268" y="340" on="1"/>
        <pt x="1268" y="259" on="0"/>
        <pt x="1209" y="127" on="0"/>
        <pt x="1109" y="32" on="0"/>
        <pt x="977" y="-20" on="0"/>
        <pt x="903" y="-20" on="1"/>
        <pt x="829" y="-20" on="0"/>
        <pt x="697" y="32" on="0"/>
        <pt x="598" y="127" on="0"/>
        <pt x="539" y="259" on="0"/>
        <pt x="539" y="340" on="1"/>
        <pt x="539" y="410" on="0"/>
        <pt x="584" y="529" on="0"/>
        <pt x="662" y="620" on="0"/>
        <pt x="768" y="681" on="0"/>
        <pt x="829" y="692" on="1"/>
        <pt x="829" y="1042" on="1"/>
        <pt x="788" y="1042" on="1"/>
        <pt x="776" y="977" on="0"/>
        <pt x="710" y="871" on="0"/>
        <pt x="615" y="796" on="0"/>
        <pt x="496" y="756" on="0"/>
        <pt x="432" y="756" on="1"/>
        <pt x="358" y="756" on="0"/>
        <pt x="226" y="808" on="0"/>
        <pt x="127" y="903" on="0"/>
        <pt x="68" y="1035" on="0"/>
      </contour>
      <contour>
        <pt x="696" y="340" on="1"/>
        <pt x="696" y="289" on="0"/>
        <pt x="730" y="206" on="0"/>
        <pt x="788" y="147" on="0"/>
        <pt x="862" y="115" on="0"/>
        <pt x="903" y="115" on="1"/>
        <pt x="943" y="115" on="0"/>
        <pt x="1018" y="147" on="0"/>
        <pt x="1075" y="206" on="0"/>
        <pt x="1110" y="289" on="0"/>
        <pt x="1110" y="340" on="1"/>
        <pt x="1110" y="391" on="0"/>
        <pt x="1075" y="474" on="0"/>
        <pt x="1018" y="533" on="0"/>
        <pt x="943" y="565" on="0"/>
        <pt x="903" y="565" on="1"/>
        <pt x="862" y="565" on="0"/>
        <pt x="788" y="533" on="0"/>
        <pt x="730" y="474" on="0"/>
        <pt x="696" y="391" on="0"/>
      </contour>
      <contour>
        <pt x="225" y="1116" on="1"/>
        <pt x="225" y="1065" on="0"/>
        <pt x="259" y="982" on="0"/>
        <pt x="317" y="923" on="0"/>
        <pt x="391" y="891" on="0"/>
        <pt x="432" y="891" on="1"/>
        <pt x="472" y="891" on="0"/>
        <pt x="547" y="923" on="0"/>
        <pt x="604" y="982" on="0"/>
        <pt x="639" y="1065" on="0"/>
        <pt x="639" y="1116" on="1"/>
        <pt x="639" y="1167" on="0"/>
        <pt x="604" y="1250" on="0"/>
        <pt x="547" y="1309" on="0"/>
        <pt x="472" y="1341" on="0"/>
        <pt x="432" y="1341" on="1"/>
        <pt x="391" y="1341" on="0"/>
        <pt x="317" y="1309" on="0"/>
        <pt x="259" y="1250" on="0"/>
        <pt x="225" y="1167" on="0"/>
      </contour>
      <contour>
        <pt x="1167" y="1116" on="1"/>
        <pt x="1167" y="1065" on="0"/>
        <pt x="1201" y="982" on="0"/>
        <pt x="1259" y="923" on="0"/>
        <pt x="1333" y="891" on="0"/>
        <pt x="1374" y="891" on="1"/>
        <pt x="1414" y="891" on="0"/>
        <pt x="1489" y="923" on="0"/>
        <pt x="1546" y="982" on="0"/>
        <pt x="1581" y="1065" on="0"/>
        <pt x="1581" y="1116" on="1"/>
        <pt x="1581" y="1167" on="0"/>
        <pt x="1546" y="1250" on="0"/>
        <pt x="1489" y="1309" on="0"/>
        <pt x="1414" y="1341" on="0"/>
        <pt x="1374" y="1341" on="1"/>
        <pt x="1333" y="1341" on="0"/>
        <pt x="1259" y="1309" on="0"/>
        <pt x="1201" y="1250" on="0"/>
        <pt x="1167" y="1167" on="0"/>
      </contour>
    </TTGlyph>
    <TTGlyph name="uniA506" xMin="68" yMin="-20" xMax="2148" yMax="1477">
      <contour>
        <pt x="743" y="1116" on="1"/>
        <pt x="743" y="1197" on="0"/>
        <pt x="802" y="1330" on="0"/>
        <pt x="902" y="1425" on="0"/>
        <pt x="1034" y="1477" on="0"/>
        <pt x="1108" y="1477" on="1"/>
        <pt x="1182" y="1477" on="0"/>
        <pt x="1314" y="1425" on="0"/>
        <pt x="1414" y="1330" on="0"/>
        <pt x="1473" y="1197" on="0"/>
        <pt x="1473" y="1116" on="1"/>
        <pt x="1473" y="1045" on="0"/>
        <pt x="1427" y="924" on="0"/>
        <pt x="1346" y="833" on="0"/>
        <pt x="1238" y="773" on="0"/>
        <pt x="1176" y="762" on="1"/>
        <pt x="1176" y="414" on="1"/>
        <pt x="1425" y="414" on="1"/>
        <pt x="1438" y="479" on="0"/>
        <pt x="1505" y="585" on="0"/>
        <pt x="1600" y="660" on="0"/>
        <pt x="1719" y="700" on="0"/>
        <pt x="1784" y="700" on="1"/>
        <pt x="1857" y="700" on="0"/>
        <pt x="1990" y="648" on="0"/>
        <pt x="2089" y="553" on="0"/>
        <pt x="2148" y="421" on="0"/>
        <pt x="2148" y="340" on="1"/>
        <pt x="2148" y="259" on="0"/>
        <pt x="2089" y="127" on="0"/>
        <pt x="1990" y="32" on="0"/>
        <pt x="1857" y="-20" on="0"/>
        <pt x="1784" y="-20" on="1"/>
        <pt x="1718" y="-20" on="0"/>
        <pt x="1598" y="21" on="0"/>
        <pt x="1502" y="97" on="0"/>
        <pt x="1437" y="205" on="0"/>
        <pt x="1425" y="272" on="1"/>
        <pt x="791" y="272" on="1"/>
        <pt x="779" y="205" on="0"/>
        <pt x="713" y="97" on="0"/>
        <pt x="617" y="21" on="0"/>
        <pt x="497" y="-20" on="0"/>
        <pt x="432" y="-20" on="1"/>
        <pt x="358" y="-20" on="0"/>
        <pt x="226" y="32" on="0"/>
        <pt x="127" y="127" on="0"/>
        <pt x="68" y="259" on="0"/>
        <pt x="68" y="340" on="1"/>
        <pt x="68" y="421" on="0"/>
        <pt x="127" y="553" on="0"/>
        <pt x="226" y="648" on="0"/>
        <pt x="358" y="700" on="0"/>
        <pt x="432" y="700" on="1"/>
        <pt x="496" y="700" on="0"/>
        <pt x="615" y="660" on="0"/>
        <pt x="710" y="585" on="0"/>
        <pt x="776" y="479" on="0"/>
        <pt x="788" y="414" on="1"/>
        <pt x="1034" y="414" on="1"/>
        <pt x="1034" y="762" on="1"/>
        <pt x="972" y="774" on="0"/>
        <pt x="866" y="835" on="0"/>
        <pt x="788" y="927" on="0"/>
        <pt x="743" y="1045" on="0"/>
      </contour>
      <contour>
        <pt x="901" y="1116" on="1"/>
        <pt x="901" y="1065" on="0"/>
        <pt x="935" y="982" on="0"/>
        <pt x="992" y="923" on="0"/>
        <pt x="1067" y="891" on="0"/>
        <pt x="1108" y="891" on="1"/>
        <pt x="1148" y="891" on="0"/>
        <pt x="1222" y="923" on="0"/>
        <pt x="1280" y="982" on="0"/>
        <pt x="1315" y="1065" on="0"/>
        <pt x="1315" y="1116" on="1"/>
        <pt x="1315" y="1167" on="0"/>
        <pt x="1280" y="1250" on="0"/>
        <pt x="1222" y="1309" on="0"/>
        <pt x="1148" y="1341" on="0"/>
        <pt x="1108" y="1341" on="1"/>
        <pt x="1067" y="1341" on="0"/>
        <pt x="992" y="1309" on="0"/>
        <pt x="935" y="1250" on="0"/>
        <pt x="901" y="1167" on="0"/>
      </contour>
      <contour>
        <pt x="1577" y="340" on="1"/>
        <pt x="1577" y="289" on="0"/>
        <pt x="1611" y="206" on="0"/>
        <pt x="1668" y="147" on="0"/>
        <pt x="1743" y="115" on="0"/>
        <pt x="1784" y="115" on="1"/>
        <pt x="1824" y="115" on="0"/>
        <pt x="1898" y="147" on="0"/>
        <pt x="1956" y="206" on="0"/>
        <pt x="1991" y="289" on="0"/>
        <pt x="1991" y="340" on="1"/>
        <pt x="1991" y="391" on="0"/>
        <pt x="1956" y="474" on="0"/>
        <pt x="1898" y="533" on="0"/>
        <pt x="1824" y="565" on="0"/>
        <pt x="1784" y="565" on="1"/>
        <pt x="1743" y="565" on="0"/>
        <pt x="1668" y="533" on="0"/>
        <pt x="1611" y="474" on="0"/>
        <pt x="1577" y="391" on="0"/>
      </contour>
      <contour>
        <pt x="225" y="340" on="1"/>
        <pt x="225" y="289" on="0"/>
        <pt x="259" y="206" on="0"/>
        <pt x="317" y="147" on="0"/>
        <pt x="391" y="115" on="0"/>
        <pt x="432" y="115" on="1"/>
        <pt x="472" y="115" on="0"/>
        <pt x="547" y="147" on="0"/>
        <pt x="604" y="206" on="0"/>
        <pt x="639" y="289" on="0"/>
        <pt x="639" y="340" on="1"/>
        <pt x="639" y="391" on="0"/>
        <pt x="604" y="474" on="0"/>
        <pt x="547" y="533" on="0"/>
        <pt x="472" y="565" on="0"/>
        <pt x="432" y="565" on="1"/>
        <pt x="391" y="565" on="0"/>
        <pt x="317" y="533" on="0"/>
        <pt x="259" y="474" on="0"/>
        <pt x="225" y="391" on="0"/>
      </contour>
      <contour>
        <pt x="971" y="641" on="1"/>
        <pt x="971" y="591" on="0"/>
        <pt x="915" y="539" on="0"/>
        <pt x="868" y="539" on="1"/>
        <pt x="819" y="539" on="0"/>
        <pt x="766" y="591" on="0"/>
        <pt x="766" y="641" on="1"/>
        <pt x="766" y="689" on="0"/>
        <pt x="823" y="743" on="0"/>
        <pt x="868" y="743" on="1"/>
        <pt x="913" y="743" on="0"/>
        <pt x="971" y="689" on="0"/>
      </contour>
      <contour>
        <pt x="1448" y="641" on="1"/>
        <pt x="1448" y="591" on="0"/>
        <pt x="1392" y="539" on="0"/>
        <pt x="1346" y="539" on="1"/>
        <pt x="1296" y="539" on="0"/>
        <pt x="1243" y="591" on="0"/>
        <pt x="1243" y="641" on="1"/>
        <pt x="1243" y="689" on="0"/>
        <pt x="1301" y="743" on="0"/>
        <pt x="1346" y="743" on="1"/>
        <pt x="1391" y="743" on="0"/>
        <pt x="1448" y="689" on="0"/>
      </contour>
    </TTGlyph>
    <TTGlyph name="uniA507" xMin="90" yMin="0" xMax="1460" yMax="1483">
      <contour>
        <pt x="369" y="1393" on="1"/>
        <pt x="337" y="1363" on="0"/>
        <pt x="291" y="1306" on="0"/>
        <pt x="262" y="1248" on="0"/>
        <pt x="248" y="1186" on="0"/>
        <pt x="248" y="1151" on="1"/>
        <pt x="248" y="1106" on="0"/>
        <pt x="274" y="1023" on="0"/>
        <pt x="327" y="959" on="0"/>
        <pt x="409" y="920" on="0"/>
        <pt x="465" y="920" on="1"/>
        <pt x="524" y="920" on="0"/>
        <pt x="643" y="977" on="0"/>
        <pt x="755" y="1069" on="0"/>
        <pt x="854" y="1187" on="0"/>
        <pt x="932" y="1307" on="0"/>
        <pt x="982" y="1420" on="0"/>
        <pt x="989" y="1462" on="1"/>
        <pt x="1149" y="1462" on="1"/>
        <pt x="1149" y="141" on="1"/>
        <pt x="1460" y="141" on="1"/>
        <pt x="1460" y="0" on="1"/>
        <pt x="678" y="0" on="1"/>
        <pt x="678" y="141" on="1"/>
        <pt x="989" y="141" on="1"/>
        <pt x="989" y="1180" on="1"/>
        <pt x="981" y="1180" on="1"/>
        <pt x="932" y="1090" on="0"/>
        <pt x="819" y="942" on="0"/>
        <pt x="687" y="837" on="0"/>
        <pt x="534" y="780" on="0"/>
        <pt x="446" y="780" on="1"/>
        <pt x="387" y="780" on="0"/>
        <pt x="261" y="823" on="0"/>
        <pt x="157" y="913" on="0"/>
        <pt x="90" y="1052" on="0"/>
        <pt x="90" y="1149" on="1"/>
        <pt x="90" y="1251" on="0"/>
        <pt x="191" y="1421" on="0"/>
        <pt x="274" y="1483" on="1"/>
      </contour>
    </TTGlyph>
    <TTGlyph name="uniA508" xMin="90" yMin="0" xMax="1460" yMax="1483">
      <contour>
        <pt x="1440" y="563" on="1"/>
        <pt x="1440" y="514" on="0"/>
        <pt x="1384" y="461" on="0"/>
        <pt x="1337" y="461" on="1"/>
        <pt x="1288" y="461" on="0"/>
        <pt x="1235" y="514" on="0"/>
        <pt x="1235" y="563" on="1"/>
        <pt x="1235" y="611" on="0"/>
        <pt x="1292" y="666" on="0"/>
        <pt x="1337" y="666" on="1"/>
        <pt x="1382" y="666" on="0"/>
        <pt x="1440" y="611" on="0"/>
      </contour>
      <contour>
        <pt x="903" y="563" on="1"/>
        <pt x="903" y="514" on="0"/>
        <pt x="847" y="461" on="0"/>
        <pt x="801" y="461" on="1"/>
        <pt x="751" y="461" on="0"/>
        <pt x="698" y="514" on="0"/>
        <pt x="698" y="563" on="1"/>
        <pt x="698" y="611" on="0"/>
        <pt x="756" y="666" on="0"/>
        <pt x="801" y="666" on="1"/>
        <pt x="846" y="666" on="0"/>
        <pt x="903" y="611" on="0"/>
      </contour>
      <contour>
        <pt x="369" y="1393" on="1"/>
        <pt x="337" y="1363" on="0"/>
        <pt x="291" y="1306" on="0"/>
        <pt x="262" y="1248" on="0"/>
        <pt x="248" y="1186" on="0"/>
        <pt x="248" y="1151" on="1"/>
        <pt x="248" y="1106" on="0"/>
        <pt x="274" y="1023" on="0"/>
        <pt x="327" y="959" on="0"/>
        <pt x="409" y="920" on="0"/>
        <pt x="465" y="920" on="1"/>
        <pt x="524" y="920" on="0"/>
        <pt x="643" y="977" on="0"/>
        <pt x="755" y="1069" on="0"/>
        <pt x="854" y="1187" on="0"/>
        <pt x="932" y="1307" on="0"/>
        <pt x="982" y="1420" on="0"/>
        <pt x="989" y="1462" on="1"/>
        <pt x="1149" y="1462" on="1"/>
        <pt x="1149" y="141" on="1"/>
        <pt x="1460" y="141" on="1"/>
        <pt x="1460" y="0" on="1"/>
        <pt x="678" y="0" on="1"/>
        <pt x="678" y="141" on="1"/>
        <pt x="989" y="141" on="1"/>
        <pt x="989" y="1180" on="1"/>
        <pt x="981" y="1180" on="1"/>
        <pt x="932" y="1090" on="0"/>
        <pt x="819" y="942" on="0"/>
        <pt x="687" y="837" on="0"/>
        <pt x="534" y="780" on="0"/>
        <pt x="446" y="780" on="1"/>
        <pt x="387" y="780" on="0"/>
        <pt x="261" y="823" on="0"/>
        <pt x="157" y="913" on="0"/>
        <pt x="90" y="1052" on="0"/>
        <pt x="90" y="1149" on="1"/>
        <pt x="90" y="1251" on="0"/>
        <pt x="191" y="1421" on="0"/>
        <pt x="274" y="1483" on="1"/>
      </contour>
    </TTGlyph>
    <TTGlyph name="uniA509" xMin="68" yMin="0" xMax="1300" yMax="1462">
      <contour>
        <pt x="1300" y="1321" on="1"/>
        <pt x="764" y="1321" on="1"/>
        <pt x="764" y="0" on="1"/>
        <pt x="604" y="0" on="1"/>
        <pt x="604" y="1321" on="1"/>
        <pt x="68" y="1321" on="1"/>
        <pt x="68" y="1462" on="1"/>
        <pt x="1300" y="1462" on="1"/>
      </contour>
      <contour>
        <pt x="451" y="768" on="1"/>
        <pt x="451" y="718" on="0"/>
        <pt x="395" y="666" on="0"/>
        <pt x="348" y="666" on="1"/>
        <pt x="299" y="666" on="0"/>
        <pt x="246" y="718" on="0"/>
        <pt x="246" y="768" on="1"/>
        <pt x="246" y="816" on="0"/>
        <pt x="303" y="870" on="0"/>
        <pt x="348" y="870" on="1"/>
        <pt x="393" y="870" on="0"/>
        <pt x="451" y="816" on="0"/>
      </contour>
      <contour>
        <pt x="1118" y="768" on="1"/>
        <pt x="1118" y="718" on="0"/>
        <pt x="1062" y="666" on="0"/>
        <pt x="1016" y="666" on="1"/>
        <pt x="966" y="666" on="0"/>
        <pt x="913" y="718" on="0"/>
        <pt x="913" y="768" on="1"/>
        <pt x="913" y="816" on="0"/>
        <pt x="971" y="870" on="0"/>
        <pt x="1016" y="870" on="1"/>
        <pt x="1061" y="870" on="0"/>
        <pt x="1118" y="816" on="0"/>
      </contour>
    </TTGlyph>
    <TTGlyph name="uniA50A" xMin="68" yMin="0" xMax="1300" yMax="1462">
      <contour>
        <pt x="764" y="362" on="1"/>
        <pt x="764" y="0" on="1"/>
        <pt x="604" y="0" on="1"/>
        <pt x="604" y="362" on="1"/>
        <pt x="211" y="362" on="1"/>
        <pt x="211" y="504" on="1"/>
        <pt x="604" y="504" on="1"/>
        <pt x="604" y="1321" on="1"/>
        <pt x="68" y="1321" on="1"/>
        <pt x="68" y="1462" on="1"/>
        <pt x="1300" y="1462" on="1"/>
        <pt x="1300" y="1321" on="1"/>
        <pt x="764" y="1321" on="1"/>
        <pt x="764" y="504" on="1"/>
        <pt x="1157" y="504" on="1"/>
        <pt x="1157" y="362" on="1"/>
      </contour>
      <contour>
        <pt x="451" y="768" on="1"/>
        <pt x="451" y="718" on="0"/>
        <pt x="395" y="666" on="0"/>
        <pt x="348" y="666" on="1"/>
        <pt x="299" y="666" on="0"/>
        <pt x="246" y="718" on="0"/>
        <pt x="246" y="768" on="1"/>
        <pt x="246" y="816" on="0"/>
        <pt x="303" y="870" on="0"/>
        <pt x="348" y="870" on="1"/>
        <pt x="393" y="870" on="0"/>
        <pt x="451" y="816" on="0"/>
      </contour>
      <contour>
        <pt x="1118" y="768" on="1"/>
        <pt x="1118" y="718" on="0"/>
        <pt x="1062" y="666" on="0"/>
        <pt x="1016" y="666" on="1"/>
        <pt x="966" y="666" on="0"/>
        <pt x="913" y="718" on="0"/>
        <pt x="913" y="768" on="1"/>
        <pt x="913" y="816" on="0"/>
        <pt x="971" y="870" on="0"/>
        <pt x="1016" y="870" on="1"/>
        <pt x="1061" y="870" on="0"/>
        <pt x="1118" y="816" on="0"/>
      </contour>
    </TTGlyph>
    <TTGlyph name="uniA50B" xMin="68" yMin="0" xMax="1300" yMax="1462">
      <contour>
        <pt x="1300" y="1321" on="1"/>
        <pt x="764" y="1321" on="1"/>
        <pt x="764" y="0" on="1"/>
        <pt x="604" y="0" on="1"/>
        <pt x="604" y="1321" on="1"/>
        <pt x="68" y="1321" on="1"/>
        <pt x="68" y="1462" on="1"/>
        <pt x="1300" y="1462" on="1"/>
      </contour>
    </TTGlyph>
    <TTGlyph name="uniA50C" xMin="113" yMin="0" xMax="1001" yMax="1479">
      <contour>
        <pt x="1001" y="1028" on="1"/>
        <pt x="1001" y="936" on="0"/>
        <pt x="944" y="787" on="0"/>
        <pt x="845" y="675" on="0"/>
        <pt x="712" y="604" on="0"/>
        <pt x="635" y="592" on="1"/>
        <pt x="635" y="141" on="1"/>
        <pt x="946" y="141" on="1"/>
        <pt x="946" y="0" on="1"/>
        <pt x="164" y="0" on="1"/>
        <pt x="164" y="141" on="1"/>
        <pt x="475" y="141" on="1"/>
        <pt x="475" y="592" on="1"/>
        <pt x="396" y="604" on="0"/>
        <pt x="263" y="676" on="0"/>
        <pt x="167" y="788" on="0"/>
        <pt x="113" y="937" on="0"/>
        <pt x="113" y="1028" on="1"/>
        <pt x="113" y="1128" on="0"/>
        <pt x="186" y="1295" on="0"/>
        <pt x="309" y="1413" on="0"/>
        <pt x="470" y="1479" on="0"/>
        <pt x="557" y="1479" on="1"/>
        <pt x="644" y="1479" on="0"/>
        <pt x="804" y="1413" on="0"/>
        <pt x="927" y="1295" on="0"/>
        <pt x="1001" y="1128" on="0"/>
      </contour>
      <contour>
        <pt x="842" y="1028" on="1"/>
        <pt x="842" y="1098" on="0"/>
        <pt x="793" y="1212" on="0"/>
        <pt x="713" y="1294" on="0"/>
        <pt x="611" y="1339" on="0"/>
        <pt x="557" y="1339" on="1"/>
        <pt x="503" y="1339" on="0"/>
        <pt x="400" y="1294" on="0"/>
        <pt x="320" y="1212" on="0"/>
        <pt x="272" y="1098" on="0"/>
        <pt x="272" y="1028" on="1"/>
        <pt x="272" y="958" on="0"/>
        <pt x="317" y="846" on="0"/>
        <pt x="394" y="767" on="0"/>
        <pt x="498" y="725" on="0"/>
        <pt x="557" y="725" on="1"/>
        <pt x="613" y="725" on="0"/>
        <pt x="716" y="767" on="0"/>
        <pt x="795" y="846" on="0"/>
        <pt x="842" y="958" on="0"/>
      </contour>
    </TTGlyph>
    <TTGlyph name="uniA50D" xMin="113" yMin="0" xMax="1001" yMax="1479">
      <contour>
        <pt x="475" y="592" on="1"/>
        <pt x="396" y="604" on="0"/>
        <pt x="263" y="676" on="0"/>
        <pt x="167" y="788" on="0"/>
        <pt x="113" y="937" on="0"/>
        <pt x="113" y="1028" on="1"/>
        <pt x="113" y="1128" on="0"/>
        <pt x="186" y="1295" on="0"/>
        <pt x="309" y="1413" on="0"/>
        <pt x="470" y="1479" on="0"/>
        <pt x="557" y="1479" on="1"/>
        <pt x="644" y="1479" on="0"/>
        <pt x="804" y="1413" on="0"/>
        <pt x="927" y="1295" on="0"/>
        <pt x="1001" y="1128" on="0"/>
        <pt x="1001" y="1028" on="1"/>
        <pt x="1001" y="936" on="0"/>
        <pt x="944" y="787" on="0"/>
        <pt x="845" y="675" on="0"/>
        <pt x="712" y="604" on="0"/>
        <pt x="635" y="592" on="1"/>
        <pt x="635" y="387" on="1"/>
        <pt x="946" y="387" on="1"/>
        <pt x="946" y="246" on="1"/>
        <pt x="635" y="246" on="1"/>
        <pt x="635" y="141" on="1"/>
        <pt x="946" y="141" on="1"/>
        <pt x="946" y="0" on="1"/>
        <pt x="164" y="0" on="1"/>
        <pt x="164" y="141" on="1"/>
        <pt x="475" y="141" on="1"/>
        <pt x="475" y="246" on="1"/>
        <pt x="164" y="246" on="1"/>
        <pt x="164" y="387" on="1"/>
        <pt x="475" y="387" on="1"/>
      </contour>
      <contour>
        <pt x="842" y="1028" on="1"/>
        <pt x="842" y="1098" on="0"/>
        <pt x="793" y="1212" on="0"/>
        <pt x="713" y="1294" on="0"/>
        <pt x="611" y="1339" on="0"/>
        <pt x="557" y="1339" on="1"/>
        <pt x="503" y="1339" on="0"/>
        <pt x="400" y="1294" on="0"/>
        <pt x="320" y="1212" on="0"/>
        <pt x="272" y="1098" on="0"/>
        <pt x="272" y="1028" on="1"/>
        <pt x="272" y="958" on="0"/>
        <pt x="317" y="846" on="0"/>
        <pt x="394" y="767" on="0"/>
        <pt x="498" y="725" on="0"/>
        <pt x="557" y="725" on="1"/>
        <pt x="613" y="725" on="0"/>
        <pt x="716" y="767" on="0"/>
        <pt x="795" y="846" on="0"/>
        <pt x="842" y="958" on="0"/>
      </contour>
    </TTGlyph>
    <TTGlyph name="uniA50E" xMin="113" yMin="0" xMax="1735" yMax="1462">
      <contour>
        <pt x="1176" y="1004" on="1"/>
        <pt x="1167" y="1004" on="1"/>
        <pt x="1151" y="968" on="0"/>
        <pt x="1103" y="917" on="0"/>
        <pt x="1049" y="885" on="0"/>
        <pt x="993" y="870" on="0"/>
        <pt x="969" y="870" on="1"/>
        <pt x="938" y="870" on="0"/>
        <pt x="866" y="887" on="0"/>
        <pt x="797" y="930" on="0"/>
        <pt x="739" y="1001" on="0"/>
        <pt x="723" y="1055" on="1"/>
        <pt x="715" y="1055" on="1"/>
        <pt x="692" y="1002" on="0"/>
        <pt x="628" y="932" on="0"/>
        <pt x="555" y="888" on="0"/>
        <pt x="474" y="870" on="0"/>
        <pt x="434" y="870" on="1"/>
        <pt x="362" y="870" on="0"/>
        <pt x="244" y="914" on="0"/>
        <pt x="159" y="1018" on="0"/>
        <pt x="113" y="1189" on="0"/>
        <pt x="113" y="1317" on="1"/>
        <pt x="113" y="1462" on="1"/>
        <pt x="272" y="1462" on="1"/>
        <pt x="272" y="1317" on="1"/>
        <pt x="272" y="1159" on="0"/>
        <pt x="376" y="1006" on="0"/>
        <pt x="465" y="1006" on="1"/>
        <pt x="499" y="1006" on="0"/>
        <pt x="564" y="1035" on="0"/>
        <pt x="613" y="1099" on="0"/>
        <pt x="643" y="1202" on="0"/>
        <pt x="643" y="1276" on="1"/>
        <pt x="643" y="1462" on="1"/>
        <pt x="803" y="1462" on="1"/>
        <pt x="803" y="1272" on="1"/>
        <pt x="803" y="1200" on="0"/>
        <pt x="833" y="1098" on="0"/>
        <pt x="884" y="1035" on="0"/>
        <pt x="954" y="1006" on="0"/>
        <pt x="995" y="1006" on="1"/>
        <pt x="1034" y="1006" on="0"/>
        <pt x="1101" y="1044" on="0"/>
        <pt x="1149" y="1122" on="0"/>
        <pt x="1176" y="1240" on="0"/>
        <pt x="1176" y="1321" on="1"/>
        <pt x="1176" y="1462" on="1"/>
        <pt x="1335" y="1462" on="1"/>
        <pt x="1335" y="743" on="1"/>
        <pt x="1735" y="743" on="1"/>
        <pt x="1735" y="604" on="1"/>
        <pt x="1335" y="604" on="1"/>
        <pt x="1335" y="141" on="1"/>
        <pt x="1735" y="141" on="1"/>
        <pt x="1735" y="0" on="1"/>
        <pt x="1176" y="0" on="1"/>
      </contour>
    </TTGlyph>
    <TTGlyph name="uniA50F" xMin="113" yMin="0" xMax="1735" yMax="1462">
      <contour>
        <pt x="1176" y="1004" on="1"/>
        <pt x="1167" y="1004" on="1"/>
        <pt x="1151" y="968" on="0"/>
        <pt x="1103" y="917" on="0"/>
        <pt x="1049" y="885" on="0"/>
        <pt x="993" y="870" on="0"/>
        <pt x="969" y="870" on="1"/>
        <pt x="938" y="870" on="0"/>
        <pt x="866" y="887" on="0"/>
        <pt x="797" y="930" on="0"/>
        <pt x="739" y="1001" on="0"/>
        <pt x="723" y="1055" on="1"/>
        <pt x="715" y="1055" on="1"/>
        <pt x="692" y="1002" on="0"/>
        <pt x="628" y="932" on="0"/>
        <pt x="555" y="888" on="0"/>
        <pt x="474" y="870" on="0"/>
        <pt x="434" y="870" on="1"/>
        <pt x="362" y="870" on="0"/>
        <pt x="244" y="914" on="0"/>
        <pt x="159" y="1018" on="0"/>
        <pt x="113" y="1189" on="0"/>
        <pt x="113" y="1317" on="1"/>
        <pt x="113" y="1462" on="1"/>
        <pt x="272" y="1462" on="1"/>
        <pt x="272" y="1317" on="1"/>
        <pt x="272" y="1159" on="0"/>
        <pt x="376" y="1006" on="0"/>
        <pt x="465" y="1006" on="1"/>
        <pt x="499" y="1006" on="0"/>
        <pt x="564" y="1035" on="0"/>
        <pt x="613" y="1099" on="0"/>
        <pt x="643" y="1202" on="0"/>
        <pt x="643" y="1276" on="1"/>
        <pt x="643" y="1462" on="1"/>
        <pt x="803" y="1462" on="1"/>
        <pt x="803" y="1272" on="1"/>
        <pt x="803" y="1200" on="0"/>
        <pt x="833" y="1098" on="0"/>
        <pt x="884" y="1035" on="0"/>
        <pt x="954" y="1006" on="0"/>
        <pt x="995" y="1006" on="1"/>
        <pt x="1034" y="1006" on="0"/>
        <pt x="1101" y="1044" on="0"/>
        <pt x="1149" y="1122" on="0"/>
        <pt x="1176" y="1240" on="0"/>
        <pt x="1176" y="1321" on="1"/>
        <pt x="1176" y="1462" on="1"/>
        <pt x="1335" y="1462" on="1"/>
        <pt x="1335" y="1333" on="1"/>
        <pt x="1735" y="1333" on="1"/>
        <pt x="1735" y="1194" on="1"/>
        <pt x="1335" y="1194" on="1"/>
        <pt x="1335" y="743" on="1"/>
        <pt x="1735" y="743" on="1"/>
        <pt x="1735" y="604" on="1"/>
        <pt x="1335" y="604" on="1"/>
        <pt x="1335" y="141" on="1"/>
        <pt x="1735" y="141" on="1"/>
        <pt x="1735" y="0" on="1"/>
        <pt x="1176" y="0" on="1"/>
      </contour>
    </TTGlyph>
    <TTGlyph name="uniA510" xMin="113" yMin="-20" xMax="2404" yMax="1462">
      <contour>
        <pt x="1030" y="119" on="1"/>
        <pt x="1064" y="119" on="0"/>
        <pt x="1119" y="159" on="0"/>
        <pt x="1156" y="252" on="0"/>
        <pt x="1176" y="405" on="0"/>
        <pt x="1176" y="518" on="1"/>
        <pt x="1176" y="592" on="1"/>
        <pt x="1087" y="572" on="0"/>
        <pt x="988" y="499" on="0"/>
        <pt x="939" y="411" on="0"/>
        <pt x="928" y="315" on="0"/>
        <pt x="928" y="272" on="1"/>
        <pt x="928" y="233" on="0"/>
        <pt x="944" y="175" on="0"/>
        <pt x="972" y="138" on="0"/>
        <pt x="1009" y="119" on="0"/>
      </contour>
      <contour>
        <pt x="1335" y="518" on="1"/>
        <pt x="1335" y="252" on="0"/>
        <pt x="1177" y="-20" on="0"/>
        <pt x="1030" y="-20" on="1"/>
        <pt x="991" y="-20" on="0"/>
        <pt x="906" y="12" on="0"/>
        <pt x="834" y="82" on="0"/>
        <pt x="788" y="191" on="0"/>
        <pt x="788" y="268" on="1"/>
        <pt x="788" y="344" on="0"/>
        <pt x="824" y="493" on="0"/>
        <pt x="913" y="619" on="0"/>
        <pt x="1063" y="712" on="0"/>
        <pt x="1176" y="733" on="1"/>
        <pt x="1176" y="1004" on="1"/>
        <pt x="1167" y="1004" on="1"/>
        <pt x="1151" y="968" on="0"/>
        <pt x="1103" y="917" on="0"/>
        <pt x="1049" y="885" on="0"/>
        <pt x="993" y="870" on="0"/>
        <pt x="969" y="870" on="1"/>
        <pt x="938" y="870" on="0"/>
        <pt x="866" y="887" on="0"/>
        <pt x="797" y="930" on="0"/>
        <pt x="739" y="1001" on="0"/>
        <pt x="723" y="1055" on="1"/>
        <pt x="715" y="1055" on="1"/>
        <pt x="692" y="1002" on="0"/>
        <pt x="628" y="932" on="0"/>
        <pt x="555" y="888" on="0"/>
        <pt x="474" y="870" on="0"/>
        <pt x="434" y="870" on="1"/>
        <pt x="362" y="870" on="0"/>
        <pt x="244" y="914" on="0"/>
        <pt x="159" y="1018" on="0"/>
        <pt x="113" y="1189" on="0"/>
        <pt x="113" y="1317" on="1"/>
        <pt x="113" y="1462" on="1"/>
        <pt x="272" y="1462" on="1"/>
        <pt x="272" y="1317" on="1"/>
        <pt x="272" y="1159" on="0"/>
        <pt x="376" y="1006" on="0"/>
        <pt x="465" y="1006" on="1"/>
        <pt x="499" y="1006" on="0"/>
        <pt x="564" y="1035" on="0"/>
        <pt x="613" y="1099" on="0"/>
        <pt x="643" y="1202" on="0"/>
        <pt x="643" y="1276" on="1"/>
        <pt x="643" y="1462" on="1"/>
        <pt x="803" y="1462" on="1"/>
        <pt x="803" y="1272" on="1"/>
        <pt x="803" y="1200" on="0"/>
        <pt x="833" y="1098" on="0"/>
        <pt x="884" y="1035" on="0"/>
        <pt x="954" y="1006" on="0"/>
        <pt x="995" y="1006" on="1"/>
        <pt x="1034" y="1006" on="0"/>
        <pt x="1101" y="1044" on="0"/>
        <pt x="1149" y="1122" on="0"/>
        <pt x="1176" y="1240" on="0"/>
        <pt x="1176" y="1321" on="1"/>
        <pt x="1176" y="1462" on="1"/>
        <pt x="1335" y="1462" on="1"/>
        <pt x="1335" y="768" on="1"/>
        <pt x="1364" y="773" on="0"/>
        <pt x="1419" y="802" on="0"/>
        <pt x="1461" y="852" on="0"/>
        <pt x="1487" y="922" on="0"/>
        <pt x="1487" y="969" on="1"/>
        <pt x="1647" y="969" on="1"/>
        <pt x="1647" y="914" on="0"/>
        <pt x="1668" y="835" on="0"/>
        <pt x="1702" y="783" on="0"/>
        <pt x="1748" y="758" on="0"/>
        <pt x="1774" y="758" on="1"/>
        <pt x="1799" y="758" on="0"/>
        <pt x="1851" y="782" on="0"/>
        <pt x="1894" y="833" on="0"/>
        <pt x="1921" y="913" on="0"/>
        <pt x="1921" y="969" on="1"/>
        <pt x="2081" y="969" on="1"/>
        <pt x="2081" y="911" on="0"/>
        <pt x="2104" y="831" on="0"/>
        <pt x="2140" y="781" on="0"/>
        <pt x="2185" y="758" on="0"/>
        <pt x="2208" y="758" on="1"/>
        <pt x="2236" y="758" on="0"/>
        <pt x="2277" y="787" on="0"/>
        <pt x="2302" y="825" on="1"/>
        <pt x="2404" y="762" on="1"/>
        <pt x="2392" y="741" on="0"/>
        <pt x="2353" y="692" on="0"/>
        <pt x="2299" y="650" on="0"/>
        <pt x="2232" y="623" on="0"/>
        <pt x="2193" y="623" on="1"/>
        <pt x="2165" y="623" on="0"/>
        <pt x="2105" y="640" on="0"/>
        <pt x="2052" y="679" on="0"/>
        <pt x="2010" y="741" on="0"/>
        <pt x="1999" y="786" on="1"/>
        <pt x="1991" y="786" on="1"/>
        <pt x="1982" y="740" on="0"/>
        <pt x="1934" y="678" on="0"/>
        <pt x="1871" y="640" on="0"/>
        <pt x="1803" y="623" on="0"/>
        <pt x="1774" y="623" on="1"/>
        <pt x="1745" y="623" on="0"/>
        <pt x="1680" y="641" on="0"/>
        <pt x="1622" y="680" on="0"/>
        <pt x="1577" y="742" on="0"/>
        <pt x="1567" y="786" on="1"/>
        <pt x="1559" y="786" on="1"/>
        <pt x="1547" y="748" on="0"/>
        <pt x="1496" y="692" on="0"/>
        <pt x="1433" y="654" on="0"/>
        <pt x="1365" y="631" on="0"/>
        <pt x="1335" y="627" on="1"/>
      </contour>
    </TTGlyph>
    <TTGlyph name="uniA511" xMin="113" yMin="-20" xMax="2404" yMax="1462">
      <contour>
        <pt x="1559" y="786" on="1"/>
        <pt x="1547" y="748" on="0"/>
        <pt x="1496" y="692" on="0"/>
        <pt x="1433" y="654" on="0"/>
        <pt x="1365" y="631" on="0"/>
        <pt x="1335" y="627" on="1"/>
        <pt x="1335" y="518" on="1"/>
        <pt x="1335" y="252" on="0"/>
        <pt x="1177" y="-20" on="0"/>
        <pt x="1030" y="-20" on="1"/>
        <pt x="991" y="-20" on="0"/>
        <pt x="906" y="12" on="0"/>
        <pt x="834" y="82" on="0"/>
        <pt x="788" y="191" on="0"/>
        <pt x="788" y="268" on="1"/>
        <pt x="788" y="344" on="0"/>
        <pt x="824" y="493" on="0"/>
        <pt x="913" y="619" on="0"/>
        <pt x="1063" y="712" on="0"/>
        <pt x="1176" y="733" on="1"/>
        <pt x="1176" y="1004" on="1"/>
        <pt x="1167" y="1004" on="1"/>
        <pt x="1151" y="968" on="0"/>
        <pt x="1103" y="917" on="0"/>
        <pt x="1049" y="885" on="0"/>
        <pt x="993" y="870" on="0"/>
        <pt x="969" y="870" on="1"/>
        <pt x="938" y="870" on="0"/>
        <pt x="866" y="887" on="0"/>
        <pt x="797" y="930" on="0"/>
        <pt x="739" y="1001" on="0"/>
        <pt x="723" y="1055" on="1"/>
        <pt x="715" y="1055" on="1"/>
        <pt x="692" y="1002" on="0"/>
        <pt x="628" y="932" on="0"/>
        <pt x="555" y="888" on="0"/>
        <pt x="474" y="870" on="0"/>
        <pt x="434" y="870" on="1"/>
        <pt x="362" y="870" on="0"/>
        <pt x="244" y="914" on="0"/>
        <pt x="159" y="1018" on="0"/>
        <pt x="113" y="1189" on="0"/>
        <pt x="113" y="1317" on="1"/>
        <pt x="113" y="1462" on="1"/>
        <pt x="272" y="1462" on="1"/>
        <pt x="272" y="1317" on="1"/>
        <pt x="272" y="1159" on="0"/>
        <pt x="376" y="1006" on="0"/>
        <pt x="465" y="1006" on="1"/>
        <pt x="499" y="1006" on="0"/>
        <pt x="564" y="1035" on="0"/>
        <pt x="613" y="1099" on="0"/>
        <pt x="643" y="1202" on="0"/>
        <pt x="643" y="1276" on="1"/>
        <pt x="643" y="1462" on="1"/>
        <pt x="803" y="1462" on="1"/>
        <pt x="803" y="1272" on="1"/>
        <pt x="803" y="1200" on="0"/>
        <pt x="833" y="1098" on="0"/>
        <pt x="884" y="1035" on="0"/>
        <pt x="954" y="1006" on="0"/>
        <pt x="995" y="1006" on="1"/>
        <pt x="1034" y="1006" on="0"/>
        <pt x="1101" y="1044" on="0"/>
        <pt x="1149" y="1122" on="0"/>
        <pt x="1176" y="1240" on="0"/>
        <pt x="1176" y="1321" on="1"/>
        <pt x="1176" y="1462" on="1"/>
        <pt x="1335" y="1462" on="1"/>
        <pt x="1335" y="768" on="1"/>
        <pt x="1364" y="773" on="0"/>
        <pt x="1419" y="802" on="0"/>
        <pt x="1461" y="852" on="0"/>
        <pt x="1487" y="922" on="0"/>
        <pt x="1487" y="969" on="1"/>
        <pt x="1647" y="969" on="1"/>
        <pt x="1647" y="914" on="0"/>
        <pt x="1668" y="835" on="0"/>
        <pt x="1702" y="783" on="0"/>
        <pt x="1748" y="758" on="0"/>
        <pt x="1774" y="758" on="1"/>
        <pt x="1799" y="758" on="0"/>
        <pt x="1851" y="782" on="0"/>
        <pt x="1894" y="833" on="0"/>
        <pt x="1921" y="913" on="0"/>
        <pt x="1921" y="969" on="1"/>
        <pt x="2081" y="969" on="1"/>
        <pt x="2081" y="911" on="0"/>
        <pt x="2104" y="831" on="0"/>
        <pt x="2140" y="781" on="0"/>
        <pt x="2185" y="758" on="0"/>
        <pt x="2208" y="758" on="1"/>
        <pt x="2236" y="758" on="0"/>
        <pt x="2277" y="787" on="0"/>
        <pt x="2302" y="825" on="1"/>
        <pt x="2404" y="762" on="1"/>
        <pt x="2392" y="741" on="0"/>
        <pt x="2353" y="692" on="0"/>
        <pt x="2299" y="650" on="0"/>
        <pt x="2232" y="623" on="0"/>
        <pt x="2193" y="623" on="1"/>
        <pt x="2165" y="623" on="0"/>
        <pt x="2105" y="640" on="0"/>
        <pt x="2052" y="679" on="0"/>
        <pt x="2010" y="741" on="0"/>
        <pt x="1999" y="786" on="1"/>
        <pt x="1991" y="786" on="1"/>
        <pt x="1982" y="740" on="0"/>
        <pt x="1934" y="678" on="0"/>
        <pt x="1871" y="640" on="0"/>
        <pt x="1803" y="623" on="0"/>
        <pt x="1774" y="623" on="1"/>
        <pt x="1745" y="623" on="0"/>
        <pt x="1680" y="641" on="0"/>
        <pt x="1622" y="680" on="0"/>
        <pt x="1577" y="742" on="0"/>
        <pt x="1567" y="786" on="1"/>
      </contour>
      <contour>
        <pt x="1030" y="119" on="1"/>
        <pt x="1064" y="119" on="0"/>
        <pt x="1119" y="159" on="0"/>
        <pt x="1156" y="252" on="0"/>
        <pt x="1176" y="405" on="0"/>
        <pt x="1176" y="518" on="1"/>
        <pt x="1176" y="592" on="1"/>
        <pt x="1087" y="572" on="0"/>
        <pt x="988" y="499" on="0"/>
        <pt x="939" y="411" on="0"/>
        <pt x="928" y="315" on="0"/>
        <pt x="928" y="272" on="1"/>
        <pt x="928" y="233" on="0"/>
        <pt x="944" y="175" on="0"/>
        <pt x="972" y="138" on="0"/>
        <pt x="1009" y="119" on="0"/>
      </contour>
      <contour>
        <pt x="1876" y="410" on="1"/>
        <pt x="1876" y="360" on="0"/>
        <pt x="1820" y="307" on="0"/>
        <pt x="1774" y="307" on="1"/>
        <pt x="1724" y="307" on="0"/>
        <pt x="1671" y="360" on="0"/>
        <pt x="1671" y="410" on="1"/>
        <pt x="1671" y="458" on="0"/>
        <pt x="1729" y="512" on="0"/>
        <pt x="1774" y="512" on="1"/>
        <pt x="1819" y="512" on="0"/>
        <pt x="1876" y="458" on="0"/>
      </contour>
      <contour>
        <pt x="1876" y="1147" on="1"/>
        <pt x="1876" y="1097" on="0"/>
        <pt x="1820" y="1044" on="0"/>
        <pt x="1774" y="1044" on="1"/>
        <pt x="1724" y="1044" on="0"/>
        <pt x="1671" y="1097" on="0"/>
        <pt x="1671" y="1147" on="1"/>
        <pt x="1671" y="1195" on="0"/>
        <pt x="1729" y="1249" on="0"/>
        <pt x="1774" y="1249" on="1"/>
        <pt x="1819" y="1249" on="0"/>
        <pt x="1876" y="1195" on="0"/>
      </contour>
    </TTGlyph>
    <TTGlyph name="uniA512" xMin="113" yMin="0" xMax="1653" yMax="1462">
      <contour>
        <pt x="1176" y="1004" on="1"/>
        <pt x="1167" y="1004" on="1"/>
        <pt x="1151" y="968" on="0"/>
        <pt x="1103" y="917" on="0"/>
        <pt x="1049" y="885" on="0"/>
        <pt x="993" y="870" on="0"/>
        <pt x="969" y="870" on="1"/>
        <pt x="938" y="870" on="0"/>
        <pt x="866" y="887" on="0"/>
        <pt x="797" y="930" on="0"/>
        <pt x="739" y="1001" on="0"/>
        <pt x="723" y="1055" on="1"/>
        <pt x="715" y="1055" on="1"/>
        <pt x="692" y="1002" on="0"/>
        <pt x="628" y="932" on="0"/>
        <pt x="555" y="888" on="0"/>
        <pt x="474" y="870" on="0"/>
        <pt x="434" y="870" on="1"/>
        <pt x="362" y="870" on="0"/>
        <pt x="244" y="914" on="0"/>
        <pt x="159" y="1018" on="0"/>
        <pt x="113" y="1189" on="0"/>
        <pt x="113" y="1317" on="1"/>
        <pt x="113" y="1462" on="1"/>
        <pt x="272" y="1462" on="1"/>
        <pt x="272" y="1317" on="1"/>
        <pt x="272" y="1159" on="0"/>
        <pt x="376" y="1006" on="0"/>
        <pt x="465" y="1006" on="1"/>
        <pt x="499" y="1006" on="0"/>
        <pt x="564" y="1035" on="0"/>
        <pt x="613" y="1099" on="0"/>
        <pt x="643" y="1202" on="0"/>
        <pt x="643" y="1276" on="1"/>
        <pt x="643" y="1462" on="1"/>
        <pt x="803" y="1462" on="1"/>
        <pt x="803" y="1272" on="1"/>
        <pt x="803" y="1200" on="0"/>
        <pt x="833" y="1098" on="0"/>
        <pt x="884" y="1035" on="0"/>
        <pt x="954" y="1006" on="0"/>
        <pt x="995" y="1006" on="1"/>
        <pt x="1034" y="1006" on="0"/>
        <pt x="1101" y="1044" on="0"/>
        <pt x="1149" y="1122" on="0"/>
        <pt x="1176" y="1240" on="0"/>
        <pt x="1176" y="1321" on="1"/>
        <pt x="1176" y="1462" on="1"/>
        <pt x="1335" y="1462" on="1"/>
        <pt x="1335" y="743" on="1"/>
        <pt x="1493" y="743" on="1"/>
        <pt x="1493" y="928" on="1"/>
        <pt x="1653" y="928" on="1"/>
        <pt x="1653" y="432" on="1"/>
        <pt x="1493" y="432" on="1"/>
        <pt x="1493" y="604" on="1"/>
        <pt x="1335" y="604" on="1"/>
        <pt x="1335" y="0" on="1"/>
        <pt x="1176" y="0" on="1"/>
      </contour>
    </TTGlyph>
    <TTGlyph name="uniA513" xMin="113" yMin="-332" xMax="1653" yMax="1462">
      <contour>
        <pt x="717" y="-233" on="1"/>
        <pt x="669" y="-233" on="0"/>
        <pt x="594" y="-272" on="0"/>
        <pt x="563" y="-332" on="1"/>
        <pt x="469" y="-276" on="1"/>
        <pt x="507" y="-179" on="0"/>
        <pt x="628" y="-90" on="0"/>
        <pt x="725" y="-90" on="1"/>
        <pt x="770" y="-90" on="0"/>
        <pt x="868" y="-114" on="0"/>
        <pt x="961" y="-142" on="0"/>
        <pt x="1045" y="-166" on="0"/>
        <pt x="1077" y="-166" on="1"/>
        <pt x="1125" y="-166" on="0"/>
        <pt x="1200" y="-127" on="0"/>
        <pt x="1231" y="-68" on="1"/>
        <pt x="1325" y="-123" on="1"/>
        <pt x="1287" y="-220" on="0"/>
        <pt x="1166" y="-309" on="0"/>
        <pt x="1069" y="-309" on="1"/>
        <pt x="1026" y="-309" on="0"/>
        <pt x="930" y="-285" on="0"/>
        <pt x="837" y="-257" on="0"/>
        <pt x="751" y="-233" on="0"/>
      </contour>
      <contour>
        <pt x="1176" y="1004" on="1"/>
        <pt x="1167" y="1004" on="1"/>
        <pt x="1151" y="968" on="0"/>
        <pt x="1103" y="917" on="0"/>
        <pt x="1049" y="885" on="0"/>
        <pt x="993" y="870" on="0"/>
        <pt x="969" y="870" on="1"/>
        <pt x="938" y="870" on="0"/>
        <pt x="866" y="887" on="0"/>
        <pt x="797" y="930" on="0"/>
        <pt x="739" y="1001" on="0"/>
        <pt x="723" y="1055" on="1"/>
        <pt x="715" y="1055" on="1"/>
        <pt x="692" y="1002" on="0"/>
        <pt x="628" y="932" on="0"/>
        <pt x="555" y="888" on="0"/>
        <pt x="474" y="870" on="0"/>
        <pt x="434" y="870" on="1"/>
        <pt x="362" y="870" on="0"/>
        <pt x="244" y="914" on="0"/>
        <pt x="159" y="1018" on="0"/>
        <pt x="113" y="1189" on="0"/>
        <pt x="113" y="1317" on="1"/>
        <pt x="113" y="1462" on="1"/>
        <pt x="272" y="1462" on="1"/>
        <pt x="272" y="1317" on="1"/>
        <pt x="272" y="1159" on="0"/>
        <pt x="376" y="1006" on="0"/>
        <pt x="465" y="1006" on="1"/>
        <pt x="499" y="1006" on="0"/>
        <pt x="564" y="1035" on="0"/>
        <pt x="613" y="1099" on="0"/>
        <pt x="643" y="1202" on="0"/>
        <pt x="643" y="1276" on="1"/>
        <pt x="643" y="1462" on="1"/>
        <pt x="803" y="1462" on="1"/>
        <pt x="803" y="1272" on="1"/>
        <pt x="803" y="1200" on="0"/>
        <pt x="833" y="1098" on="0"/>
        <pt x="884" y="1035" on="0"/>
        <pt x="954" y="1006" on="0"/>
        <pt x="995" y="1006" on="1"/>
        <pt x="1034" y="1006" on="0"/>
        <pt x="1101" y="1044" on="0"/>
        <pt x="1149" y="1122" on="0"/>
        <pt x="1176" y="1240" on="0"/>
        <pt x="1176" y="1321" on="1"/>
        <pt x="1176" y="1462" on="1"/>
        <pt x="1335" y="1462" on="1"/>
        <pt x="1335" y="743" on="1"/>
        <pt x="1493" y="743" on="1"/>
        <pt x="1493" y="928" on="1"/>
        <pt x="1653" y="928" on="1"/>
        <pt x="1653" y="432" on="1"/>
        <pt x="1493" y="432" on="1"/>
        <pt x="1493" y="604" on="1"/>
        <pt x="1335" y="604" on="1"/>
        <pt x="1335" y="0" on="1"/>
        <pt x="1176" y="0" on="1"/>
      </contour>
    </TTGlyph>
    <TTGlyph name="uniA514" xMin="68" yMin="0" xMax="1225" yMax="1462">
      <contour>
        <pt x="682" y="1079" on="1"/>
        <pt x="1065" y="1462" on="1"/>
        <pt x="1225" y="1462" on="1"/>
        <pt x="1225" y="0" on="1"/>
        <pt x="1065" y="0" on="1"/>
        <pt x="1065" y="803" on="1"/>
        <pt x="1065" y="902" on="0"/>
        <pt x="1066" y="1045" on="0"/>
        <pt x="1069" y="1146" on="0"/>
        <pt x="1072" y="1213" on="0"/>
        <pt x="1077" y="1260" on="0"/>
        <pt x="1082" y="1291" on="0"/>
        <pt x="1085" y="1307" on="1"/>
        <pt x="1075" y="1311" on="1"/>
        <pt x="1062" y="1285" on="0"/>
        <pt x="1029" y="1236" on="0"/>
        <pt x="979" y="1177" on="0"/>
        <pt x="907" y="1102" on="0"/>
        <pt x="856" y="1051" on="1"/>
        <pt x="784" y="979" on="1"/>
      </contour>
      <contour>
        <pt x="68" y="1079" on="1"/>
        <pt x="451" y="1462" on="1"/>
        <pt x="610" y="1462" on="1"/>
        <pt x="610" y="0" on="1"/>
        <pt x="451" y="0" on="1"/>
        <pt x="451" y="803" on="1"/>
        <pt x="451" y="902" on="0"/>
        <pt x="452" y="1045" on="0"/>
        <pt x="455" y="1146" on="0"/>
        <pt x="458" y="1213" on="0"/>
        <pt x="463" y="1260" on="0"/>
        <pt x="468" y="1291" on="0"/>
        <pt x="471" y="1307" on="1"/>
        <pt x="461" y="1311" on="1"/>
        <pt x="448" y="1285" on="0"/>
        <pt x="415" y="1236" on="0"/>
        <pt x="365" y="1177" on="0"/>
        <pt x="293" y="1102" on="0"/>
        <pt x="242" y="1051" on="1"/>
        <pt x="170" y="979" on="1"/>
      </contour>
    </TTGlyph>
    <TTGlyph name="uniA515" xMin="68" yMin="-20" xMax="1243" yMax="1462">
      <contour>
        <pt x="811" y="395" on="1"/>
        <pt x="811" y="297" on="0"/>
        <pt x="765" y="143" on="0"/>
        <pt x="674" y="37" on="0"/>
        <pt x="539" y="-20" on="0"/>
        <pt x="449" y="-20" on="1"/>
        <pt x="267" y="-20" on="0"/>
        <pt x="68" y="172" on="0"/>
        <pt x="68" y="375" on="1"/>
        <pt x="68" y="493" on="0"/>
        <pt x="149" y="661" on="0"/>
        <pt x="301" y="769" on="0"/>
        <pt x="517" y="819" on="0"/>
        <pt x="651" y="819" on="1"/>
        <pt x="651" y="1321" on="1"/>
        <pt x="115" y="1321" on="1"/>
        <pt x="115" y="1462" on="1"/>
        <pt x="811" y="1462" on="1"/>
        <pt x="811" y="819" on="1"/>
        <pt x="1243" y="819" on="1"/>
        <pt x="1243" y="0" on="1"/>
        <pt x="1083" y="0" on="1"/>
        <pt x="1083" y="678" on="1"/>
        <pt x="811" y="678" on="1"/>
      </contour>
      <contour>
        <pt x="449" y="119" on="1"/>
        <pt x="551" y="119" on="0"/>
        <pt x="651" y="253" on="0"/>
        <pt x="651" y="393" on="1"/>
        <pt x="651" y="678" on="1"/>
        <pt x="537" y="678" on="0"/>
        <pt x="376" y="653" on="0"/>
        <pt x="274" y="586" on="0"/>
        <pt x="227" y="468" on="0"/>
        <pt x="227" y="375" on="1"/>
        <pt x="227" y="320" on="0"/>
        <pt x="258" y="227" on="0"/>
        <pt x="316" y="158" on="0"/>
        <pt x="398" y="119" on="0"/>
      </contour>
    </TTGlyph>
    <TTGlyph name="uniA516" xMin="227" yMin="0" xMax="1206" yMax="1462">
      <contour>
        <pt x="1206" y="0" on="1"/>
        <pt x="1047" y="0" on="1"/>
        <pt x="1047" y="1462" on="1"/>
        <pt x="1206" y="1462" on="1"/>
      </contour>
      <contour>
        <pt x="387" y="0" on="1"/>
        <pt x="227" y="0" on="1"/>
        <pt x="227" y="1462" on="1"/>
        <pt x="387" y="1462" on="1"/>
      </contour>
      <contour>
        <pt x="797" y="0" on="1"/>
        <pt x="637" y="0" on="1"/>
        <pt x="637" y="1462" on="1"/>
        <pt x="797" y="1462" on="1"/>
      </contour>
    </TTGlyph>
    <TTGlyph name="uniA517" xMin="227" yMin="0" xMax="1208" yMax="1462">
      <contour>
        <pt x="1208" y="266" on="1"/>
        <pt x="1049" y="266" on="1"/>
        <pt x="1049" y="1462" on="1"/>
        <pt x="1208" y="1462" on="1"/>
      </contour>
      <contour>
        <pt x="389" y="266" on="1"/>
        <pt x="229" y="266" on="1"/>
        <pt x="229" y="1462" on="1"/>
        <pt x="389" y="1462" on="1"/>
      </contour>
      <contour>
        <pt x="797" y="266" on="1"/>
        <pt x="637" y="266" on="1"/>
        <pt x="637" y="1462" on="1"/>
        <pt x="797" y="1462" on="1"/>
      </contour>
      <contour>
        <pt x="1208" y="141" on="1"/>
        <pt x="1208" y="0" on="1"/>
        <pt x="227" y="0" on="1"/>
        <pt x="227" y="141" on="1"/>
      </contour>
    </TTGlyph>
    <TTGlyph name="uniA518" xMin="227" yMin="0" xMax="1206" yMax="1462">
      <contour>
        <pt x="1206" y="942" on="1"/>
        <pt x="1047" y="942" on="1"/>
        <pt x="1047" y="1462" on="1"/>
        <pt x="1206" y="1462" on="1"/>
      </contour>
      <contour>
        <pt x="387" y="942" on="1"/>
        <pt x="227" y="942" on="1"/>
        <pt x="227" y="1462" on="1"/>
        <pt x="387" y="1462" on="1"/>
      </contour>
      <contour>
        <pt x="1206" y="0" on="1"/>
        <pt x="1047" y="0" on="1"/>
        <pt x="1047" y="520" on="1"/>
        <pt x="1206" y="520" on="1"/>
      </contour>
      <contour>
        <pt x="387" y="0" on="1"/>
        <pt x="227" y="0" on="1"/>
        <pt x="227" y="520" on="1"/>
        <pt x="387" y="520" on="1"/>
      </contour>
      <contour>
        <pt x="797" y="471" on="1"/>
        <pt x="637" y="471" on="1"/>
        <pt x="637" y="991" on="1"/>
        <pt x="797" y="991" on="1"/>
      </contour>
    </TTGlyph>
    <TTGlyph name="uniA519" xMin="227" yMin="0" xMax="1206" yMax="1462">
      <contour>
        <pt x="387" y="1321" on="1"/>
        <pt x="1047" y="1321" on="1"/>
        <pt x="1047" y="1462" on="1"/>
        <pt x="1206" y="1462" on="1"/>
        <pt x="1206" y="942" on="1"/>
        <pt x="1047" y="942" on="1"/>
        <pt x="1047" y="1180" on="1"/>
        <pt x="387" y="1180" on="1"/>
        <pt x="387" y="942" on="1"/>
        <pt x="227" y="942" on="1"/>
        <pt x="227" y="1462" on="1"/>
        <pt x="387" y="1462" on="1"/>
      </contour>
      <contour>
        <pt x="387" y="285" on="1"/>
        <pt x="1047" y="285" on="1"/>
        <pt x="1047" y="520" on="1"/>
        <pt x="1206" y="520" on="1"/>
        <pt x="1206" y="0" on="1"/>
        <pt x="1047" y="0" on="1"/>
        <pt x="1047" y="143" on="1"/>
        <pt x="387" y="143" on="1"/>
        <pt x="387" y="0" on="1"/>
        <pt x="227" y="0" on="1"/>
        <pt x="227" y="520" on="1"/>
        <pt x="387" y="520" on="1"/>
      </contour>
      <contour>
        <pt x="797" y="471" on="1"/>
        <pt x="637" y="471" on="1"/>
        <pt x="637" y="991" on="1"/>
        <pt x="797" y="991" on="1"/>
      </contour>
    </TTGlyph>
    <TTGlyph name="uniA51A" xMin="47" yMin="276" xMax="2136" yMax="1309">
      <contour>
        <pt x="1640" y="416" on="1"/>
        <pt x="1702" y="416" on="0"/>
        <pt x="1810" y="443" on="0"/>
        <pt x="1904" y="514" on="0"/>
        <pt x="1985" y="634" on="0"/>
        <pt x="2021" y="727" on="1"/>
        <pt x="2136" y="668" on="1"/>
        <pt x="2091" y="552" on="0"/>
        <pt x="1992" y="401" on="0"/>
        <pt x="1873" y="312" on="0"/>
        <pt x="1729" y="276" on="0"/>
        <pt x="1640" y="276" on="1"/>
        <pt x="1579" y="276" on="0"/>
        <pt x="1464" y="315" on="0"/>
        <pt x="1411" y="352" on="1"/>
        <pt x="1342" y="315" on="0"/>
        <pt x="1181" y="276" on="0"/>
        <pt x="1092" y="276" on="1"/>
        <pt x="1001" y="276" on="0"/>
        <pt x="839" y="312" on="0"/>
        <pt x="768" y="346" on="1"/>
        <pt x="722" y="314" on="0"/>
        <pt x="619" y="276" on="0"/>
        <pt x="563" y="276" on="1"/>
        <pt x="474" y="276" on="0"/>
        <pt x="322" y="311" on="0"/>
        <pt x="195" y="398" on="0"/>
        <pt x="89" y="548" on="0"/>
        <pt x="47" y="664" on="1"/>
        <pt x="172" y="727" on="1"/>
        <pt x="206" y="634" on="0"/>
        <pt x="290" y="514" on="0"/>
        <pt x="388" y="443" on="0"/>
        <pt x="501" y="416" on="0"/>
        <pt x="563" y="416" on="1"/>
        <pt x="585" y="416" on="0"/>
        <pt x="637" y="422" on="0"/>
        <pt x="655" y="428" on="1"/>
        <pt x="607" y="470" on="0"/>
        <pt x="527" y="573" on="0"/>
        <pt x="471" y="694" on="0"/>
        <pt x="440" y="829" on="0"/>
        <pt x="440" y="903" on="1"/>
        <pt x="440" y="985" on="0"/>
        <pt x="481" y="1133" on="0"/>
        <pt x="557" y="1244" on="0"/>
        <pt x="667" y="1309" on="0"/>
        <pt x="735" y="1309" on="1"/>
        <pt x="800" y="1309" on="0"/>
        <pt x="910" y="1258" on="0"/>
        <pt x="989" y="1157" on="0"/>
        <pt x="1034" y="1005" on="0"/>
        <pt x="1034" y="903" on="1"/>
        <pt x="1034" y="840" on="0"/>
        <pt x="1009" y="719" on="0"/>
        <pt x="966" y="605" on="0"/>
        <pt x="906" y="501" on="0"/>
        <pt x="870" y="455" on="1"/>
        <pt x="917" y="436" on="0"/>
        <pt x="1032" y="416" on="0"/>
        <pt x="1092" y="416" on="1"/>
        <pt x="1152" y="416" on="0"/>
        <pt x="1268" y="434" on="0"/>
        <pt x="1315" y="453" on="1"/>
        <pt x="1280" y="496" on="0"/>
        <pt x="1219" y="597" on="0"/>
        <pt x="1174" y="710" on="0"/>
        <pt x="1149" y="835" on="0"/>
        <pt x="1149" y="903" on="1"/>
        <pt x="1149" y="985" on="0"/>
        <pt x="1191" y="1133" on="0"/>
        <pt x="1269" y="1244" on="0"/>
        <pt x="1380" y="1309" on="0"/>
        <pt x="1448" y="1309" on="1"/>
        <pt x="1588" y="1309" on="0"/>
        <pt x="1743" y="1107" on="0"/>
        <pt x="1743" y="903" on="1"/>
        <pt x="1743" y="841" on="0"/>
        <pt x="1712" y="713" on="0"/>
        <pt x="1655" y="591" on="0"/>
        <pt x="1576" y="481" on="0"/>
        <pt x="1528" y="438" on="1"/>
        <pt x="1551" y="427" on="0"/>
        <pt x="1613" y="416" on="0"/>
      </contour>
    </TTGlyph>
    <TTGlyph name="uniA51B" xMin="47" yMin="276" xMax="2136" yMax="1309">
      <contour>
        <pt x="600" y="903" on="1"/>
        <pt x="600" y="781" on="0"/>
        <pt x="686" y="568" on="0"/>
        <pt x="770" y="500" on="1"/>
        <pt x="798" y="535" on="0"/>
        <pt x="837" y="628" on="0"/>
        <pt x="862" y="734" on="0"/>
        <pt x="874" y="847" on="0"/>
        <pt x="874" y="903" on="1"/>
        <pt x="874" y="958" on="0"/>
        <pt x="858" y="1055" on="0"/>
        <pt x="825" y="1127" on="0"/>
        <pt x="772" y="1169" on="0"/>
        <pt x="735" y="1169" on="1"/>
        <pt x="697" y="1169" on="0"/>
        <pt x="646" y="1131" on="0"/>
        <pt x="614" y="1061" on="0"/>
        <pt x="600" y="963" on="0"/>
      </contour>
      <contour>
        <pt x="1309" y="903" on="1"/>
        <pt x="1309" y="849" on="0"/>
        <pt x="1325" y="739" on="0"/>
        <pt x="1355" y="636" on="0"/>
        <pt x="1399" y="544" on="0"/>
        <pt x="1427" y="508" on="1"/>
        <pt x="1503" y="574" on="0"/>
        <pt x="1583" y="779" on="0"/>
        <pt x="1583" y="903" on="1"/>
        <pt x="1583" y="963" on="0"/>
        <pt x="1567" y="1061" on="0"/>
        <pt x="1534" y="1131" on="0"/>
        <pt x="1483" y="1169" on="0"/>
        <pt x="1448" y="1169" on="1"/>
        <pt x="1410" y="1169" on="0"/>
        <pt x="1357" y="1127" on="0"/>
        <pt x="1324" y="1055" on="0"/>
        <pt x="1309" y="958" on="0"/>
      </contour>
      <contour>
        <pt x="1640" y="276" on="1"/>
        <pt x="1579" y="276" on="0"/>
        <pt x="1464" y="315" on="0"/>
        <pt x="1411" y="352" on="1"/>
        <pt x="1342" y="315" on="0"/>
        <pt x="1181" y="276" on="0"/>
        <pt x="1092" y="276" on="1"/>
        <pt x="1001" y="276" on="0"/>
        <pt x="839" y="312" on="0"/>
        <pt x="768" y="346" on="1"/>
        <pt x="722" y="314" on="0"/>
        <pt x="619" y="276" on="0"/>
        <pt x="563" y="276" on="1"/>
        <pt x="474" y="276" on="0"/>
        <pt x="322" y="311" on="0"/>
        <pt x="195" y="398" on="0"/>
        <pt x="89" y="548" on="0"/>
        <pt x="47" y="664" on="1"/>
        <pt x="172" y="727" on="1"/>
        <pt x="206" y="634" on="0"/>
        <pt x="290" y="514" on="0"/>
        <pt x="388" y="443" on="0"/>
        <pt x="501" y="416" on="0"/>
        <pt x="563" y="416" on="1"/>
        <pt x="585" y="416" on="0"/>
        <pt x="637" y="422" on="0"/>
        <pt x="655" y="428" on="1"/>
        <pt x="607" y="470" on="0"/>
        <pt x="527" y="573" on="0"/>
        <pt x="471" y="694" on="0"/>
        <pt x="440" y="829" on="0"/>
        <pt x="440" y="903" on="1"/>
        <pt x="440" y="985" on="0"/>
        <pt x="481" y="1133" on="0"/>
        <pt x="557" y="1244" on="0"/>
        <pt x="667" y="1309" on="0"/>
        <pt x="735" y="1309" on="1"/>
        <pt x="800" y="1309" on="0"/>
        <pt x="910" y="1258" on="0"/>
        <pt x="989" y="1157" on="0"/>
        <pt x="1034" y="1005" on="0"/>
        <pt x="1034" y="903" on="1"/>
        <pt x="1034" y="840" on="0"/>
        <pt x="1009" y="719" on="0"/>
        <pt x="966" y="605" on="0"/>
        <pt x="906" y="501" on="0"/>
        <pt x="870" y="455" on="1"/>
        <pt x="917" y="436" on="0"/>
        <pt x="1032" y="416" on="0"/>
        <pt x="1092" y="416" on="1"/>
        <pt x="1152" y="416" on="0"/>
        <pt x="1268" y="434" on="0"/>
        <pt x="1315" y="453" on="1"/>
        <pt x="1280" y="496" on="0"/>
        <pt x="1219" y="597" on="0"/>
        <pt x="1174" y="710" on="0"/>
        <pt x="1149" y="835" on="0"/>
        <pt x="1149" y="903" on="1"/>
        <pt x="1149" y="985" on="0"/>
        <pt x="1191" y="1133" on="0"/>
        <pt x="1269" y="1244" on="0"/>
        <pt x="1380" y="1309" on="0"/>
        <pt x="1448" y="1309" on="1"/>
        <pt x="1588" y="1309" on="0"/>
        <pt x="1743" y="1107" on="0"/>
        <pt x="1743" y="903" on="1"/>
        <pt x="1743" y="841" on="0"/>
        <pt x="1712" y="713" on="0"/>
        <pt x="1655" y="591" on="0"/>
        <pt x="1576" y="481" on="0"/>
        <pt x="1528" y="438" on="1"/>
        <pt x="1551" y="427" on="0"/>
        <pt x="1613" y="416" on="0"/>
        <pt x="1640" y="416" on="1"/>
        <pt x="1702" y="416" on="0"/>
        <pt x="1810" y="443" on="0"/>
        <pt x="1904" y="514" on="0"/>
        <pt x="1985" y="634" on="0"/>
        <pt x="2021" y="727" on="1"/>
        <pt x="2136" y="668" on="1"/>
        <pt x="2091" y="552" on="0"/>
        <pt x="1992" y="401" on="0"/>
        <pt x="1873" y="312" on="0"/>
        <pt x="1729" y="276" on="0"/>
      </contour>
    </TTGlyph>
    <TTGlyph name="uniA51C" xMin="158" yMin="229" xMax="1550" yMax="1280">
      <contour>
        <pt x="1174" y="332" on="1"/>
        <pt x="1174" y="282" on="0"/>
        <pt x="1118" y="229" on="0"/>
        <pt x="1071" y="229" on="1"/>
        <pt x="1022" y="229" on="0"/>
        <pt x="969" y="282" on="0"/>
        <pt x="969" y="332" on="1"/>
        <pt x="969" y="380" on="0"/>
        <pt x="1026" y="434" on="0"/>
        <pt x="1071" y="434" on="1"/>
        <pt x="1116" y="434" on="0"/>
        <pt x="1174" y="380" on="0"/>
      </contour>
      <contour>
        <pt x="1174" y="1178" on="1"/>
        <pt x="1174" y="1128" on="0"/>
        <pt x="1118" y="1075" on="0"/>
        <pt x="1071" y="1075" on="1"/>
        <pt x="1022" y="1075" on="0"/>
        <pt x="969" y="1128" on="0"/>
        <pt x="969" y="1178" on="1"/>
        <pt x="969" y="1226" on="0"/>
        <pt x="1026" y="1280" on="0"/>
        <pt x="1071" y="1280" on="1"/>
        <pt x="1116" y="1280" on="0"/>
        <pt x="1174" y="1226" on="0"/>
      </contour>
      <contour>
        <pt x="1550" y="756" on="1"/>
        <pt x="1550" y="706" on="0"/>
        <pt x="1494" y="653" on="0"/>
        <pt x="1448" y="653" on="1"/>
        <pt x="1398" y="653" on="0"/>
        <pt x="1346" y="706" on="0"/>
        <pt x="1346" y="756" on="1"/>
        <pt x="1346" y="804" on="0"/>
        <pt x="1403" y="858" on="0"/>
        <pt x="1448" y="858" on="1"/>
        <pt x="1493" y="858" on="0"/>
        <pt x="1550" y="804" on="0"/>
      </contour>
      <contour>
        <pt x="317" y="250" on="1"/>
        <pt x="158" y="250" on="1"/>
        <pt x="158" y="1255" on="1"/>
        <pt x="317" y="1255" on="1"/>
        <pt x="317" y="963" on="1"/>
        <pt x="1255" y="963" on="1"/>
        <pt x="1255" y="823" on="1"/>
        <pt x="317" y="823" on="1"/>
        <pt x="317" y="686" on="1"/>
        <pt x="1255" y="686" on="1"/>
        <pt x="1255" y="547" on="1"/>
        <pt x="317" y="547" on="1"/>
      </contour>
    </TTGlyph>
    <TTGlyph name="uniA51D" xMin="158" yMin="250" xMax="1550" yMax="1255">
      <contour>
        <pt x="317" y="1255" on="1"/>
        <pt x="317" y="825" on="1"/>
        <pt x="1255" y="825" on="1"/>
        <pt x="1255" y="686" on="1"/>
        <pt x="317" y="686" on="1"/>
        <pt x="317" y="250" on="1"/>
        <pt x="158" y="250" on="1"/>
        <pt x="158" y="1255" on="1"/>
      </contour>
      <contour>
        <pt x="1174" y="471" on="1"/>
        <pt x="1174" y="422" on="0"/>
        <pt x="1118" y="369" on="0"/>
        <pt x="1071" y="369" on="1"/>
        <pt x="1022" y="369" on="0"/>
        <pt x="969" y="422" on="0"/>
        <pt x="969" y="471" on="1"/>
        <pt x="969" y="519" on="0"/>
        <pt x="1026" y="573" on="0"/>
        <pt x="1071" y="573" on="1"/>
        <pt x="1116" y="573" on="0"/>
        <pt x="1174" y="519" on="0"/>
      </contour>
      <contour>
        <pt x="1174" y="1044" on="1"/>
        <pt x="1174" y="995" on="0"/>
        <pt x="1118" y="942" on="0"/>
        <pt x="1071" y="942" on="1"/>
        <pt x="1022" y="942" on="0"/>
        <pt x="969" y="995" on="0"/>
        <pt x="969" y="1044" on="1"/>
        <pt x="969" y="1092" on="0"/>
        <pt x="1026" y="1147" on="0"/>
        <pt x="1071" y="1147" on="1"/>
        <pt x="1116" y="1147" on="0"/>
        <pt x="1174" y="1092" on="0"/>
      </contour>
      <contour>
        <pt x="1550" y="756" on="1"/>
        <pt x="1550" y="706" on="0"/>
        <pt x="1494" y="653" on="0"/>
        <pt x="1448" y="653" on="1"/>
        <pt x="1398" y="653" on="0"/>
        <pt x="1346" y="706" on="0"/>
        <pt x="1346" y="756" on="1"/>
        <pt x="1346" y="804" on="0"/>
        <pt x="1403" y="858" on="0"/>
        <pt x="1448" y="858" on="1"/>
        <pt x="1493" y="858" on="0"/>
        <pt x="1550" y="804" on="0"/>
      </contour>
    </TTGlyph>
    <TTGlyph name="uniA51E" xMin="227" yMin="0" xMax="2619" yMax="1462">
      <contour>
        <pt x="1419" y="289" on="1"/>
        <pt x="1236" y="289" on="0"/>
        <pt x="1106" y="348" on="1"/>
        <pt x="1053" y="319" on="0"/>
        <pt x="933" y="289" on="0"/>
        <pt x="870" y="289" on="1"/>
        <pt x="694" y="289" on="1"/>
        <pt x="694" y="0" on="1"/>
        <pt x="535" y="0" on="1"/>
        <pt x="535" y="289" on="1"/>
        <pt x="387" y="289" on="1"/>
        <pt x="387" y="0" on="1"/>
        <pt x="227" y="0" on="1"/>
        <pt x="227" y="1462" on="1"/>
        <pt x="387" y="1462" on="1"/>
        <pt x="387" y="428" on="1"/>
        <pt x="535" y="428" on="1"/>
        <pt x="535" y="1462" on="1"/>
        <pt x="694" y="1462" on="1"/>
        <pt x="694" y="428" on="1"/>
        <pt x="870" y="428" on="1"/>
        <pt x="893" y="428" on="0"/>
        <pt x="949" y="434" on="0"/>
        <pt x="971" y="440" on="1"/>
        <pt x="881" y="522" on="0"/>
        <pt x="784" y="746" on="0"/>
        <pt x="784" y="874" on="1"/>
        <pt x="784" y="976" on="0"/>
        <pt x="828" y="1125" on="0"/>
        <pt x="907" y="1222" on="0"/>
        <pt x="1017" y="1270" on="0"/>
        <pt x="1083" y="1270" on="1"/>
        <pt x="1158" y="1270" on="0"/>
        <pt x="1271" y="1208" on="0"/>
        <pt x="1345" y="1101" on="0"/>
        <pt x="1382" y="956" on="0"/>
        <pt x="1382" y="874" on="1"/>
        <pt x="1382" y="740" on="0"/>
        <pt x="1292" y="524" on="0"/>
        <pt x="1221" y="446" on="1"/>
        <pt x="1261" y="437" on="0"/>
        <pt x="1364" y="428" on="0"/>
        <pt x="1419" y="428" on="1"/>
        <pt x="1476" y="428" on="0"/>
        <pt x="1584" y="437" on="0"/>
        <pt x="1624" y="446" on="1"/>
        <pt x="1555" y="524" on="0"/>
        <pt x="1464" y="740" on="0"/>
        <pt x="1464" y="874" on="1"/>
        <pt x="1464" y="956" on="0"/>
        <pt x="1516" y="1101" on="0"/>
        <pt x="1600" y="1208" on="0"/>
        <pt x="1708" y="1270" on="0"/>
        <pt x="1765" y="1270" on="1"/>
        <pt x="1822" y="1270" on="0"/>
        <pt x="1929" y="1222" on="0"/>
        <pt x="2012" y="1125" on="0"/>
        <pt x="2062" y="976" on="0"/>
        <pt x="2062" y="874" on="1"/>
        <pt x="2062" y="746" on="0"/>
        <pt x="1964" y="524" on="0"/>
        <pt x="1874" y="442" on="1"/>
        <pt x="1896" y="434" on="0"/>
        <pt x="1952" y="428" on="0"/>
        <pt x="1976" y="428" on="1"/>
        <pt x="2152" y="428" on="1"/>
        <pt x="2152" y="1462" on="1"/>
        <pt x="2312" y="1462" on="1"/>
        <pt x="2312" y="428" on="1"/>
        <pt x="2460" y="428" on="1"/>
        <pt x="2460" y="1462" on="1"/>
        <pt x="2619" y="1462" on="1"/>
        <pt x="2619" y="0" on="1"/>
        <pt x="2460" y="0" on="1"/>
        <pt x="2460" y="289" on="1"/>
        <pt x="2312" y="289" on="1"/>
        <pt x="2312" y="0" on="1"/>
        <pt x="2152" y="0" on="1"/>
        <pt x="2152" y="289" on="1"/>
        <pt x="1976" y="289" on="1"/>
        <pt x="1911" y="289" on="0"/>
        <pt x="1791" y="319" on="0"/>
        <pt x="1739" y="348" on="1"/>
        <pt x="1606" y="289" on="0"/>
      </contour>
      <contour>
        <pt x="944" y="874" on="1"/>
        <pt x="944" y="817" on="0"/>
        <pt x="956" y="706" on="0"/>
        <pt x="987" y="606" on="0"/>
        <pt x="1040" y="522" on="0"/>
        <pt x="1081" y="492" on="1"/>
        <pt x="1113" y="522" on="0"/>
        <pt x="1166" y="606" on="0"/>
        <pt x="1203" y="706" on="0"/>
        <pt x="1223" y="817" on="0"/>
        <pt x="1223" y="874" on="1"/>
        <pt x="1223" y="929" on="0"/>
        <pt x="1205" y="1022" on="0"/>
        <pt x="1170" y="1091" on="0"/>
        <pt x="1118" y="1130" on="0"/>
        <pt x="1083" y="1130" on="1"/>
        <pt x="1045" y="1130" on="0"/>
        <pt x="993" y="1091" on="0"/>
        <pt x="959" y="1022" on="0"/>
        <pt x="944" y="929" on="0"/>
      </contour>
      <contour>
        <pt x="1624" y="874" on="1"/>
        <pt x="1624" y="818" on="0"/>
        <pt x="1643" y="708" on="0"/>
        <pt x="1679" y="607" on="0"/>
        <pt x="1731" y="522" on="0"/>
        <pt x="1763" y="492" on="1"/>
        <pt x="1805" y="522" on="0"/>
        <pt x="1859" y="607" on="0"/>
        <pt x="1890" y="707" on="0"/>
        <pt x="1903" y="817" on="0"/>
        <pt x="1903" y="874" on="1"/>
        <pt x="1903" y="929" on="0"/>
        <pt x="1883" y="1022" on="0"/>
        <pt x="1847" y="1091" on="0"/>
        <pt x="1796" y="1130" on="0"/>
        <pt x="1765" y="1130" on="1"/>
        <pt x="1733" y="1130" on="0"/>
        <pt x="1681" y="1091" on="0"/>
        <pt x="1644" y="1022" on="0"/>
        <pt x="1624" y="929" on="0"/>
      </contour>
    </TTGlyph>
    <TTGlyph name="uniA51F" xMin="227" yMin="0" xMax="1903" yMax="1462">
      <contour>
        <pt x="743" y="629" on="1"/>
        <pt x="743" y="760" on="0"/>
        <pt x="840" y="973" on="0"/>
        <pt x="924" y="1051" on="1"/>
        <pt x="883" y="1062" on="0"/>
        <pt x="783" y="1075" on="0"/>
        <pt x="733" y="1075" on="1"/>
        <pt x="667" y="1075" on="0"/>
        <pt x="560" y="1056" on="0"/>
        <pt x="475" y="1027" on="0"/>
        <pt x="410" y="991" on="0"/>
        <pt x="387" y="973" on="1"/>
        <pt x="387" y="0" on="1"/>
        <pt x="227" y="0" on="1"/>
        <pt x="227" y="1462" on="1"/>
        <pt x="387" y="1462" on="1"/>
        <pt x="387" y="1122" on="1"/>
        <pt x="414" y="1139" on="0"/>
        <pt x="483" y="1172" on="0"/>
        <pt x="568" y="1198" on="0"/>
        <pt x="671" y="1214" on="0"/>
        <pt x="733" y="1214" on="1"/>
        <pt x="921" y="1214" on="0"/>
        <pt x="1063" y="1149" on="1"/>
        <pt x="1202" y="1214" on="0"/>
        <pt x="1393" y="1214" on="1"/>
        <pt x="1453" y="1214" on="0"/>
        <pt x="1557" y="1197" on="0"/>
        <pt x="1644" y="1170" on="0"/>
        <pt x="1715" y="1137" on="0"/>
        <pt x="1743" y="1120" on="1"/>
        <pt x="1743" y="1462" on="1"/>
        <pt x="1903" y="1462" on="1"/>
        <pt x="1903" y="0" on="1"/>
        <pt x="1743" y="0" on="1"/>
        <pt x="1743" y="971" on="1"/>
        <pt x="1720" y="989" on="0"/>
        <pt x="1656" y="1026" on="0"/>
        <pt x="1570" y="1056" on="0"/>
        <pt x="1461" y="1075" on="0"/>
        <pt x="1393" y="1075" on="1"/>
        <pt x="1342" y="1075" on="0"/>
        <pt x="1242" y="1062" on="0"/>
        <pt x="1202" y="1051" on="1"/>
        <pt x="1284" y="973" on="0"/>
        <pt x="1382" y="760" on="0"/>
        <pt x="1382" y="629" on="1"/>
        <pt x="1382" y="547" on="0"/>
        <pt x="1338" y="403" on="0"/>
        <pt x="1255" y="295" on="0"/>
        <pt x="1137" y="233" on="0"/>
        <pt x="1063" y="233" on="1"/>
        <pt x="989" y="233" on="0"/>
        <pt x="871" y="281" on="0"/>
        <pt x="788" y="378" on="0"/>
        <pt x="743" y="527" on="0"/>
      </contour>
      <contour>
        <pt x="1223" y="629" on="1"/>
        <pt x="1223" y="682" on="0"/>
        <pt x="1202" y="787" on="0"/>
        <pt x="1162" y="883" on="0"/>
        <pt x="1102" y="966" on="0"/>
        <pt x="1063" y="997" on="1"/>
        <pt x="1023" y="966" on="0"/>
        <pt x="963" y="883" on="0"/>
        <pt x="923" y="787" on="0"/>
        <pt x="903" y="682" on="0"/>
        <pt x="903" y="629" on="1"/>
        <pt x="903" y="574" on="0"/>
        <pt x="922" y="481" on="0"/>
        <pt x="961" y="412" on="0"/>
        <pt x="1021" y="373" on="0"/>
        <pt x="1063" y="373" on="1"/>
        <pt x="1105" y="373" on="0"/>
        <pt x="1165" y="412" on="0"/>
        <pt x="1204" y="481" on="0"/>
        <pt x="1223" y="574" on="0"/>
      </contour>
    </TTGlyph>
    <TTGlyph name="uniA520" xMin="90" yMin="0" xMax="1528" yMax="1462">
      <contour>
        <pt x="582" y="0" on="1"/>
        <pt x="422" y="0" on="1"/>
        <pt x="422" y="694" on="1"/>
        <pt x="90" y="694" on="1"/>
        <pt x="90" y="836" on="1"/>
        <pt x="422" y="836" on="1"/>
        <pt x="422" y="1462" on="1"/>
        <pt x="582" y="1462" on="1"/>
        <pt x="582" y="836" on="1"/>
        <pt x="1036" y="836" on="1"/>
        <pt x="1036" y="1462" on="1"/>
        <pt x="1196" y="1462" on="1"/>
        <pt x="1196" y="836" on="1"/>
        <pt x="1528" y="836" on="1"/>
        <pt x="1528" y="694" on="1"/>
        <pt x="1196" y="694" on="1"/>
        <pt x="1196" y="0" on="1"/>
        <pt x="1036" y="0" on="1"/>
        <pt x="1036" y="694" on="1"/>
        <pt x="582" y="694" on="1"/>
      </contour>
    </TTGlyph>
    <TTGlyph name="uniA521" xMin="66" yMin="0" xMax="1438" yMax="1462">
      <contour>
        <pt x="967" y="1159" on="1"/>
        <pt x="958" y="1159" on="1"/>
        <pt x="911" y="1089" on="0"/>
        <pt x="798" y="947" on="0"/>
        <pt x="664" y="832" on="0"/>
        <pt x="509" y="760" on="0"/>
        <pt x="422" y="760" on="1"/>
        <pt x="356" y="760" on="0"/>
        <pt x="228" y="794" on="0"/>
        <pt x="128" y="875" on="0"/>
        <pt x="66" y="1011" on="0"/>
        <pt x="66" y="1112" on="1"/>
        <pt x="66" y="1181" on="0"/>
        <pt x="102" y="1285" on="0"/>
        <pt x="164" y="1354" on="0"/>
        <pt x="244" y="1389" on="0"/>
        <pt x="289" y="1389" on="1"/>
        <pt x="389" y="1389" on="0"/>
        <pt x="508" y="1280" on="0"/>
        <pt x="508" y="1169" on="1"/>
        <pt x="508" y="1124" on="0"/>
        <pt x="479" y="1053" on="0"/>
        <pt x="429" y="1005" on="0"/>
        <pt x="361" y="979" on="0"/>
        <pt x="322" y="979" on="1"/>
        <pt x="294" y="979" on="0"/>
        <pt x="262" y="988" on="0"/>
        <pt x="248" y="997" on="1"/>
        <pt x="242" y="993" on="1"/>
        <pt x="256" y="966" on="0"/>
        <pt x="289" y="929" on="0"/>
        <pt x="334" y="908" on="0"/>
        <pt x="396" y="899" on="0"/>
        <pt x="440" y="899" on="1"/>
        <pt x="497" y="899" on="0"/>
        <pt x="612" y="959" on="0"/>
        <pt x="720" y="1056" on="0"/>
        <pt x="816" y="1178" on="0"/>
        <pt x="895" y="1303" on="0"/>
        <pt x="952" y="1419" on="0"/>
        <pt x="967" y="1462" on="1"/>
        <pt x="1126" y="1462" on="1"/>
        <pt x="1126" y="141" on="1"/>
        <pt x="1438" y="141" on="1"/>
        <pt x="1438" y="0" on="1"/>
        <pt x="655" y="0" on="1"/>
        <pt x="655" y="141" on="1"/>
        <pt x="967" y="141" on="1"/>
      </contour>
      <contour>
        <pt x="311" y="1274" on="1"/>
        <pt x="269" y="1274" on="0"/>
        <pt x="219" y="1217" on="0"/>
        <pt x="219" y="1161" on="1"/>
        <pt x="219" y="1135" on="0"/>
        <pt x="224" y="1097" on="0"/>
        <pt x="227" y="1083" on="1"/>
        <pt x="236" y="1076" on="0"/>
        <pt x="259" y="1067" on="0"/>
        <pt x="283" y="1061" on="0"/>
        <pt x="304" y="1059" on="0"/>
        <pt x="311" y="1059" on="1"/>
        <pt x="331" y="1059" on="0"/>
        <pt x="362" y="1079" on="0"/>
        <pt x="383" y="1110" on="0"/>
        <pt x="393" y="1150" on="0"/>
        <pt x="393" y="1171" on="1"/>
        <pt x="393" y="1202" on="0"/>
        <pt x="379" y="1242" on="0"/>
        <pt x="356" y="1265" on="0"/>
        <pt x="326" y="1274" on="0"/>
      </contour>
    </TTGlyph>
    <TTGlyph name="uniA522" xMin="45" yMin="-18" xMax="1536" yMax="1475">
      <contour>
        <pt x="154" y="1024" on="1"/>
        <pt x="45" y="1122" on="1"/>
        <pt x="381" y="1475" on="1"/>
        <pt x="411" y="1471" on="0"/>
        <pt x="502" y="1433" on="0"/>
        <pt x="611" y="1368" on="0"/>
        <pt x="732" y="1278" on="0"/>
        <pt x="793" y="1221" on="1"/>
        <pt x="854" y="1278" on="0"/>
        <pt x="976" y="1368" on="0"/>
        <pt x="1085" y="1433" on="0"/>
        <pt x="1175" y="1471" on="0"/>
        <pt x="1204" y="1475" on="1"/>
        <pt x="1536" y="1128" on="1"/>
        <pt x="1411" y="1024" on="1"/>
        <pt x="1153" y="1294" on="1"/>
        <pt x="1110" y="1288" on="0"/>
        <pt x="967" y="1198" on="0"/>
        <pt x="887" y="1122" on="1"/>
        <pt x="944" y="1056" on="0"/>
        <pt x="1046" y="905" on="0"/>
        <pt x="1123" y="738" on="0"/>
        <pt x="1167" y="556" on="0"/>
        <pt x="1167" y="459" on="1"/>
        <pt x="1167" y="347" on="0"/>
        <pt x="1103" y="170" on="0"/>
        <pt x="997" y="47" on="0"/>
        <pt x="860" y="-18" on="0"/>
        <pt x="786" y="-18" on="1"/>
        <pt x="712" y="-18" on="0"/>
        <pt x="575" y="27" on="0"/>
        <pt x="470" y="136" on="0"/>
        <pt x="406" y="320" on="0"/>
        <pt x="406" y="459" on="1"/>
        <pt x="406" y="553" on="0"/>
        <pt x="449" y="731" on="0"/>
        <pt x="524" y="894" on="0"/>
        <pt x="625" y="1043" on="0"/>
        <pt x="682" y="1108" on="1"/>
        <pt x="640" y="1149" on="0"/>
        <pt x="558" y="1215" on="0"/>
        <pt x="486" y="1263" on="0"/>
        <pt x="428" y="1291" on="0"/>
        <pt x="410" y="1294" on="1"/>
      </contour>
      <contour>
        <pt x="1008" y="459" on="1"/>
        <pt x="1008" y="537" on="0"/>
        <pt x="971" y="688" on="0"/>
        <pt x="909" y="831" on="0"/>
        <pt x="826" y="960" on="0"/>
        <pt x="780" y="1016" on="1"/>
        <pt x="736" y="960" on="0"/>
        <pt x="657" y="831" on="0"/>
        <pt x="599" y="688" on="0"/>
        <pt x="565" y="537" on="0"/>
        <pt x="565" y="459" on="1"/>
        <pt x="565" y="369" on="0"/>
        <pt x="603" y="241" on="0"/>
        <pt x="665" y="159" on="0"/>
        <pt x="745" y="121" on="0"/>
        <pt x="786" y="121" on="1"/>
        <pt x="828" y="121" on="0"/>
        <pt x="907" y="166" on="0"/>
        <pt x="970" y="253" on="0"/>
        <pt x="1008" y="378" on="0"/>
      </contour>
      <contour>
        <pt x="516" y="1071" on="1"/>
        <pt x="516" y="1022" on="0"/>
        <pt x="460" y="969" on="0"/>
        <pt x="414" y="969" on="1"/>
        <pt x="364" y="969" on="0"/>
        <pt x="311" y="1022" on="0"/>
        <pt x="311" y="1071" on="1"/>
        <pt x="311" y="1119" on="0"/>
        <pt x="369" y="1174" on="0"/>
        <pt x="414" y="1174" on="1"/>
        <pt x="459" y="1174" on="0"/>
        <pt x="516" y="1119" on="0"/>
      </contour>
      <contour>
        <pt x="1249" y="1071" on="1"/>
        <pt x="1249" y="1022" on="0"/>
        <pt x="1193" y="969" on="0"/>
        <pt x="1147" y="969" on="1"/>
        <pt x="1097" y="969" on="0"/>
        <pt x="1044" y="1022" on="0"/>
        <pt x="1044" y="1071" on="1"/>
        <pt x="1044" y="1119" on="0"/>
        <pt x="1102" y="1174" on="0"/>
        <pt x="1147" y="1174" on="1"/>
        <pt x="1192" y="1174" on="0"/>
        <pt x="1249" y="1119" on="0"/>
      </contour>
    </TTGlyph>
    <TTGlyph name="uniA523" xMin="47" yMin="276" xMax="2136" yMax="1567">
      <contour>
        <pt x="600" y="903" on="1"/>
        <pt x="600" y="781" on="0"/>
        <pt x="686" y="568" on="0"/>
        <pt x="770" y="500" on="1"/>
        <pt x="798" y="535" on="0"/>
        <pt x="837" y="628" on="0"/>
        <pt x="862" y="734" on="0"/>
        <pt x="874" y="847" on="0"/>
        <pt x="874" y="903" on="1"/>
        <pt x="874" y="958" on="0"/>
        <pt x="858" y="1055" on="0"/>
        <pt x="825" y="1127" on="0"/>
        <pt x="772" y="1169" on="0"/>
        <pt x="735" y="1169" on="1"/>
        <pt x="697" y="1169" on="0"/>
        <pt x="646" y="1131" on="0"/>
        <pt x="614" y="1061" on="0"/>
        <pt x="600" y="963" on="0"/>
      </contour>
      <contour>
        <pt x="1309" y="903" on="1"/>
        <pt x="1309" y="849" on="0"/>
        <pt x="1325" y="739" on="0"/>
        <pt x="1355" y="636" on="0"/>
        <pt x="1399" y="544" on="0"/>
        <pt x="1427" y="508" on="1"/>
        <pt x="1503" y="574" on="0"/>
        <pt x="1583" y="779" on="0"/>
        <pt x="1583" y="903" on="1"/>
        <pt x="1583" y="963" on="0"/>
        <pt x="1567" y="1061" on="0"/>
        <pt x="1534" y="1131" on="0"/>
        <pt x="1483" y="1169" on="0"/>
        <pt x="1448" y="1169" on="1"/>
        <pt x="1410" y="1169" on="0"/>
        <pt x="1357" y="1127" on="0"/>
        <pt x="1324" y="1055" on="0"/>
        <pt x="1309" y="958" on="0"/>
      </contour>
      <contour>
        <pt x="1554" y="1464" on="1"/>
        <pt x="1554" y="1415" on="0"/>
        <pt x="1498" y="1362" on="0"/>
        <pt x="1452" y="1362" on="1"/>
        <pt x="1402" y="1362" on="0"/>
        <pt x="1350" y="1415" on="0"/>
        <pt x="1350" y="1464" on="1"/>
        <pt x="1350" y="1512" on="0"/>
        <pt x="1407" y="1567" on="0"/>
        <pt x="1452" y="1567" on="1"/>
        <pt x="1497" y="1567" on="0"/>
        <pt x="1554" y="1512" on="0"/>
      </contour>
      <contour>
        <pt x="840" y="1464" on="1"/>
        <pt x="840" y="1415" on="0"/>
        <pt x="784" y="1362" on="0"/>
        <pt x="737" y="1362" on="1"/>
        <pt x="688" y="1362" on="0"/>
        <pt x="635" y="1415" on="0"/>
        <pt x="635" y="1464" on="1"/>
        <pt x="635" y="1512" on="0"/>
        <pt x="692" y="1567" on="0"/>
        <pt x="737" y="1567" on="1"/>
        <pt x="782" y="1567" on="0"/>
        <pt x="840" y="1512" on="0"/>
      </contour>
      <contour>
        <pt x="1640" y="276" on="1"/>
        <pt x="1579" y="276" on="0"/>
        <pt x="1464" y="315" on="0"/>
        <pt x="1411" y="352" on="1"/>
        <pt x="1342" y="315" on="0"/>
        <pt x="1181" y="276" on="0"/>
        <pt x="1092" y="276" on="1"/>
        <pt x="1001" y="276" on="0"/>
        <pt x="839" y="312" on="0"/>
        <pt x="768" y="346" on="1"/>
        <pt x="722" y="314" on="0"/>
        <pt x="619" y="276" on="0"/>
        <pt x="563" y="276" on="1"/>
        <pt x="474" y="276" on="0"/>
        <pt x="322" y="311" on="0"/>
        <pt x="195" y="398" on="0"/>
        <pt x="89" y="548" on="0"/>
        <pt x="47" y="664" on="1"/>
        <pt x="172" y="727" on="1"/>
        <pt x="206" y="634" on="0"/>
        <pt x="290" y="514" on="0"/>
        <pt x="388" y="443" on="0"/>
        <pt x="501" y="416" on="0"/>
        <pt x="563" y="416" on="1"/>
        <pt x="585" y="416" on="0"/>
        <pt x="637" y="422" on="0"/>
        <pt x="655" y="428" on="1"/>
        <pt x="607" y="470" on="0"/>
        <pt x="527" y="573" on="0"/>
        <pt x="471" y="694" on="0"/>
        <pt x="440" y="829" on="0"/>
        <pt x="440" y="903" on="1"/>
        <pt x="440" y="985" on="0"/>
        <pt x="481" y="1133" on="0"/>
        <pt x="557" y="1244" on="0"/>
        <pt x="667" y="1309" on="0"/>
        <pt x="735" y="1309" on="1"/>
        <pt x="800" y="1309" on="0"/>
        <pt x="910" y="1258" on="0"/>
        <pt x="989" y="1157" on="0"/>
        <pt x="1034" y="1005" on="0"/>
        <pt x="1034" y="903" on="1"/>
        <pt x="1034" y="840" on="0"/>
        <pt x="1009" y="719" on="0"/>
        <pt x="966" y="605" on="0"/>
        <pt x="906" y="501" on="0"/>
        <pt x="870" y="455" on="1"/>
        <pt x="917" y="436" on="0"/>
        <pt x="1032" y="416" on="0"/>
        <pt x="1092" y="416" on="1"/>
        <pt x="1152" y="416" on="0"/>
        <pt x="1268" y="434" on="0"/>
        <pt x="1315" y="453" on="1"/>
        <pt x="1280" y="496" on="0"/>
        <pt x="1219" y="597" on="0"/>
        <pt x="1174" y="710" on="0"/>
        <pt x="1149" y="835" on="0"/>
        <pt x="1149" y="903" on="1"/>
        <pt x="1149" y="985" on="0"/>
        <pt x="1191" y="1133" on="0"/>
        <pt x="1269" y="1244" on="0"/>
        <pt x="1380" y="1309" on="0"/>
        <pt x="1448" y="1309" on="1"/>
        <pt x="1588" y="1309" on="0"/>
        <pt x="1743" y="1107" on="0"/>
        <pt x="1743" y="903" on="1"/>
        <pt x="1743" y="841" on="0"/>
        <pt x="1712" y="713" on="0"/>
        <pt x="1655" y="591" on="0"/>
        <pt x="1576" y="481" on="0"/>
        <pt x="1528" y="438" on="1"/>
        <pt x="1551" y="427" on="0"/>
        <pt x="1613" y="416" on="0"/>
        <pt x="1640" y="416" on="1"/>
        <pt x="1702" y="416" on="0"/>
        <pt x="1810" y="443" on="0"/>
        <pt x="1904" y="514" on="0"/>
        <pt x="1985" y="634" on="0"/>
        <pt x="2021" y="727" on="1"/>
        <pt x="2136" y="668" on="1"/>
        <pt x="2091" y="552" on="0"/>
        <pt x="1992" y="401" on="0"/>
        <pt x="1873" y="312" on="0"/>
        <pt x="1729" y="276" on="0"/>
      </contour>
    </TTGlyph>
    <TTGlyph name="uniA524" xMin="113" yMin="0" xMax="1653" yMax="1462">
      <contour>
        <pt x="1176" y="1004" on="1"/>
        <pt x="1167" y="1004" on="1"/>
        <pt x="1151" y="968" on="0"/>
        <pt x="1103" y="917" on="0"/>
        <pt x="1049" y="885" on="0"/>
        <pt x="993" y="870" on="0"/>
        <pt x="969" y="870" on="1"/>
        <pt x="938" y="870" on="0"/>
        <pt x="866" y="887" on="0"/>
        <pt x="797" y="930" on="0"/>
        <pt x="739" y="1001" on="0"/>
        <pt x="723" y="1055" on="1"/>
        <pt x="715" y="1055" on="1"/>
        <pt x="692" y="1002" on="0"/>
        <pt x="628" y="932" on="0"/>
        <pt x="555" y="888" on="0"/>
        <pt x="474" y="870" on="0"/>
        <pt x="434" y="870" on="1"/>
        <pt x="362" y="870" on="0"/>
        <pt x="244" y="914" on="0"/>
        <pt x="159" y="1018" on="0"/>
        <pt x="113" y="1189" on="0"/>
        <pt x="113" y="1317" on="1"/>
        <pt x="113" y="1462" on="1"/>
        <pt x="272" y="1462" on="1"/>
        <pt x="272" y="1317" on="1"/>
        <pt x="272" y="1159" on="0"/>
        <pt x="376" y="1006" on="0"/>
        <pt x="465" y="1006" on="1"/>
        <pt x="499" y="1006" on="0"/>
        <pt x="564" y="1035" on="0"/>
        <pt x="613" y="1099" on="0"/>
        <pt x="643" y="1202" on="0"/>
        <pt x="643" y="1276" on="1"/>
        <pt x="643" y="1462" on="1"/>
        <pt x="803" y="1462" on="1"/>
        <pt x="803" y="1272" on="1"/>
        <pt x="803" y="1200" on="0"/>
        <pt x="833" y="1098" on="0"/>
        <pt x="884" y="1035" on="0"/>
        <pt x="954" y="1006" on="0"/>
        <pt x="995" y="1006" on="1"/>
        <pt x="1034" y="1006" on="0"/>
        <pt x="1101" y="1044" on="0"/>
        <pt x="1149" y="1122" on="0"/>
        <pt x="1176" y="1240" on="0"/>
        <pt x="1176" y="1321" on="1"/>
        <pt x="1176" y="1462" on="1"/>
        <pt x="1335" y="1462" on="1"/>
        <pt x="1335" y="743" on="1"/>
        <pt x="1493" y="743" on="1"/>
        <pt x="1493" y="928" on="1"/>
        <pt x="1653" y="928" on="1"/>
        <pt x="1653" y="432" on="1"/>
        <pt x="1493" y="432" on="1"/>
        <pt x="1493" y="604" on="1"/>
        <pt x="1335" y="604" on="1"/>
        <pt x="1335" y="141" on="1"/>
        <pt x="1647" y="141" on="1"/>
        <pt x="1647" y="0" on="1"/>
        <pt x="864" y="0" on="1"/>
        <pt x="864" y="141" on="1"/>
        <pt x="1176" y="141" on="1"/>
      </contour>
    </TTGlyph>
    <TTGlyph name="uniA525" xMin="113" yMin="0" xMax="1837" yMax="1462">
      <contour>
        <pt x="1176" y="1004" on="1"/>
        <pt x="1167" y="1004" on="1"/>
        <pt x="1151" y="968" on="0"/>
        <pt x="1103" y="917" on="0"/>
        <pt x="1049" y="885" on="0"/>
        <pt x="993" y="870" on="0"/>
        <pt x="969" y="870" on="1"/>
        <pt x="938" y="870" on="0"/>
        <pt x="866" y="887" on="0"/>
        <pt x="797" y="930" on="0"/>
        <pt x="739" y="1001" on="0"/>
        <pt x="723" y="1055" on="1"/>
        <pt x="715" y="1055" on="1"/>
        <pt x="692" y="1002" on="0"/>
        <pt x="628" y="932" on="0"/>
        <pt x="555" y="888" on="0"/>
        <pt x="474" y="870" on="0"/>
        <pt x="434" y="870" on="1"/>
        <pt x="362" y="870" on="0"/>
        <pt x="244" y="914" on="0"/>
        <pt x="159" y="1018" on="0"/>
        <pt x="113" y="1189" on="0"/>
        <pt x="113" y="1317" on="1"/>
        <pt x="113" y="1462" on="1"/>
        <pt x="272" y="1462" on="1"/>
        <pt x="272" y="1317" on="1"/>
        <pt x="272" y="1159" on="0"/>
        <pt x="376" y="1006" on="0"/>
        <pt x="465" y="1006" on="1"/>
        <pt x="499" y="1006" on="0"/>
        <pt x="564" y="1035" on="0"/>
        <pt x="613" y="1099" on="0"/>
        <pt x="643" y="1202" on="0"/>
        <pt x="643" y="1276" on="1"/>
        <pt x="643" y="1462" on="1"/>
        <pt x="803" y="1462" on="1"/>
        <pt x="803" y="1272" on="1"/>
        <pt x="803" y="1200" on="0"/>
        <pt x="833" y="1098" on="0"/>
        <pt x="884" y="1035" on="0"/>
        <pt x="954" y="1006" on="0"/>
        <pt x="995" y="1006" on="1"/>
        <pt x="1034" y="1006" on="0"/>
        <pt x="1101" y="1044" on="0"/>
        <pt x="1149" y="1122" on="0"/>
        <pt x="1176" y="1240" on="0"/>
        <pt x="1176" y="1321" on="1"/>
        <pt x="1176" y="1462" on="1"/>
        <pt x="1335" y="1462" on="1"/>
        <pt x="1335" y="743" on="1"/>
        <pt x="1677" y="743" on="1"/>
        <pt x="1677" y="928" on="1"/>
        <pt x="1837" y="928" on="1"/>
        <pt x="1837" y="432" on="1"/>
        <pt x="1677" y="432" on="1"/>
        <pt x="1677" y="604" on="1"/>
        <pt x="1335" y="604" on="1"/>
        <pt x="1335" y="141" on="1"/>
        <pt x="1647" y="141" on="1"/>
        <pt x="1647" y="0" on="1"/>
        <pt x="864" y="0" on="1"/>
        <pt x="864" y="141" on="1"/>
        <pt x="1176" y="141" on="1"/>
      </contour>
      <contour>
        <pt x="1608" y="379" on="1"/>
        <pt x="1608" y="329" on="0"/>
        <pt x="1552" y="276" on="0"/>
        <pt x="1505" y="276" on="1"/>
        <pt x="1456" y="276" on="0"/>
        <pt x="1403" y="329" on="0"/>
        <pt x="1403" y="379" on="1"/>
        <pt x="1403" y="427" on="0"/>
        <pt x="1460" y="481" on="0"/>
        <pt x="1505" y="481" on="1"/>
        <pt x="1550" y="481" on="0"/>
        <pt x="1608" y="427" on="0"/>
      </contour>
      <contour>
        <pt x="1608" y="973" on="1"/>
        <pt x="1608" y="923" on="0"/>
        <pt x="1552" y="870" on="0"/>
        <pt x="1505" y="870" on="1"/>
        <pt x="1456" y="870" on="0"/>
        <pt x="1403" y="923" on="0"/>
        <pt x="1403" y="973" on="1"/>
        <pt x="1403" y="1021" on="0"/>
        <pt x="1460" y="1075" on="0"/>
        <pt x="1505" y="1075" on="1"/>
        <pt x="1550" y="1075" on="0"/>
        <pt x="1608" y="1021" on="0"/>
      </contour>
    </TTGlyph>
    <TTGlyph name="uniA526" xMin="113" yMin="0" xMax="1817" yMax="1462">
      <contour>
        <pt x="1176" y="1004" on="1"/>
        <pt x="1167" y="1004" on="1"/>
        <pt x="1151" y="968" on="0"/>
        <pt x="1103" y="917" on="0"/>
        <pt x="1049" y="885" on="0"/>
        <pt x="993" y="870" on="0"/>
        <pt x="969" y="870" on="1"/>
        <pt x="938" y="870" on="0"/>
        <pt x="866" y="887" on="0"/>
        <pt x="797" y="930" on="0"/>
        <pt x="739" y="1001" on="0"/>
        <pt x="723" y="1055" on="1"/>
        <pt x="715" y="1055" on="1"/>
        <pt x="692" y="1002" on="0"/>
        <pt x="628" y="932" on="0"/>
        <pt x="555" y="888" on="0"/>
        <pt x="474" y="870" on="0"/>
        <pt x="434" y="870" on="1"/>
        <pt x="362" y="870" on="0"/>
        <pt x="244" y="914" on="0"/>
        <pt x="159" y="1018" on="0"/>
        <pt x="113" y="1189" on="0"/>
        <pt x="113" y="1317" on="1"/>
        <pt x="113" y="1462" on="1"/>
        <pt x="272" y="1462" on="1"/>
        <pt x="272" y="1317" on="1"/>
        <pt x="272" y="1159" on="0"/>
        <pt x="376" y="1006" on="0"/>
        <pt x="465" y="1006" on="1"/>
        <pt x="499" y="1006" on="0"/>
        <pt x="564" y="1035" on="0"/>
        <pt x="613" y="1099" on="0"/>
        <pt x="643" y="1202" on="0"/>
        <pt x="643" y="1276" on="1"/>
        <pt x="643" y="1462" on="1"/>
        <pt x="803" y="1462" on="1"/>
        <pt x="803" y="1272" on="1"/>
        <pt x="803" y="1200" on="0"/>
        <pt x="833" y="1098" on="0"/>
        <pt x="884" y="1035" on="0"/>
        <pt x="954" y="1006" on="0"/>
        <pt x="995" y="1006" on="1"/>
        <pt x="1034" y="1006" on="0"/>
        <pt x="1101" y="1044" on="0"/>
        <pt x="1149" y="1122" on="0"/>
        <pt x="1176" y="1240" on="0"/>
        <pt x="1176" y="1321" on="1"/>
        <pt x="1176" y="1462" on="1"/>
        <pt x="1335" y="1462" on="1"/>
        <pt x="1335" y="621" on="1"/>
        <pt x="1657" y="621" on="1"/>
        <pt x="1657" y="805" on="1"/>
        <pt x="1817" y="805" on="1"/>
        <pt x="1817" y="309" on="1"/>
        <pt x="1657" y="309" on="1"/>
        <pt x="1657" y="481" on="1"/>
        <pt x="1335" y="481" on="1"/>
        <pt x="1335" y="141" on="1"/>
        <pt x="1647" y="141" on="1"/>
        <pt x="1647" y="0" on="1"/>
        <pt x="864" y="0" on="1"/>
        <pt x="864" y="141" on="1"/>
        <pt x="1176" y="141" on="1"/>
        <pt x="1176" y="481" on="1"/>
        <pt x="846" y="481" on="1"/>
        <pt x="846" y="309" on="1"/>
        <pt x="686" y="309" on="1"/>
        <pt x="686" y="805" on="1"/>
        <pt x="846" y="805" on="1"/>
        <pt x="846" y="621" on="1"/>
        <pt x="1176" y="621" on="1"/>
      </contour>
    </TTGlyph>
    <TTGlyph name="uniA527" xMin="158" yMin="-20" xMax="764" yMax="1485">
      <contour>
        <pt x="461" y="119" on="1"/>
        <pt x="520" y="119" on="0"/>
        <pt x="599" y="207" on="0"/>
        <pt x="614" y="279" on="1"/>
        <pt x="754" y="258" on="1"/>
        <pt x="738" y="124" on="0"/>
        <pt x="585" y="-20" on="0"/>
        <pt x="461" y="-20" on="1"/>
        <pt x="399" y="-20" on="0"/>
        <pt x="289" y="23" on="0"/>
        <pt x="207" y="102" on="0"/>
        <pt x="158" y="212" on="0"/>
        <pt x="158" y="279" on="1"/>
        <pt x="158" y="353" on="0"/>
        <pt x="217" y="464" on="0"/>
        <pt x="268" y="498" on="1"/>
        <pt x="217" y="538" on="0"/>
        <pt x="158" y="658" on="0"/>
        <pt x="158" y="733" on="1"/>
        <pt x="158" y="800" on="0"/>
        <pt x="207" y="910" on="0"/>
        <pt x="289" y="989" on="0"/>
        <pt x="399" y="1032" on="0"/>
        <pt x="461" y="1032" on="1"/>
        <pt x="479" y="1032" on="0"/>
        <pt x="518" y="1027" on="0"/>
        <pt x="535" y="1022" on="1"/>
        <pt x="569" y="1044" on="0"/>
        <pt x="604" y="1133" on="0"/>
        <pt x="604" y="1186" on="1"/>
        <pt x="604" y="1221" on="0"/>
        <pt x="581" y="1280" on="0"/>
        <pt x="542" y="1322" on="0"/>
        <pt x="490" y="1346" on="0"/>
        <pt x="461" y="1346" on="1"/>
        <pt x="402" y="1346" on="0"/>
        <pt x="323" y="1257" on="0"/>
        <pt x="307" y="1186" on="1"/>
        <pt x="168" y="1206" on="1"/>
        <pt x="183" y="1340" on="0"/>
        <pt x="337" y="1485" on="0"/>
        <pt x="461" y="1485" on="1"/>
        <pt x="522" y="1485" on="0"/>
        <pt x="633" y="1442" on="0"/>
        <pt x="715" y="1363" on="0"/>
        <pt x="764" y="1253" on="0"/>
        <pt x="764" y="1186" on="1"/>
        <pt x="764" y="1110" on="0"/>
        <pt x="704" y="1001" on="0"/>
        <pt x="653" y="967" on="1"/>
        <pt x="704" y="926" on="0"/>
        <pt x="764" y="807" on="0"/>
        <pt x="764" y="733" on="1"/>
        <pt x="764" y="665" on="0"/>
        <pt x="715" y="555" on="0"/>
        <pt x="633" y="477" on="0"/>
        <pt x="522" y="434" on="0"/>
        <pt x="461" y="434" on="1"/>
        <pt x="442" y="434" on="0"/>
        <pt x="406" y="437" on="0"/>
        <pt x="387" y="442" on="1"/>
        <pt x="353" y="421" on="0"/>
        <pt x="317" y="331" on="0"/>
        <pt x="317" y="279" on="1"/>
        <pt x="317" y="243" on="0"/>
        <pt x="340" y="184" on="0"/>
        <pt x="379" y="142" on="0"/>
        <pt x="432" y="119" on="0"/>
      </contour>
      <contour>
        <pt x="317" y="733" on="1"/>
        <pt x="317" y="697" on="0"/>
        <pt x="340" y="638" on="0"/>
        <pt x="379" y="596" on="0"/>
        <pt x="432" y="573" on="0"/>
        <pt x="461" y="573" on="1"/>
        <pt x="490" y="573" on="0"/>
        <pt x="542" y="596" on="0"/>
        <pt x="581" y="638" on="0"/>
        <pt x="604" y="697" on="0"/>
        <pt x="604" y="733" on="1"/>
        <pt x="604" y="768" on="0"/>
        <pt x="581" y="827" on="0"/>
        <pt x="542" y="869" on="0"/>
        <pt x="490" y="893" on="0"/>
        <pt x="461" y="893" on="1"/>
        <pt x="432" y="893" on="0"/>
        <pt x="379" y="869" on="0"/>
        <pt x="340" y="827" on="0"/>
        <pt x="317" y="768" on="0"/>
      </contour>
    </TTGlyph>
    <TTGlyph name="uniA528" xMin="113" yMin="-20" xMax="1657" yMax="1462">
      <contour>
        <pt x="877" y="-20" on="1"/>
        <pt x="573" y="340" on="1"/>
        <pt x="682" y="430" on="1"/>
        <pt x="788" y="303" on="1"/>
        <pt x="1167" y="618" on="1"/>
        <pt x="1167" y="819" on="1"/>
        <pt x="1159" y="819" on="1"/>
        <pt x="1143" y="783" on="0"/>
        <pt x="1095" y="732" on="0"/>
        <pt x="1041" y="701" on="0"/>
        <pt x="985" y="686" on="0"/>
        <pt x="961" y="686" on="1"/>
        <pt x="930" y="686" on="0"/>
        <pt x="858" y="703" on="0"/>
        <pt x="789" y="745" on="0"/>
        <pt x="730" y="816" on="0"/>
        <pt x="713" y="870" on="1"/>
        <pt x="705" y="870" on="1"/>
        <pt x="682" y="818" on="0"/>
        <pt x="620" y="747" on="0"/>
        <pt x="551" y="704" on="0"/>
        <pt x="480" y="686" on="0"/>
        <pt x="449" y="686" on="1"/>
        <pt x="379" y="686" on="0"/>
        <pt x="256" y="725" on="0"/>
        <pt x="165" y="813" on="0"/>
        <pt x="113" y="955" on="0"/>
        <pt x="113" y="1059" on="1"/>
        <pt x="272" y="1059" on="1"/>
        <pt x="272" y="990" on="0"/>
        <pt x="304" y="898" on="0"/>
        <pt x="356" y="843" on="0"/>
        <pt x="421" y="821" on="0"/>
        <pt x="455" y="821" on="1"/>
        <pt x="536" y="821" on="0"/>
        <pt x="635" y="936" on="0"/>
        <pt x="635" y="1059" on="1"/>
        <pt x="793" y="1059" on="1"/>
        <pt x="794" y="998" on="0"/>
        <pt x="824" y="909" on="0"/>
        <pt x="876" y="850" on="0"/>
        <pt x="946" y="821" on="0"/>
        <pt x="987" y="821" on="1"/>
        <pt x="1026" y="821" on="0"/>
        <pt x="1092" y="857" on="0"/>
        <pt x="1140" y="920" on="0"/>
        <pt x="1167" y="1008" on="0"/>
        <pt x="1167" y="1059" on="1"/>
        <pt x="1167" y="1223" on="1"/>
        <pt x="1159" y="1223" on="1"/>
        <pt x="1143" y="1187" on="0"/>
        <pt x="1095" y="1136" on="0"/>
        <pt x="1041" y="1104" on="0"/>
        <pt x="985" y="1090" on="0"/>
        <pt x="961" y="1090" on="1"/>
        <pt x="930" y="1090" on="0"/>
        <pt x="858" y="1107" on="0"/>
        <pt x="789" y="1149" on="0"/>
        <pt x="730" y="1220" on="0"/>
        <pt x="713" y="1274" on="1"/>
        <pt x="705" y="1274" on="1"/>
        <pt x="682" y="1222" on="0"/>
        <pt x="620" y="1151" on="0"/>
        <pt x="551" y="1108" on="0"/>
        <pt x="480" y="1090" on="0"/>
        <pt x="449" y="1090" on="1"/>
        <pt x="379" y="1090" on="0"/>
        <pt x="256" y="1129" on="0"/>
        <pt x="165" y="1216" on="0"/>
        <pt x="113" y="1358" on="0"/>
        <pt x="113" y="1462" on="1"/>
        <pt x="272" y="1462" on="1"/>
        <pt x="272" y="1393" on="0"/>
        <pt x="304" y="1302" on="0"/>
        <pt x="356" y="1247" on="0"/>
        <pt x="421" y="1225" on="0"/>
        <pt x="455" y="1225" on="1"/>
        <pt x="536" y="1225" on="0"/>
        <pt x="635" y="1339" on="0"/>
        <pt x="635" y="1462" on="1"/>
        <pt x="793" y="1462" on="1"/>
        <pt x="794" y="1401" on="0"/>
        <pt x="824" y="1312" on="0"/>
        <pt x="876" y="1253" on="0"/>
        <pt x="946" y="1225" on="0"/>
        <pt x="987" y="1225" on="1"/>
        <pt x="1026" y="1225" on="0"/>
        <pt x="1092" y="1261" on="0"/>
        <pt x="1140" y="1324" on="0"/>
        <pt x="1167" y="1411" on="0"/>
        <pt x="1167" y="1462" on="1"/>
        <pt x="1327" y="1462" on="1"/>
        <pt x="1327" y="696" on="1"/>
        <pt x="1350" y="706" on="0"/>
        <pt x="1401" y="719" on="0"/>
        <pt x="1430" y="719" on="1"/>
        <pt x="1478" y="719" on="0"/>
        <pt x="1561" y="687" on="0"/>
        <pt x="1622" y="628" on="0"/>
        <pt x="1657" y="546" on="0"/>
        <pt x="1657" y="496" on="1"/>
        <pt x="1657" y="443" on="0"/>
        <pt x="1623" y="352" on="0"/>
        <pt x="1562" y="285" on="0"/>
        <pt x="1479" y="246" on="0"/>
        <pt x="1430" y="246" on="1"/>
        <pt x="1385" y="246" on="0"/>
        <pt x="1299" y="268" on="0"/>
        <pt x="1229" y="316" on="0"/>
        <pt x="1180" y="390" on="0"/>
        <pt x="1171" y="442" on="1"/>
        <pt x="877" y="199" on="1"/>
        <pt x="985" y="70" on="1"/>
      </contour>
      <contour>
        <pt x="1430" y="586" on="1"/>
        <pt x="1414" y="586" on="0"/>
        <pt x="1362" y="575" on="0"/>
        <pt x="1327" y="553" on="1"/>
        <pt x="1327" y="514" on="1"/>
        <pt x="1327" y="442" on="0"/>
        <pt x="1380" y="381" on="0"/>
        <pt x="1430" y="381" on="1"/>
        <pt x="1476" y="381" on="0"/>
        <pt x="1532" y="434" on="0"/>
        <pt x="1532" y="483" on="1"/>
        <pt x="1532" y="531" on="0"/>
        <pt x="1475" y="586" on="0"/>
      </contour>
    </TTGlyph>
    <TTGlyph name="uniA529" xMin="113" yMin="-20" xMax="1782" yMax="1462">
      <contour>
        <pt x="877" y="-20" on="1"/>
        <pt x="573" y="340" on="1"/>
        <pt x="682" y="430" on="1"/>
        <pt x="788" y="303" on="1"/>
        <pt x="1167" y="618" on="1"/>
        <pt x="1167" y="819" on="1"/>
        <pt x="1159" y="819" on="1"/>
        <pt x="1143" y="783" on="0"/>
        <pt x="1095" y="732" on="0"/>
        <pt x="1041" y="701" on="0"/>
        <pt x="985" y="686" on="0"/>
        <pt x="961" y="686" on="1"/>
        <pt x="930" y="686" on="0"/>
        <pt x="858" y="703" on="0"/>
        <pt x="789" y="745" on="0"/>
        <pt x="730" y="816" on="0"/>
        <pt x="713" y="870" on="1"/>
        <pt x="705" y="870" on="1"/>
        <pt x="682" y="818" on="0"/>
        <pt x="620" y="747" on="0"/>
        <pt x="551" y="704" on="0"/>
        <pt x="480" y="686" on="0"/>
        <pt x="449" y="686" on="1"/>
        <pt x="379" y="686" on="0"/>
        <pt x="256" y="725" on="0"/>
        <pt x="165" y="813" on="0"/>
        <pt x="113" y="955" on="0"/>
        <pt x="113" y="1059" on="1"/>
        <pt x="272" y="1059" on="1"/>
        <pt x="272" y="990" on="0"/>
        <pt x="304" y="898" on="0"/>
        <pt x="356" y="843" on="0"/>
        <pt x="421" y="821" on="0"/>
        <pt x="455" y="821" on="1"/>
        <pt x="536" y="821" on="0"/>
        <pt x="635" y="936" on="0"/>
        <pt x="635" y="1059" on="1"/>
        <pt x="793" y="1059" on="1"/>
        <pt x="794" y="998" on="0"/>
        <pt x="824" y="909" on="0"/>
        <pt x="876" y="850" on="0"/>
        <pt x="946" y="821" on="0"/>
        <pt x="987" y="821" on="1"/>
        <pt x="1026" y="821" on="0"/>
        <pt x="1092" y="857" on="0"/>
        <pt x="1140" y="920" on="0"/>
        <pt x="1167" y="1008" on="0"/>
        <pt x="1167" y="1059" on="1"/>
        <pt x="1167" y="1223" on="1"/>
        <pt x="1159" y="1223" on="1"/>
        <pt x="1143" y="1187" on="0"/>
        <pt x="1095" y="1136" on="0"/>
        <pt x="1041" y="1104" on="0"/>
        <pt x="985" y="1090" on="0"/>
        <pt x="961" y="1090" on="1"/>
        <pt x="930" y="1090" on="0"/>
        <pt x="858" y="1107" on="0"/>
        <pt x="789" y="1149" on="0"/>
        <pt x="730" y="1220" on="0"/>
        <pt x="713" y="1274" on="1"/>
        <pt x="705" y="1274" on="1"/>
        <pt x="682" y="1222" on="0"/>
        <pt x="620" y="1151" on="0"/>
        <pt x="551" y="1108" on="0"/>
        <pt x="480" y="1090" on="0"/>
        <pt x="449" y="1090" on="1"/>
        <pt x="379" y="1090" on="0"/>
        <pt x="256" y="1129" on="0"/>
        <pt x="165" y="1216" on="0"/>
        <pt x="113" y="1358" on="0"/>
        <pt x="113" y="1462" on="1"/>
        <pt x="272" y="1462" on="1"/>
        <pt x="272" y="1393" on="0"/>
        <pt x="304" y="1302" on="0"/>
        <pt x="356" y="1247" on="0"/>
        <pt x="421" y="1225" on="0"/>
        <pt x="455" y="1225" on="1"/>
        <pt x="536" y="1225" on="0"/>
        <pt x="635" y="1339" on="0"/>
        <pt x="635" y="1462" on="1"/>
        <pt x="793" y="1462" on="1"/>
        <pt x="794" y="1401" on="0"/>
        <pt x="824" y="1312" on="0"/>
        <pt x="876" y="1253" on="0"/>
        <pt x="946" y="1225" on="0"/>
        <pt x="987" y="1225" on="1"/>
        <pt x="1026" y="1225" on="0"/>
        <pt x="1092" y="1261" on="0"/>
        <pt x="1140" y="1324" on="0"/>
        <pt x="1167" y="1411" on="0"/>
        <pt x="1167" y="1462" on="1"/>
        <pt x="1327" y="1462" on="1"/>
        <pt x="1327" y="696" on="1"/>
        <pt x="1350" y="706" on="0"/>
        <pt x="1401" y="719" on="0"/>
        <pt x="1430" y="719" on="1"/>
        <pt x="1478" y="719" on="0"/>
        <pt x="1561" y="687" on="0"/>
        <pt x="1622" y="628" on="0"/>
        <pt x="1657" y="546" on="0"/>
        <pt x="1657" y="496" on="1"/>
        <pt x="1657" y="408" on="0"/>
        <pt x="1565" y="293" on="0"/>
        <pt x="1493" y="274" on="1"/>
        <pt x="1493" y="213" on="1"/>
        <pt x="1493" y="163" on="0"/>
        <pt x="1538" y="111" on="0"/>
        <pt x="1575" y="111" on="1"/>
        <pt x="1610" y="111" on="0"/>
        <pt x="1657" y="166" on="0"/>
        <pt x="1657" y="215" on="1"/>
        <pt x="1782" y="215" on="1"/>
        <pt x="1782" y="163" on="0"/>
        <pt x="1748" y="81" on="0"/>
        <pt x="1691" y="25" on="0"/>
        <pt x="1615" y="-4" on="0"/>
        <pt x="1573" y="-4" on="1"/>
        <pt x="1531" y="-4" on="0"/>
        <pt x="1455" y="25" on="0"/>
        <pt x="1398" y="81" on="0"/>
        <pt x="1364" y="163" on="0"/>
        <pt x="1364" y="215" on="1"/>
        <pt x="1364" y="272" on="1"/>
        <pt x="1330" y="278" on="0"/>
        <pt x="1269" y="305" on="0"/>
        <pt x="1219" y="347" on="0"/>
        <pt x="1183" y="406" on="0"/>
        <pt x="1174" y="444" on="1"/>
        <pt x="877" y="199" on="1"/>
        <pt x="985" y="70" on="1"/>
      </contour>
      <contour>
        <pt x="1430" y="586" on="1"/>
        <pt x="1414" y="586" on="0"/>
        <pt x="1362" y="575" on="0"/>
        <pt x="1327" y="553" on="1"/>
        <pt x="1327" y="514" on="1"/>
        <pt x="1327" y="442" on="0"/>
        <pt x="1380" y="381" on="0"/>
        <pt x="1430" y="381" on="1"/>
        <pt x="1476" y="381" on="0"/>
        <pt x="1532" y="434" on="0"/>
        <pt x="1532" y="483" on="1"/>
        <pt x="1532" y="531" on="0"/>
        <pt x="1475" y="586" on="0"/>
      </contour>
    </TTGlyph>
    <TTGlyph name="uniA52A" xMin="227" yMin="-20" xMax="1085" yMax="1483">
      <contour>
        <pt x="227" y="-20" on="1"/>
        <pt x="227" y="1483" on="1"/>
        <pt x="1077" y="1094" on="1"/>
        <pt x="457" y="752" on="1"/>
        <pt x="457" y="743" on="1"/>
        <pt x="1085" y="375" on="1"/>
      </contour>
    </TTGlyph>
    <TTGlyph name="uniA52B" xMin="72" yMin="0" xMax="1714" yMax="1491">
      <contour>
        <pt x="961" y="1255" on="1"/>
        <pt x="971" y="1188" on="0"/>
        <pt x="1027" y="1103" on="0"/>
        <pt x="1102" y="1054" on="0"/>
        <pt x="1189" y="1035" on="0"/>
        <pt x="1229" y="1034" on="1"/>
        <pt x="1233" y="1145" on="0"/>
        <pt x="1266" y="1315" on="0"/>
        <pt x="1329" y="1431" on="0"/>
        <pt x="1425" y="1491" on="0"/>
        <pt x="1493" y="1491" on="1"/>
        <pt x="1532" y="1491" on="0"/>
        <pt x="1611" y="1465" on="0"/>
        <pt x="1674" y="1407" on="0"/>
        <pt x="1714" y="1312" on="0"/>
        <pt x="1714" y="1243" on="1"/>
        <pt x="1714" y="1159" on="0"/>
        <pt x="1658" y="1039" on="0"/>
        <pt x="1567" y="960" on="0"/>
        <pt x="1450" y="915" on="0"/>
        <pt x="1389" y="905" on="1"/>
        <pt x="1393" y="784" on="0"/>
        <pt x="1432" y="535" on="0"/>
        <pt x="1496" y="298" on="0"/>
        <pt x="1581" y="85" on="0"/>
        <pt x="1630" y="0" on="1"/>
        <pt x="1446" y="0" on="1"/>
        <pt x="1401" y="81" on="0"/>
        <pt x="1325" y="295" on="0"/>
        <pt x="1268" y="533" on="0"/>
        <pt x="1233" y="781" on="0"/>
        <pt x="1229" y="895" on="1"/>
        <pt x="1184" y="896" on="0"/>
        <pt x="1091" y="918" on="0"/>
        <pt x="1004" y="963" on="0"/>
        <pt x="926" y="1031" on="0"/>
        <pt x="897" y="1079" on="1"/>
        <pt x="889" y="1079" on="1"/>
        <pt x="824" y="982" on="0"/>
        <pt x="648" y="897" on="0"/>
        <pt x="555" y="895" on="1"/>
        <pt x="552" y="781" on="0"/>
        <pt x="518" y="537" on="0"/>
        <pt x="461" y="300" on="0"/>
        <pt x="381" y="84" on="0"/>
        <pt x="332" y="0" on="1"/>
        <pt x="156" y="0" on="1"/>
        <pt x="205" y="79" on="0"/>
        <pt x="290" y="291" on="0"/>
        <pt x="353" y="531" on="0"/>
        <pt x="392" y="785" on="0"/>
        <pt x="395" y="907" on="1"/>
        <pt x="338" y="919" on="0"/>
        <pt x="223" y="965" on="0"/>
        <pt x="130" y="1045" on="0"/>
        <pt x="72" y="1162" on="0"/>
        <pt x="72" y="1243" on="1"/>
        <pt x="72" y="1312" on="0"/>
        <pt x="112" y="1407" on="0"/>
        <pt x="175" y="1465" on="0"/>
        <pt x="254" y="1491" on="0"/>
        <pt x="293" y="1491" on="1"/>
        <pt x="360" y="1491" on="0"/>
        <pt x="456" y="1432" on="0"/>
        <pt x="519" y="1315" on="0"/>
        <pt x="551" y="1143" on="0"/>
        <pt x="555" y="1030" on="1"/>
        <pt x="595" y="1031" on="0"/>
        <pt x="684" y="1053" on="0"/>
        <pt x="762" y="1106" on="0"/>
        <pt x="822" y="1194" on="0"/>
        <pt x="834" y="1260" on="1"/>
        <pt x="838" y="1282" on="1"/>
        <pt x="956" y="1282" on="1"/>
      </contour>
      <contour>
        <pt x="1493" y="1352" on="1"/>
        <pt x="1448" y="1352" on="0"/>
        <pt x="1395" y="1202" on="0"/>
        <pt x="1389" y="1044" on="1"/>
        <pt x="1427" y="1051" on="0"/>
        <pt x="1495" y="1078" on="0"/>
        <pt x="1546" y="1123" on="0"/>
        <pt x="1575" y="1191" on="0"/>
        <pt x="1575" y="1239" on="1"/>
        <pt x="1575" y="1301" on="0"/>
        <pt x="1530" y="1352" on="0"/>
      </contour>
      <contour>
        <pt x="211" y="1239" on="1"/>
        <pt x="211" y="1197" on="0"/>
        <pt x="243" y="1133" on="0"/>
        <pt x="294" y="1088" on="0"/>
        <pt x="360" y="1058" on="0"/>
        <pt x="395" y="1049" on="1"/>
        <pt x="389" y="1204" on="0"/>
        <pt x="338" y="1352" on="0"/>
        <pt x="293" y="1352" on="1"/>
        <pt x="250" y="1352" on="0"/>
        <pt x="211" y="1292" on="0"/>
      </contour>
    </TTGlyph>
    <TTGlyph name="uniA52C" xMin="158" yMin="-20" xMax="1270" yMax="1485">
      <contour>
        <pt x="696" y="1094" on="1"/>
        <pt x="696" y="1160" on="0"/>
        <pt x="667" y="1255" on="0"/>
        <pt x="616" y="1317" on="0"/>
        <pt x="548" y="1346" on="0"/>
        <pt x="510" y="1346" on="1"/>
        <pt x="473" y="1346" on="0"/>
        <pt x="407" y="1317" on="0"/>
        <pt x="356" y="1255" on="0"/>
        <pt x="326" y="1160" on="0"/>
        <pt x="326" y="1094" on="1"/>
        <pt x="326" y="1028" on="0"/>
        <pt x="353" y="922" on="0"/>
        <pt x="402" y="847" on="0"/>
        <pt x="470" y="807" on="0"/>
        <pt x="510" y="807" on="1"/>
        <pt x="550" y="807" on="0"/>
        <pt x="618" y="847" on="0"/>
        <pt x="668" y="922" on="0"/>
        <pt x="696" y="1028" on="0"/>
      </contour>
      <contour>
        <pt x="705" y="375" on="1"/>
        <pt x="705" y="444" on="0"/>
        <pt x="674" y="555" on="0"/>
        <pt x="621" y="632" on="0"/>
        <pt x="550" y="674" on="0"/>
        <pt x="510" y="674" on="1"/>
        <pt x="471" y="674" on="0"/>
        <pt x="401" y="632" on="0"/>
        <pt x="348" y="555" on="0"/>
        <pt x="317" y="444" on="0"/>
        <pt x="317" y="375" on="1"/>
        <pt x="317" y="306" on="0"/>
        <pt x="345" y="208" on="0"/>
        <pt x="396" y="147" on="0"/>
        <pt x="467" y="119" on="0"/>
        <pt x="510" y="119" on="1"/>
        <pt x="552" y="119" on="0"/>
        <pt x="624" y="147" on="0"/>
        <pt x="676" y="208" on="0"/>
        <pt x="705" y="306" on="0"/>
      </contour>
      <contour>
        <pt x="864" y="375" on="1"/>
        <pt x="864" y="273" on="0"/>
        <pt x="805" y="124" on="0"/>
        <pt x="707" y="27" on="0"/>
        <pt x="579" y="-20" on="0"/>
        <pt x="510" y="-20" on="1"/>
        <pt x="440" y="-20" on="0"/>
        <pt x="313" y="27" on="0"/>
        <pt x="216" y="124" on="0"/>
        <pt x="158" y="273" on="0"/>
        <pt x="158" y="375" on="1"/>
        <pt x="158" y="443" on="0"/>
        <pt x="197" y="559" on="0"/>
        <pt x="260" y="650" on="0"/>
        <pt x="342" y="714" on="0"/>
        <pt x="385" y="731" on="1"/>
        <pt x="385" y="739" on="1"/>
        <pt x="341" y="754" on="0"/>
        <pt x="262" y="821" on="0"/>
        <pt x="202" y="914" on="0"/>
        <pt x="166" y="1029" on="0"/>
        <pt x="166" y="1094" on="1"/>
        <pt x="166" y="1194" on="0"/>
        <pt x="226" y="1341" on="0"/>
        <pt x="324" y="1438" on="0"/>
        <pt x="447" y="1485" on="0"/>
        <pt x="510" y="1485" on="1"/>
        <pt x="575" y="1485" on="0"/>
        <pt x="700" y="1438" on="0"/>
        <pt x="797" y="1341" on="0"/>
        <pt x="856" y="1194" on="0"/>
        <pt x="856" y="1094" on="1"/>
        <pt x="856" y="1041" on="0"/>
        <pt x="824" y="944" on="0"/>
        <pt x="776" y="865" on="0"/>
        <pt x="719" y="811" on="0"/>
        <pt x="694" y="801" on="1"/>
        <pt x="696" y="793" on="1"/>
        <pt x="752" y="804" on="0"/>
        <pt x="918" y="811" on="0"/>
        <pt x="1020" y="811" on="1"/>
        <pt x="1110" y="811" on="1"/>
        <pt x="1110" y="995" on="1"/>
        <pt x="1270" y="995" on="1"/>
        <pt x="1270" y="500" on="1"/>
        <pt x="1110" y="500" on="1"/>
        <pt x="1110" y="672" on="1"/>
        <pt x="1020" y="672" on="1"/>
        <pt x="969" y="672" on="0"/>
        <pt x="875" y="673" on="0"/>
        <pt x="791" y="677" on="0"/>
        <pt x="721" y="684" on="0"/>
        <pt x="696" y="690" on="1"/>
        <pt x="694" y="682" on="1"/>
        <pt x="719" y="672" on="0"/>
        <pt x="778" y="620" on="0"/>
        <pt x="829" y="540" on="0"/>
        <pt x="864" y="436" on="0"/>
      </contour>
    </TTGlyph>
    <TTGlyph name="uniA52D" xMin="158" yMin="-20" xMax="1352" yMax="1485">
      <contour>
        <pt x="696" y="1094" on="1"/>
        <pt x="696" y="1160" on="0"/>
        <pt x="667" y="1255" on="0"/>
        <pt x="616" y="1317" on="0"/>
        <pt x="548" y="1346" on="0"/>
        <pt x="510" y="1346" on="1"/>
        <pt x="473" y="1346" on="0"/>
        <pt x="407" y="1317" on="0"/>
        <pt x="356" y="1255" on="0"/>
        <pt x="326" y="1160" on="0"/>
        <pt x="326" y="1094" on="1"/>
        <pt x="326" y="1028" on="0"/>
        <pt x="353" y="922" on="0"/>
        <pt x="402" y="847" on="0"/>
        <pt x="470" y="807" on="0"/>
        <pt x="510" y="807" on="1"/>
        <pt x="550" y="807" on="0"/>
        <pt x="618" y="847" on="0"/>
        <pt x="668" y="922" on="0"/>
        <pt x="696" y="1028" on="0"/>
      </contour>
      <contour>
        <pt x="705" y="375" on="1"/>
        <pt x="705" y="444" on="0"/>
        <pt x="674" y="555" on="0"/>
        <pt x="621" y="632" on="0"/>
        <pt x="550" y="674" on="0"/>
        <pt x="510" y="674" on="1"/>
        <pt x="471" y="674" on="0"/>
        <pt x="401" y="632" on="0"/>
        <pt x="348" y="555" on="0"/>
        <pt x="317" y="444" on="0"/>
        <pt x="317" y="375" on="1"/>
        <pt x="317" y="306" on="0"/>
        <pt x="345" y="208" on="0"/>
        <pt x="396" y="147" on="0"/>
        <pt x="467" y="119" on="0"/>
        <pt x="510" y="119" on="1"/>
        <pt x="552" y="119" on="0"/>
        <pt x="624" y="147" on="0"/>
        <pt x="676" y="208" on="0"/>
        <pt x="705" y="306" on="0"/>
      </contour>
      <contour>
        <pt x="1122" y="1067" on="1"/>
        <pt x="1122" y="1017" on="0"/>
        <pt x="1066" y="965" on="0"/>
        <pt x="1020" y="965" on="1"/>
        <pt x="970" y="965" on="0"/>
        <pt x="918" y="1017" on="0"/>
        <pt x="918" y="1067" on="1"/>
        <pt x="918" y="1115" on="0"/>
        <pt x="975" y="1169" on="0"/>
        <pt x="1020" y="1169" on="1"/>
        <pt x="1065" y="1169" on="0"/>
        <pt x="1122" y="1115" on="0"/>
      </contour>
      <contour>
        <pt x="1122" y="416" on="1"/>
        <pt x="1122" y="366" on="0"/>
        <pt x="1066" y="313" on="0"/>
        <pt x="1020" y="313" on="1"/>
        <pt x="970" y="313" on="0"/>
        <pt x="918" y="366" on="0"/>
        <pt x="918" y="416" on="1"/>
        <pt x="918" y="464" on="0"/>
        <pt x="975" y="518" on="0"/>
        <pt x="1020" y="518" on="1"/>
        <pt x="1065" y="518" on="0"/>
        <pt x="1122" y="464" on="0"/>
      </contour>
      <contour>
        <pt x="864" y="375" on="1"/>
        <pt x="864" y="273" on="0"/>
        <pt x="805" y="124" on="0"/>
        <pt x="707" y="27" on="0"/>
        <pt x="579" y="-20" on="0"/>
        <pt x="510" y="-20" on="1"/>
        <pt x="440" y="-20" on="0"/>
        <pt x="313" y="27" on="0"/>
        <pt x="216" y="124" on="0"/>
        <pt x="158" y="273" on="0"/>
        <pt x="158" y="375" on="1"/>
        <pt x="158" y="443" on="0"/>
        <pt x="197" y="559" on="0"/>
        <pt x="260" y="650" on="0"/>
        <pt x="342" y="714" on="0"/>
        <pt x="385" y="731" on="1"/>
        <pt x="385" y="739" on="1"/>
        <pt x="341" y="754" on="0"/>
        <pt x="262" y="821" on="0"/>
        <pt x="202" y="914" on="0"/>
        <pt x="166" y="1029" on="0"/>
        <pt x="166" y="1094" on="1"/>
        <pt x="166" y="1194" on="0"/>
        <pt x="226" y="1341" on="0"/>
        <pt x="324" y="1438" on="0"/>
        <pt x="447" y="1485" on="0"/>
        <pt x="510" y="1485" on="1"/>
        <pt x="575" y="1485" on="0"/>
        <pt x="700" y="1438" on="0"/>
        <pt x="797" y="1341" on="0"/>
        <pt x="856" y="1194" on="0"/>
        <pt x="856" y="1094" on="1"/>
        <pt x="856" y="1041" on="0"/>
        <pt x="824" y="944" on="0"/>
        <pt x="776" y="865" on="0"/>
        <pt x="719" y="811" on="0"/>
        <pt x="694" y="801" on="1"/>
        <pt x="696" y="793" on="1"/>
        <pt x="752" y="804" on="0"/>
        <pt x="918" y="811" on="0"/>
        <pt x="1020" y="811" on="1"/>
        <pt x="1192" y="811" on="1"/>
        <pt x="1192" y="995" on="1"/>
        <pt x="1352" y="995" on="1"/>
        <pt x="1352" y="500" on="1"/>
        <pt x="1192" y="500" on="1"/>
        <pt x="1192" y="672" on="1"/>
        <pt x="1020" y="672" on="1"/>
        <pt x="969" y="672" on="0"/>
        <pt x="875" y="673" on="0"/>
        <pt x="791" y="677" on="0"/>
        <pt x="721" y="684" on="0"/>
        <pt x="696" y="690" on="1"/>
        <pt x="694" y="682" on="1"/>
        <pt x="719" y="672" on="0"/>
        <pt x="778" y="620" on="0"/>
        <pt x="829" y="540" on="0"/>
        <pt x="864" y="436" on="0"/>
      </contour>
    </TTGlyph>
    <TTGlyph name="uniA52E" xMin="90" yMin="227" xMax="1174" yMax="1352">
      <contour>
        <pt x="1174" y="786" on="1"/>
        <pt x="1174" y="657" on="0"/>
        <pt x="1096" y="450" on="0"/>
        <pt x="953" y="305" on="0"/>
        <pt x="754" y="227" on="0"/>
        <pt x="633" y="227" on="1"/>
        <pt x="504" y="227" on="0"/>
        <pt x="302" y="305" on="0"/>
        <pt x="163" y="450" on="0"/>
        <pt x="90" y="657" on="0"/>
        <pt x="90" y="786" on="1"/>
        <pt x="90" y="913" on="0"/>
        <pt x="171" y="1121" on="0"/>
        <pt x="315" y="1270" on="0"/>
        <pt x="514" y="1352" on="0"/>
        <pt x="633" y="1352" on="1"/>
        <pt x="750" y="1352" on="0"/>
        <pt x="949" y="1270" on="0"/>
        <pt x="1093" y="1121" on="0"/>
        <pt x="1174" y="913" on="0"/>
      </contour>
      <contour>
        <pt x="633" y="367" on="1"/>
        <pt x="730" y="367" on="0"/>
        <pt x="883" y="441" on="0"/>
        <pt x="934" y="510" on="1"/>
        <pt x="770" y="604" on="1"/>
        <pt x="713" y="567" on="0"/>
        <pt x="633" y="567" on="1"/>
        <pt x="551" y="567" on="0"/>
        <pt x="496" y="604" on="1"/>
        <pt x="328" y="508" on="1"/>
        <pt x="376" y="440" on="0"/>
        <pt x="530" y="367" on="0"/>
      </contour>
      <contour>
        <pt x="250" y="786" on="1"/>
        <pt x="250" y="704" on="0"/>
        <pt x="268" y="637" on="1"/>
        <pt x="416" y="723" on="1"/>
        <pt x="410" y="750" on="0"/>
        <pt x="410" y="784" on="1"/>
        <pt x="410" y="868" on="0"/>
        <pt x="493" y="974" on="0"/>
        <pt x="565" y="991" on="1"/>
        <pt x="565" y="1206" on="1"/>
        <pt x="494" y="1194" on="0"/>
        <pt x="378" y="1124" on="0"/>
        <pt x="296" y="1015" on="0"/>
        <pt x="250" y="871" on="0"/>
      </contour>
      <contour>
        <pt x="860" y="786" on="1"/>
        <pt x="860" y="768" on="0"/>
        <pt x="857" y="736" on="0"/>
        <pt x="852" y="721" on="1"/>
        <pt x="995" y="639" on="1"/>
        <pt x="1014" y="705" on="0"/>
        <pt x="1014" y="786" on="1"/>
        <pt x="1014" y="870" on="0"/>
        <pt x="969" y="1012" on="0"/>
        <pt x="888" y="1121" on="0"/>
        <pt x="775" y="1192" on="0"/>
        <pt x="707" y="1204" on="1"/>
        <pt x="707" y="989" on="1"/>
        <pt x="775" y="971" on="0"/>
        <pt x="860" y="867" on="0"/>
      </contour>
      <contour>
        <pt x="735" y="784" on="1"/>
        <pt x="735" y="832" on="0"/>
        <pt x="678" y="887" on="0"/>
        <pt x="633" y="887" on="1"/>
        <pt x="588" y="887" on="0"/>
        <pt x="530" y="832" on="0"/>
        <pt x="530" y="784" on="1"/>
        <pt x="530" y="735" on="0"/>
        <pt x="583" y="682" on="0"/>
        <pt x="633" y="682" on="1"/>
        <pt x="679" y="682" on="0"/>
        <pt x="735" y="735" on="0"/>
      </contour>
    </TTGlyph>
    <TTGlyph name="uniA52F" xMin="45" yMin="0" xMax="1278" yMax="1462">
      <contour>
        <pt x="741" y="362" on="1"/>
        <pt x="741" y="0" on="1"/>
        <pt x="582" y="0" on="1"/>
        <pt x="582" y="362" on="1"/>
        <pt x="188" y="362" on="1"/>
        <pt x="188" y="504" on="1"/>
        <pt x="582" y="504" on="1"/>
        <pt x="582" y="1321" on="1"/>
        <pt x="45" y="1321" on="1"/>
        <pt x="45" y="1462" on="1"/>
        <pt x="1278" y="1462" on="1"/>
        <pt x="1278" y="1321" on="1"/>
        <pt x="741" y="1321" on="1"/>
        <pt x="741" y="504" on="1"/>
        <pt x="1135" y="504" on="1"/>
        <pt x="1135" y="362" on="1"/>
      </contour>
      <contour>
        <pt x="428" y="768" on="1"/>
        <pt x="428" y="718" on="0"/>
        <pt x="372" y="666" on="0"/>
        <pt x="326" y="666" on="1"/>
        <pt x="276" y="666" on="0"/>
        <pt x="223" y="718" on="0"/>
        <pt x="223" y="768" on="1"/>
        <pt x="223" y="816" on="0"/>
        <pt x="281" y="870" on="0"/>
        <pt x="326" y="870" on="1"/>
        <pt x="371" y="870" on="0"/>
        <pt x="428" y="816" on="0"/>
      </contour>
      <contour>
        <pt x="1096" y="768" on="1"/>
        <pt x="1096" y="718" on="0"/>
        <pt x="1040" y="666" on="0"/>
        <pt x="993" y="666" on="1"/>
        <pt x="944" y="666" on="0"/>
        <pt x="891" y="718" on="0"/>
        <pt x="891" y="768" on="1"/>
        <pt x="891" y="816" on="0"/>
        <pt x="948" y="870" on="0"/>
        <pt x="993" y="870" on="1"/>
        <pt x="1038" y="870" on="0"/>
        <pt x="1096" y="816" on="0"/>
      </contour>
      <contour>
        <pt x="428" y="102" on="1"/>
        <pt x="428" y="53" on="0"/>
        <pt x="372" y="0" on="0"/>
        <pt x="326" y="0" on="1"/>
        <pt x="276" y="0" on="0"/>
        <pt x="223" y="53" on="0"/>
        <pt x="223" y="102" on="1"/>
        <pt x="223" y="150" on="0"/>
        <pt x="281" y="205" on="0"/>
        <pt x="326" y="205" on="1"/>
        <pt x="371" y="205" on="0"/>
        <pt x="428" y="150" on="0"/>
      </contour>
      <contour>
        <pt x="1096" y="102" on="1"/>
        <pt x="1096" y="53" on="0"/>
        <pt x="1040" y="0" on="0"/>
        <pt x="993" y="0" on="1"/>
        <pt x="944" y="0" on="0"/>
        <pt x="891" y="53" on="0"/>
        <pt x="891" y="102" on="1"/>
        <pt x="891" y="150" on="0"/>
        <pt x="948" y="205" on="0"/>
        <pt x="993" y="205" on="1"/>
        <pt x="1038" y="205" on="0"/>
        <pt x="1096" y="150" on="0"/>
      </contour>
    </TTGlyph>
    <TTGlyph name="uniA530" xMin="90" yMin="0" xMax="1487" yMax="1462">
      <contour>
        <pt x="868" y="694" on="1"/>
        <pt x="868" y="0" on="1"/>
        <pt x="709" y="0" on="1"/>
        <pt x="709" y="694" on="1"/>
        <pt x="90" y="694" on="1"/>
        <pt x="90" y="836" on="1"/>
        <pt x="709" y="836" on="1"/>
        <pt x="709" y="1462" on="1"/>
        <pt x="868" y="1462" on="1"/>
        <pt x="868" y="836" on="1"/>
        <pt x="1487" y="836" on="1"/>
        <pt x="1487" y="694" on="1"/>
      </contour>
      <contour>
        <pt x="575" y="1071" on="1"/>
        <pt x="575" y="1022" on="0"/>
        <pt x="520" y="969" on="0"/>
        <pt x="473" y="969" on="1"/>
        <pt x="424" y="969" on="0"/>
        <pt x="371" y="1022" on="0"/>
        <pt x="371" y="1071" on="1"/>
        <pt x="371" y="1119" on="0"/>
        <pt x="428" y="1174" on="0"/>
        <pt x="473" y="1174" on="1"/>
        <pt x="518" y="1174" on="0"/>
        <pt x="575" y="1119" on="0"/>
      </contour>
      <contour>
        <pt x="1206" y="1071" on="1"/>
        <pt x="1206" y="1022" on="0"/>
        <pt x="1150" y="969" on="0"/>
        <pt x="1104" y="969" on="1"/>
        <pt x="1054" y="969" on="0"/>
        <pt x="1001" y="1022" on="0"/>
        <pt x="1001" y="1071" on="1"/>
        <pt x="1001" y="1119" on="0"/>
        <pt x="1059" y="1174" on="0"/>
        <pt x="1104" y="1174" on="1"/>
        <pt x="1149" y="1174" on="0"/>
        <pt x="1206" y="1119" on="0"/>
      </contour>
      <contour>
        <pt x="575" y="459" on="1"/>
        <pt x="575" y="409" on="0"/>
        <pt x="520" y="356" on="0"/>
        <pt x="473" y="356" on="1"/>
        <pt x="424" y="356" on="0"/>
        <pt x="371" y="409" on="0"/>
        <pt x="371" y="459" on="1"/>
        <pt x="371" y="507" on="0"/>
        <pt x="428" y="561" on="0"/>
        <pt x="473" y="561" on="1"/>
        <pt x="518" y="561" on="0"/>
        <pt x="575" y="507" on="0"/>
      </contour>
      <contour>
        <pt x="1206" y="459" on="1"/>
        <pt x="1206" y="409" on="0"/>
        <pt x="1150" y="356" on="0"/>
        <pt x="1104" y="356" on="1"/>
        <pt x="1054" y="356" on="0"/>
        <pt x="1001" y="409" on="0"/>
        <pt x="1001" y="459" on="1"/>
        <pt x="1001" y="507" on="0"/>
        <pt x="1059" y="561" on="0"/>
        <pt x="1104" y="561" on="1"/>
        <pt x="1149" y="561" on="0"/>
        <pt x="1206" y="507" on="0"/>
      </contour>
    </TTGlyph>
    <TTGlyph name="uniA531" xMin="227" yMin="-10" xMax="1448" yMax="1462">
      <contour>
        <pt x="387" y="420" on="1"/>
        <pt x="387" y="339" on="0"/>
        <pt x="409" y="227" on="0"/>
        <pt x="454" y="157" on="0"/>
        <pt x="522" y="125" on="0"/>
        <pt x="569" y="125" on="1"/>
        <pt x="608" y="125" on="0"/>
        <pt x="676" y="148" on="0"/>
        <pt x="728" y="205" on="0"/>
        <pt x="758" y="301" on="0"/>
        <pt x="758" y="375" on="1"/>
        <pt x="758" y="582" on="1"/>
        <pt x="918" y="582" on="1"/>
        <pt x="918" y="375" on="1"/>
        <pt x="918" y="301" on="0"/>
        <pt x="948" y="205" on="0"/>
        <pt x="999" y="148" on="0"/>
        <pt x="1068" y="125" on="0"/>
        <pt x="1106" y="125" on="1"/>
        <pt x="1152" y="125" on="0"/>
        <pt x="1221" y="157" on="0"/>
        <pt x="1266" y="227" on="0"/>
        <pt x="1288" y="339" on="0"/>
        <pt x="1288" y="420" on="1"/>
        <pt x="1288" y="582" on="1"/>
        <pt x="1448" y="582" on="1"/>
        <pt x="1448" y="422" on="1"/>
        <pt x="1448" y="292" on="0"/>
        <pt x="1402" y="125" on="0"/>
        <pt x="1317" y="28" on="0"/>
        <pt x="1198" y="-10" on="0"/>
        <pt x="1126" y="-10" on="1"/>
        <pt x="1067" y="-10" on="0"/>
        <pt x="977" y="11" on="0"/>
        <pt x="909" y="50" on="0"/>
        <pt x="860" y="107" on="0"/>
        <pt x="842" y="143" on="1"/>
        <pt x="834" y="143" on="1"/>
        <pt x="792" y="74" on="0"/>
        <pt x="654" y="-10" on="0"/>
        <pt x="549" y="-10" on="1"/>
        <pt x="477" y="-10" on="0"/>
        <pt x="358" y="28" on="0"/>
        <pt x="273" y="125" on="0"/>
        <pt x="227" y="292" on="0"/>
        <pt x="227" y="422" on="1"/>
        <pt x="227" y="1462" on="1"/>
        <pt x="387" y="1462" on="1"/>
        <pt x="387" y="1300" on="1"/>
        <pt x="387" y="1219" on="0"/>
        <pt x="413" y="1107" on="0"/>
        <pt x="461" y="1037" on="0"/>
        <pt x="528" y="1006" on="0"/>
        <pt x="569" y="1006" on="1"/>
        <pt x="608" y="1006" on="0"/>
        <pt x="676" y="1029" on="0"/>
        <pt x="728" y="1085" on="0"/>
        <pt x="758" y="1181" on="0"/>
        <pt x="758" y="1255" on="1"/>
        <pt x="758" y="1462" on="1"/>
        <pt x="918" y="1462" on="1"/>
        <pt x="918" y="1255" on="1"/>
        <pt x="918" y="1181" on="0"/>
        <pt x="948" y="1085" on="0"/>
        <pt x="999" y="1029" on="0"/>
        <pt x="1068" y="1006" on="0"/>
        <pt x="1106" y="1006" on="1"/>
        <pt x="1157" y="1006" on="0"/>
        <pt x="1226" y="1037" on="0"/>
        <pt x="1269" y="1107" on="0"/>
        <pt x="1288" y="1219" on="0"/>
        <pt x="1288" y="1300" on="1"/>
        <pt x="1288" y="1462" on="1"/>
        <pt x="1448" y="1462" on="1"/>
        <pt x="1448" y="1303" on="1"/>
        <pt x="1448" y="1173" on="0"/>
        <pt x="1402" y="1005" on="0"/>
        <pt x="1317" y="908" on="0"/>
        <pt x="1198" y="870" on="0"/>
        <pt x="1126" y="870" on="1"/>
        <pt x="1067" y="870" on="0"/>
        <pt x="977" y="891" on="0"/>
        <pt x="909" y="931" on="0"/>
        <pt x="860" y="988" on="0"/>
        <pt x="842" y="1024" on="1"/>
        <pt x="834" y="1024" on="1"/>
        <pt x="792" y="955" on="0"/>
        <pt x="666" y="870" on="0"/>
        <pt x="569" y="870" on="1"/>
        <pt x="514" y="870" on="0"/>
        <pt x="420" y="913" on="0"/>
        <pt x="395" y="963" on="1"/>
        <pt x="387" y="963" on="1"/>
      </contour>
    </TTGlyph>
    <TTGlyph name="uniA532" xMin="135" yMin="-20" xMax="1356" yMax="1485">
      <contour>
        <pt x="823" y="158" on="0"/>
        <pt x="660" y="-20" on="0"/>
        <pt x="518" y="-20" on="1"/>
        <pt x="480" y="-20" on="0"/>
        <pt x="420" y="-10" on="0"/>
        <pt x="403" y="-2" on="1"/>
        <pt x="430" y="123" on="1"/>
        <pt x="441" y="118" on="0"/>
        <pt x="480" y="109" on="0"/>
        <pt x="518" y="109" on="1"/>
        <pt x="595" y="109" on="0"/>
        <pt x="666" y="218" on="0"/>
        <pt x="666" y="344" on="1"/>
        <pt x="657" y="344" on="1"/>
        <pt x="645" y="320" on="0"/>
        <pt x="600" y="280" on="0"/>
        <pt x="545" y="251" on="0"/>
        <pt x="484" y="236" on="0"/>
        <pt x="457" y="236" on="1"/>
        <pt x="385" y="236" on="0"/>
        <pt x="266" y="274" on="0"/>
        <pt x="181" y="371" on="0"/>
        <pt x="135" y="538" on="0"/>
        <pt x="135" y="668" on="1"/>
        <pt x="135" y="1202" on="1"/>
        <pt x="295" y="1202" on="1"/>
        <pt x="295" y="1163" on="1"/>
        <pt x="295" y="1082" on="0"/>
        <pt x="321" y="970" on="0"/>
        <pt x="369" y="900" on="0"/>
        <pt x="436" y="868" on="0"/>
        <pt x="477" y="868" on="1"/>
        <pt x="516" y="868" on="0"/>
        <pt x="584" y="891" on="0"/>
        <pt x="636" y="948" on="0"/>
        <pt x="666" y="1044" on="0"/>
        <pt x="666" y="1118" on="1"/>
        <pt x="666" y="1211" on="0"/>
        <pt x="708" y="1349" on="0"/>
        <pt x="788" y="1440" on="0"/>
        <pt x="901" y="1485" on="0"/>
        <pt x="973" y="1485" on="1"/>
        <pt x="1011" y="1485" on="0"/>
        <pt x="1070" y="1474" on="0"/>
        <pt x="1087" y="1466" on="1"/>
        <pt x="1061" y="1341" on="1"/>
        <pt x="1050" y="1346" on="0"/>
        <pt x="1011" y="1356" on="0"/>
        <pt x="973" y="1356" on="1"/>
        <pt x="896" y="1356" on="0"/>
        <pt x="825" y="1245" on="0"/>
        <pt x="825" y="1118" on="1"/>
        <pt x="825" y="1044" on="0"/>
        <pt x="856" y="947" on="0"/>
        <pt x="908" y="890" on="0"/>
        <pt x="976" y="868" on="0"/>
        <pt x="1014" y="868" on="1"/>
        <pt x="1065" y="868" on="0"/>
        <pt x="1134" y="900" on="0"/>
        <pt x="1177" y="970" on="0"/>
        <pt x="1196" y="1082" on="0"/>
        <pt x="1196" y="1163" on="1"/>
        <pt x="1196" y="1202" on="1"/>
        <pt x="1356" y="1202" on="1"/>
        <pt x="1356" y="1165" on="1"/>
        <pt x="1356" y="1035" on="0"/>
        <pt x="1310" y="868" on="0"/>
        <pt x="1225" y="771" on="0"/>
        <pt x="1106" y="733" on="0"/>
        <pt x="1034" y="733" on="1"/>
        <pt x="975" y="733" on="0"/>
        <pt x="885" y="754" on="0"/>
        <pt x="817" y="794" on="0"/>
        <pt x="768" y="851" on="0"/>
        <pt x="750" y="887" on="1"/>
        <pt x="741" y="887" on="1"/>
        <pt x="720" y="852" on="0"/>
        <pt x="669" y="796" on="0"/>
        <pt x="604" y="755" on="0"/>
        <pt x="525" y="733" on="0"/>
        <pt x="477" y="733" on="1"/>
        <pt x="421" y="733" on="0"/>
        <pt x="328" y="776" on="0"/>
        <pt x="303" y="825" on="1"/>
        <pt x="295" y="825" on="1"/>
        <pt x="295" y="666" on="1"/>
        <pt x="295" y="585" on="0"/>
        <pt x="317" y="473" on="0"/>
        <pt x="362" y="403" on="0"/>
        <pt x="430" y="371" on="0"/>
        <pt x="477" y="371" on="1"/>
        <pt x="516" y="371" on="0"/>
        <pt x="584" y="394" on="0"/>
        <pt x="636" y="451" on="0"/>
        <pt x="666" y="547" on="0"/>
        <pt x="666" y="621" on="1"/>
        <pt x="666" y="684" on="1"/>
        <pt x="825" y="684" on="1"/>
        <pt x="825" y="621" on="1"/>
        <pt x="825" y="547" on="0"/>
        <pt x="855" y="451" on="0"/>
        <pt x="907" y="394" on="0"/>
        <pt x="975" y="371" on="0"/>
        <pt x="1014" y="371" on="1"/>
        <pt x="1060" y="371" on="0"/>
        <pt x="1129" y="403" on="0"/>
        <pt x="1174" y="473" on="0"/>
        <pt x="1196" y="585" on="0"/>
        <pt x="1196" y="666" on="1"/>
        <pt x="1196" y="684" on="1"/>
        <pt x="1356" y="684" on="1"/>
        <pt x="1356" y="668" on="1"/>
        <pt x="1356" y="538" on="0"/>
        <pt x="1310" y="371" on="0"/>
        <pt x="1225" y="274" on="0"/>
        <pt x="1106" y="236" on="0"/>
        <pt x="1034" y="236" on="1"/>
        <pt x="1007" y="236" on="0"/>
        <pt x="946" y="251" on="0"/>
        <pt x="891" y="280" on="0"/>
        <pt x="846" y="320" on="0"/>
        <pt x="834" y="344" on="1"/>
        <pt x="825" y="344" on="1"/>
      </contour>
    </TTGlyph>
    <TTGlyph name="uniA533" xMin="113" yMin="-23" xMax="1573" yMax="1485">
      <contour>
        <pt x="1573" y="352" on="1"/>
        <pt x="1547" y="265" on="0"/>
        <pt x="1461" y="127" on="0"/>
        <pt x="1348" y="29" on="0"/>
        <pt x="1212" y="-23" on="0"/>
        <pt x="1137" y="-23" on="1"/>
        <pt x="1045" y="-23" on="0"/>
        <pt x="898" y="33" on="0"/>
        <pt x="795" y="138" on="0"/>
        <pt x="739" y="288" on="0"/>
        <pt x="739" y="381" on="1"/>
        <pt x="739" y="495" on="0"/>
        <pt x="815" y="751" on="0"/>
        <pt x="883" y="885" on="1"/>
        <pt x="833" y="900" on="0"/>
        <pt x="745" y="981" on="0"/>
        <pt x="723" y="1055" on="1"/>
        <pt x="715" y="1055" on="1"/>
        <pt x="692" y="1002" on="0"/>
        <pt x="628" y="932" on="0"/>
        <pt x="555" y="888" on="0"/>
        <pt x="474" y="870" on="0"/>
        <pt x="434" y="870" on="1"/>
        <pt x="362" y="870" on="0"/>
        <pt x="244" y="914" on="0"/>
        <pt x="159" y="1018" on="0"/>
        <pt x="113" y="1189" on="0"/>
        <pt x="113" y="1317" on="1"/>
        <pt x="113" y="1462" on="1"/>
        <pt x="272" y="1462" on="1"/>
        <pt x="272" y="1317" on="1"/>
        <pt x="272" y="1159" on="0"/>
        <pt x="376" y="1006" on="0"/>
        <pt x="465" y="1006" on="1"/>
        <pt x="499" y="1006" on="0"/>
        <pt x="564" y="1035" on="0"/>
        <pt x="613" y="1099" on="0"/>
        <pt x="643" y="1202" on="0"/>
        <pt x="643" y="1276" on="1"/>
        <pt x="643" y="1462" on="1"/>
        <pt x="803" y="1462" on="1"/>
        <pt x="803" y="1272" on="1"/>
        <pt x="803" y="1210" on="0"/>
        <pt x="825" y="1117" on="0"/>
        <pt x="864" y="1054" on="0"/>
        <pt x="918" y="1017" on="0"/>
        <pt x="950" y="1010" on="1"/>
        <pt x="1018" y="1128" on="0"/>
        <pt x="1183" y="1367" on="0"/>
        <pt x="1274" y="1485" on="1"/>
        <pt x="1405" y="1411" on="1"/>
        <pt x="1304" y="1280" on="0"/>
        <pt x="1120" y="1008" on="0"/>
        <pt x="981" y="742" on="0"/>
        <pt x="899" y="491" on="0"/>
        <pt x="899" y="381" on="1"/>
        <pt x="899" y="320" on="0"/>
        <pt x="932" y="223" on="0"/>
        <pt x="994" y="154" on="0"/>
        <pt x="1082" y="117" on="0"/>
        <pt x="1137" y="117" on="1"/>
        <pt x="1248" y="117" on="0"/>
        <pt x="1398" y="259" on="0"/>
        <pt x="1436" y="387" on="1"/>
      </contour>
      <contour>
        <pt x="1450" y="780" on="1"/>
        <pt x="1450" y="731" on="0"/>
        <pt x="1394" y="678" on="0"/>
        <pt x="1348" y="678" on="1"/>
        <pt x="1298" y="678" on="0"/>
        <pt x="1245" y="731" on="0"/>
        <pt x="1245" y="780" on="1"/>
        <pt x="1245" y="828" on="0"/>
        <pt x="1303" y="883" on="0"/>
        <pt x="1348" y="883" on="1"/>
        <pt x="1393" y="883" on="0"/>
        <pt x="1450" y="828" on="0"/>
      </contour>
      <contour>
        <pt x="1239" y="371" on="1"/>
        <pt x="1239" y="321" on="0"/>
        <pt x="1183" y="268" on="0"/>
        <pt x="1137" y="268" on="1"/>
        <pt x="1087" y="268" on="0"/>
        <pt x="1034" y="321" on="0"/>
        <pt x="1034" y="371" on="1"/>
        <pt x="1034" y="419" on="0"/>
        <pt x="1092" y="473" on="0"/>
        <pt x="1137" y="473" on="1"/>
        <pt x="1182" y="473" on="0"/>
        <pt x="1239" y="419" on="0"/>
      </contour>
    </TTGlyph>
    <TTGlyph name="uniA534" xMin="113" yMin="-23" xMax="1661" yMax="1485">
      <contour>
        <pt x="1573" y="352" on="1"/>
        <pt x="1547" y="265" on="0"/>
        <pt x="1461" y="127" on="0"/>
        <pt x="1348" y="29" on="0"/>
        <pt x="1212" y="-23" on="0"/>
        <pt x="1137" y="-23" on="1"/>
        <pt x="1045" y="-23" on="0"/>
        <pt x="898" y="33" on="0"/>
        <pt x="795" y="138" on="0"/>
        <pt x="739" y="288" on="0"/>
        <pt x="739" y="381" on="1"/>
        <pt x="739" y="495" on="0"/>
        <pt x="815" y="751" on="0"/>
        <pt x="883" y="885" on="1"/>
        <pt x="833" y="900" on="0"/>
        <pt x="745" y="981" on="0"/>
        <pt x="723" y="1055" on="1"/>
        <pt x="715" y="1055" on="1"/>
        <pt x="692" y="1002" on="0"/>
        <pt x="628" y="932" on="0"/>
        <pt x="555" y="888" on="0"/>
        <pt x="474" y="870" on="0"/>
        <pt x="434" y="870" on="1"/>
        <pt x="362" y="870" on="0"/>
        <pt x="244" y="914" on="0"/>
        <pt x="159" y="1018" on="0"/>
        <pt x="113" y="1189" on="0"/>
        <pt x="113" y="1317" on="1"/>
        <pt x="113" y="1462" on="1"/>
        <pt x="272" y="1462" on="1"/>
        <pt x="272" y="1317" on="1"/>
        <pt x="272" y="1159" on="0"/>
        <pt x="376" y="1006" on="0"/>
        <pt x="465" y="1006" on="1"/>
        <pt x="499" y="1006" on="0"/>
        <pt x="564" y="1035" on="0"/>
        <pt x="613" y="1099" on="0"/>
        <pt x="643" y="1202" on="0"/>
        <pt x="643" y="1276" on="1"/>
        <pt x="643" y="1462" on="1"/>
        <pt x="803" y="1462" on="1"/>
        <pt x="803" y="1272" on="1"/>
        <pt x="803" y="1210" on="0"/>
        <pt x="825" y="1117" on="0"/>
        <pt x="864" y="1054" on="0"/>
        <pt x="918" y="1017" on="0"/>
        <pt x="950" y="1010" on="1"/>
        <pt x="1018" y="1128" on="0"/>
        <pt x="1183" y="1367" on="0"/>
        <pt x="1274" y="1485" on="1"/>
        <pt x="1405" y="1411" on="1"/>
        <pt x="1304" y="1280" on="0"/>
        <pt x="1120" y="1008" on="0"/>
        <pt x="981" y="742" on="0"/>
        <pt x="899" y="491" on="0"/>
        <pt x="899" y="381" on="1"/>
        <pt x="899" y="320" on="0"/>
        <pt x="932" y="223" on="0"/>
        <pt x="994" y="154" on="0"/>
        <pt x="1082" y="117" on="0"/>
        <pt x="1137" y="117" on="1"/>
        <pt x="1248" y="117" on="0"/>
        <pt x="1398" y="259" on="0"/>
        <pt x="1436" y="387" on="1"/>
      </contour>
      <contour>
        <pt x="1450" y="780" on="1"/>
        <pt x="1450" y="731" on="0"/>
        <pt x="1394" y="678" on="0"/>
        <pt x="1348" y="678" on="1"/>
        <pt x="1298" y="678" on="0"/>
        <pt x="1245" y="731" on="0"/>
        <pt x="1245" y="780" on="1"/>
        <pt x="1245" y="828" on="0"/>
        <pt x="1303" y="883" on="0"/>
        <pt x="1348" y="883" on="1"/>
        <pt x="1393" y="883" on="0"/>
        <pt x="1450" y="828" on="0"/>
      </contour>
      <contour>
        <pt x="1661" y="1190" on="1"/>
        <pt x="1661" y="1140" on="0"/>
        <pt x="1605" y="1087" on="0"/>
        <pt x="1559" y="1087" on="1"/>
        <pt x="1509" y="1087" on="0"/>
        <pt x="1456" y="1140" on="0"/>
        <pt x="1456" y="1190" on="1"/>
        <pt x="1456" y="1238" on="0"/>
        <pt x="1514" y="1292" on="0"/>
        <pt x="1559" y="1292" on="1"/>
        <pt x="1604" y="1292" on="0"/>
        <pt x="1661" y="1238" on="0"/>
      </contour>
      <contour>
        <pt x="1239" y="371" on="1"/>
        <pt x="1239" y="321" on="0"/>
        <pt x="1183" y="268" on="0"/>
        <pt x="1137" y="268" on="1"/>
        <pt x="1087" y="268" on="0"/>
        <pt x="1034" y="321" on="0"/>
        <pt x="1034" y="371" on="1"/>
        <pt x="1034" y="419" on="0"/>
        <pt x="1092" y="473" on="0"/>
        <pt x="1137" y="473" on="1"/>
        <pt x="1182" y="473" on="0"/>
        <pt x="1239" y="419" on="0"/>
      </contour>
    </TTGlyph>
    <TTGlyph name="uniA535" xMin="227" yMin="0" xMax="1286" yMax="1462">
      <contour>
        <pt x="395" y="819" on="1"/>
        <pt x="447" y="883" on="0"/>
        <pt x="562" y="985" on="0"/>
        <pt x="692" y="1057" on="0"/>
        <pt x="842" y="1096" on="0"/>
        <pt x="930" y="1096" on="1"/>
        <pt x="996" y="1096" on="0"/>
        <pt x="1124" y="1062" on="0"/>
        <pt x="1224" y="979" on="0"/>
        <pt x="1286" y="841" on="0"/>
        <pt x="1286" y="737" on="1"/>
        <pt x="1286" y="670" on="0"/>
        <pt x="1250" y="569" on="0"/>
        <pt x="1188" y="501" on="0"/>
        <pt x="1108" y="467" on="0"/>
        <pt x="1063" y="467" on="1"/>
        <pt x="963" y="467" on="0"/>
        <pt x="844" y="576" on="0"/>
        <pt x="844" y="686" on="1"/>
        <pt x="844" y="731" on="0"/>
        <pt x="873" y="802" on="0"/>
        <pt x="923" y="851" on="0"/>
        <pt x="991" y="877" on="0"/>
        <pt x="1030" y="877" on="1"/>
        <pt x="1058" y="877" on="0"/>
        <pt x="1090" y="867" on="0"/>
        <pt x="1104" y="858" on="1"/>
        <pt x="1110" y="862" on="1"/>
        <pt x="1098" y="884" on="0"/>
        <pt x="1066" y="919" on="0"/>
        <pt x="1019" y="943" on="0"/>
        <pt x="955" y="956" on="0"/>
        <pt x="911" y="956" on="1"/>
        <pt x="825" y="956" on="0"/>
        <pt x="665" y="901" on="0"/>
        <pt x="528" y="812" on="0"/>
        <pt x="420" y="698" on="0"/>
        <pt x="387" y="639" on="1"/>
        <pt x="387" y="0" on="1"/>
        <pt x="227" y="0" on="1"/>
        <pt x="227" y="1462" on="1"/>
        <pt x="387" y="1462" on="1"/>
        <pt x="387" y="819" on="1"/>
      </contour>
      <contour>
        <pt x="1040" y="582" on="1"/>
        <pt x="1082" y="582" on="0"/>
        <pt x="1133" y="639" on="0"/>
        <pt x="1133" y="694" on="1"/>
        <pt x="1133" y="720" on="0"/>
        <pt x="1127" y="758" on="0"/>
        <pt x="1124" y="772" on="1"/>
        <pt x="1116" y="779" on="0"/>
        <pt x="1093" y="789" on="0"/>
        <pt x="1069" y="795" on="0"/>
        <pt x="1047" y="797" on="0"/>
        <pt x="1040" y="797" on="1"/>
        <pt x="1020" y="797" on="0"/>
        <pt x="990" y="777" on="0"/>
        <pt x="969" y="745" on="0"/>
        <pt x="958" y="705" on="0"/>
        <pt x="958" y="684" on="1"/>
        <pt x="958" y="653" on="0"/>
        <pt x="972" y="614" on="0"/>
        <pt x="995" y="591" on="0"/>
        <pt x="1025" y="582" on="0"/>
      </contour>
    </TTGlyph>
    <TTGlyph name="uniA536" xMin="227" yMin="0" xMax="1286" yMax="1462">
      <contour>
        <pt x="752" y="1223" on="1"/>
        <pt x="752" y="1173" on="0"/>
        <pt x="696" y="1120" on="0"/>
        <pt x="649" y="1120" on="1"/>
        <pt x="600" y="1120" on="0"/>
        <pt x="547" y="1173" on="0"/>
        <pt x="547" y="1223" on="1"/>
        <pt x="547" y="1271" on="0"/>
        <pt x="604" y="1325" on="0"/>
        <pt x="649" y="1325" on="1"/>
        <pt x="694" y="1325" on="0"/>
        <pt x="752" y="1271" on="0"/>
      </contour>
      <contour>
        <pt x="752" y="666" on="1"/>
        <pt x="752" y="616" on="0"/>
        <pt x="696" y="563" on="0"/>
        <pt x="649" y="563" on="1"/>
        <pt x="600" y="563" on="0"/>
        <pt x="547" y="616" on="0"/>
        <pt x="547" y="666" on="1"/>
        <pt x="547" y="714" on="0"/>
        <pt x="604" y="768" on="0"/>
        <pt x="649" y="768" on="1"/>
        <pt x="694" y="768" on="0"/>
        <pt x="752" y="714" on="0"/>
      </contour>
      <contour>
        <pt x="395" y="819" on="1"/>
        <pt x="447" y="883" on="0"/>
        <pt x="562" y="985" on="0"/>
        <pt x="692" y="1057" on="0"/>
        <pt x="842" y="1096" on="0"/>
        <pt x="930" y="1096" on="1"/>
        <pt x="996" y="1096" on="0"/>
        <pt x="1124" y="1062" on="0"/>
        <pt x="1224" y="979" on="0"/>
        <pt x="1286" y="841" on="0"/>
        <pt x="1286" y="737" on="1"/>
        <pt x="1286" y="670" on="0"/>
        <pt x="1250" y="569" on="0"/>
        <pt x="1188" y="501" on="0"/>
        <pt x="1108" y="467" on="0"/>
        <pt x="1063" y="467" on="1"/>
        <pt x="963" y="467" on="0"/>
        <pt x="844" y="576" on="0"/>
        <pt x="844" y="686" on="1"/>
        <pt x="844" y="731" on="0"/>
        <pt x="873" y="802" on="0"/>
        <pt x="923" y="851" on="0"/>
        <pt x="991" y="877" on="0"/>
        <pt x="1030" y="877" on="1"/>
        <pt x="1058" y="877" on="0"/>
        <pt x="1090" y="867" on="0"/>
        <pt x="1104" y="858" on="1"/>
        <pt x="1110" y="862" on="1"/>
        <pt x="1098" y="885" on="0"/>
        <pt x="1066" y="920" on="0"/>
        <pt x="1019" y="944" on="0"/>
        <pt x="955" y="956" on="0"/>
        <pt x="911" y="956" on="1"/>
        <pt x="825" y="956" on="0"/>
        <pt x="665" y="901" on="0"/>
        <pt x="528" y="812" on="0"/>
        <pt x="420" y="698" on="0"/>
        <pt x="387" y="639" on="1"/>
        <pt x="387" y="0" on="1"/>
        <pt x="227" y="0" on="1"/>
        <pt x="227" y="1462" on="1"/>
        <pt x="387" y="1462" on="1"/>
        <pt x="387" y="819" on="1"/>
      </contour>
      <contour>
        <pt x="1040" y="582" on="1"/>
        <pt x="1082" y="582" on="0"/>
        <pt x="1133" y="639" on="0"/>
        <pt x="1133" y="694" on="1"/>
        <pt x="1133" y="720" on="0"/>
        <pt x="1127" y="758" on="0"/>
        <pt x="1124" y="772" on="1"/>
        <pt x="1116" y="779" on="0"/>
        <pt x="1093" y="789" on="0"/>
        <pt x="1069" y="795" on="0"/>
        <pt x="1047" y="797" on="0"/>
        <pt x="1040" y="797" on="1"/>
        <pt x="1020" y="797" on="0"/>
        <pt x="990" y="777" on="0"/>
        <pt x="969" y="745" on="0"/>
        <pt x="958" y="705" on="0"/>
        <pt x="958" y="684" on="1"/>
        <pt x="958" y="653" on="0"/>
        <pt x="972" y="614" on="0"/>
        <pt x="995" y="591" on="0"/>
        <pt x="1025" y="582" on="0"/>
      </contour>
    </TTGlyph>
    <TTGlyph name="uniA537" xMin="154" yMin="481" xMax="735" yMax="1061">
      <contour>
        <pt x="735" y="770" on="1"/>
        <pt x="735" y="701" on="0"/>
        <pt x="693" y="593" on="0"/>
        <pt x="616" y="520" on="0"/>
        <pt x="509" y="481" on="0"/>
        <pt x="444" y="481" on="1"/>
        <pt x="305" y="481" on="0"/>
        <pt x="154" y="631" on="0"/>
        <pt x="154" y="770" on="1"/>
        <pt x="154" y="837" on="0"/>
        <pt x="197" y="945" on="0"/>
        <pt x="274" y="1021" on="0"/>
        <pt x="380" y="1061" on="0"/>
        <pt x="444" y="1061" on="1"/>
        <pt x="507" y="1061" on="0"/>
        <pt x="614" y="1021" on="0"/>
        <pt x="691" y="945" on="0"/>
        <pt x="735" y="837" on="0"/>
      </contour>
    </TTGlyph>
    <TTGlyph name="uniA538" xMin="14" yMin="-332" xMax="870" yMax="1061">
      <contour>
        <pt x="735" y="770" on="1"/>
        <pt x="735" y="701" on="0"/>
        <pt x="693" y="593" on="0"/>
        <pt x="616" y="520" on="0"/>
        <pt x="509" y="481" on="0"/>
        <pt x="444" y="481" on="1"/>
        <pt x="305" y="481" on="0"/>
        <pt x="154" y="631" on="0"/>
        <pt x="154" y="770" on="1"/>
        <pt x="154" y="837" on="0"/>
        <pt x="197" y="945" on="0"/>
        <pt x="274" y="1021" on="0"/>
        <pt x="380" y="1061" on="0"/>
        <pt x="444" y="1061" on="1"/>
        <pt x="507" y="1061" on="0"/>
        <pt x="614" y="1021" on="0"/>
        <pt x="691" y="945" on="0"/>
        <pt x="735" y="837" on="0"/>
      </contour>
      <contour>
        <pt x="262" y="-233" on="1"/>
        <pt x="215" y="-233" on="0"/>
        <pt x="140" y="-272" on="0"/>
        <pt x="109" y="-332" on="1"/>
        <pt x="14" y="-276" on="1"/>
        <pt x="53" y="-179" on="0"/>
        <pt x="173" y="-90" on="0"/>
        <pt x="270" y="-90" on="1"/>
        <pt x="315" y="-90" on="0"/>
        <pt x="413" y="-114" on="0"/>
        <pt x="506" y="-142" on="0"/>
        <pt x="591" y="-166" on="0"/>
        <pt x="623" y="-166" on="1"/>
        <pt x="670" y="-166" on="0"/>
        <pt x="745" y="-127" on="0"/>
        <pt x="776" y="-68" on="1"/>
        <pt x="870" y="-123" on="1"/>
        <pt x="832" y="-220" on="0"/>
        <pt x="711" y="-309" on="0"/>
        <pt x="614" y="-309" on="1"/>
        <pt x="571" y="-309" on="0"/>
        <pt x="476" y="-285" on="0"/>
        <pt x="382" y="-257" on="0"/>
        <pt x="296" y="-233" on="0"/>
      </contour>
    </TTGlyph>
    <TTGlyph name="uniA539" xMin="68" yMin="481" xMax="1194" yMax="1061">
      <contour>
        <pt x="918" y="770" on="1"/>
        <pt x="918" y="701" on="0"/>
        <pt x="876" y="593" on="0"/>
        <pt x="799" y="520" on="0"/>
        <pt x="692" y="481" on="0"/>
        <pt x="627" y="481" on="1"/>
        <pt x="487" y="481" on="0"/>
        <pt x="336" y="631" on="0"/>
        <pt x="336" y="770" on="1"/>
        <pt x="336" y="837" on="0"/>
        <pt x="379" y="945" on="0"/>
        <pt x="456" y="1021" on="0"/>
        <pt x="563" y="1061" on="0"/>
        <pt x="627" y="1061" on="1"/>
        <pt x="690" y="1061" on="0"/>
        <pt x="797" y="1021" on="0"/>
        <pt x="874" y="945" on="0"/>
        <pt x="918" y="837" on="0"/>
      </contour>
      <contour>
        <pt x="170" y="881" on="1"/>
        <pt x="220" y="881" on="0"/>
        <pt x="272" y="825" on="0"/>
        <pt x="272" y="778" on="1"/>
        <pt x="272" y="729" on="0"/>
        <pt x="220" y="676" on="0"/>
        <pt x="170" y="676" on="1"/>
        <pt x="122" y="676" on="0"/>
        <pt x="68" y="733" on="0"/>
        <pt x="68" y="778" on="1"/>
        <pt x="68" y="823" on="0"/>
        <pt x="122" y="881" on="0"/>
      </contour>
      <contour>
        <pt x="1092" y="881" on="1"/>
        <pt x="1141" y="881" on="0"/>
        <pt x="1194" y="825" on="0"/>
        <pt x="1194" y="778" on="1"/>
        <pt x="1194" y="729" on="0"/>
        <pt x="1141" y="676" on="0"/>
        <pt x="1092" y="676" on="1"/>
        <pt x="1044" y="676" on="0"/>
        <pt x="989" y="733" on="0"/>
        <pt x="989" y="778" on="1"/>
        <pt x="989" y="823" on="0"/>
        <pt x="1044" y="881" on="0"/>
      </contour>
    </TTGlyph>
    <TTGlyph name="uniA53A" xMin="90" yMin="-23" xMax="1763" yMax="1485">
      <contour>
        <pt x="1059" y="457" on="1"/>
        <pt x="1059" y="409" on="0"/>
        <pt x="1027" y="342" on="0"/>
        <pt x="990" y="289" on="0"/>
        <pt x="958" y="246" on="0"/>
        <pt x="958" y="223" on="1"/>
        <pt x="958" y="191" on="0"/>
        <pt x="1020" y="139" on="0"/>
        <pt x="1079" y="104" on="1"/>
        <pt x="975" y="-23" on="1"/>
        <pt x="934" y="-4" on="0"/>
        <pt x="860" y="37" on="0"/>
        <pt x="805" y="87" on="0"/>
        <pt x="772" y="146" on="0"/>
        <pt x="772" y="182" on="1"/>
        <pt x="772" y="226" on="0"/>
        <pt x="810" y="293" on="0"/>
        <pt x="857" y="351" on="0"/>
        <pt x="895" y="405" on="0"/>
        <pt x="895" y="436" on="1"/>
        <pt x="895" y="462" on="0"/>
        <pt x="880" y="509" on="0"/>
        <pt x="858" y="557" on="0"/>
        <pt x="834" y="608" on="0"/>
        <pt x="825" y="639" on="1"/>
        <pt x="772" y="656" on="0"/>
        <pt x="681" y="735" on="0"/>
        <pt x="659" y="809" on="1"/>
        <pt x="651" y="809" on="1"/>
        <pt x="628" y="757" on="0"/>
        <pt x="565" y="686" on="0"/>
        <pt x="495" y="643" on="0"/>
        <pt x="423" y="625" on="0"/>
        <pt x="391" y="625" on="1"/>
        <pt x="317" y="625" on="0"/>
        <pt x="207" y="663" on="0"/>
        <pt x="134" y="753" on="0"/>
        <pt x="94" y="901" on="0"/>
        <pt x="90" y="1012" on="1"/>
        <pt x="250" y="1012" on="1"/>
        <pt x="253" y="890" on="0"/>
        <pt x="333" y="760" on="0"/>
        <pt x="412" y="760" on="1"/>
        <pt x="449" y="760" on="0"/>
        <pt x="509" y="787" on="0"/>
        <pt x="553" y="847" on="0"/>
        <pt x="578" y="943" on="0"/>
        <pt x="580" y="1012" on="1"/>
        <pt x="739" y="1012" on="1"/>
        <pt x="739" y="925" on="0"/>
        <pt x="782" y="818" on="0"/>
        <pt x="817" y="791" on="1"/>
        <pt x="824" y="828" on="0"/>
        <pt x="850" y="885" on="0"/>
        <pt x="876" y="938" on="0"/>
        <pt x="895" y="991" on="0"/>
        <pt x="895" y="1026" on="1"/>
        <pt x="895" y="1053" on="0"/>
        <pt x="878" y="1094" on="0"/>
        <pt x="853" y="1128" on="0"/>
        <pt x="824" y="1159" on="0"/>
        <pt x="799" y="1194" on="0"/>
        <pt x="782" y="1238" on="0"/>
        <pt x="782" y="1268" on="1"/>
        <pt x="782" y="1303" on="0"/>
        <pt x="811" y="1369" on="0"/>
        <pt x="862" y="1425" on="0"/>
        <pt x="934" y="1470" on="0"/>
        <pt x="977" y="1485" on="1"/>
        <pt x="1067" y="1384" on="1"/>
        <pt x="1044" y="1373" on="0"/>
        <pt x="1001" y="1350" on="0"/>
        <pt x="967" y="1324" on="0"/>
        <pt x="946" y="1296" on="0"/>
        <pt x="946" y="1280" on="1"/>
        <pt x="946" y="1252" on="0"/>
        <pt x="981" y="1211" on="0"/>
        <pt x="1024" y="1162" on="0"/>
        <pt x="1059" y="1094" on="0"/>
        <pt x="1059" y="1040" on="1"/>
        <pt x="1059" y="991" on="0"/>
        <pt x="1026" y="916" on="0"/>
        <pt x="984" y="853" on="0"/>
        <pt x="945" y="794" on="0"/>
        <pt x="938" y="760" on="1"/>
        <pt x="976" y="761" on="0"/>
        <pt x="1040" y="791" on="0"/>
        <pt x="1086" y="851" on="0"/>
        <pt x="1114" y="945" on="0"/>
        <pt x="1116" y="1012" on="1"/>
        <pt x="1276" y="1012" on="1"/>
        <pt x="1277" y="943" on="0"/>
        <pt x="1306" y="847" on="0"/>
        <pt x="1351" y="787" on="0"/>
        <pt x="1411" y="760" on="0"/>
        <pt x="1444" y="760" on="1"/>
        <pt x="1530" y="760" on="0"/>
        <pt x="1599" y="883" on="0"/>
        <pt x="1604" y="1012" on="1"/>
        <pt x="1763" y="1012" on="1"/>
        <pt x="1758" y="901" on="0"/>
        <pt x="1714" y="753" on="0"/>
        <pt x="1638" y="663" on="0"/>
        <pt x="1532" y="625" on="0"/>
        <pt x="1464" y="625" on="1"/>
        <pt x="1432" y="625" on="0"/>
        <pt x="1356" y="643" on="0"/>
        <pt x="1283" y="686" on="0"/>
        <pt x="1217" y="757" on="0"/>
        <pt x="1194" y="809" on="1"/>
        <pt x="1186" y="809" on="1"/>
        <pt x="1171" y="764" on="0"/>
        <pt x="1127" y="699" on="0"/>
        <pt x="1073" y="657" on="0"/>
        <pt x="1011" y="633" on="0"/>
        <pt x="979" y="629" on="1"/>
        <pt x="994" y="613" on="0"/>
        <pt x="1022" y="579" on="0"/>
        <pt x="1045" y="538" on="0"/>
        <pt x="1059" y="488" on="0"/>
      </contour>
    </TTGlyph>
    <TTGlyph name="uniA53B" xMin="158" yMin="-20" xMax="1473" yMax="1485">
      <contour>
        <pt x="696" y="1094" on="1"/>
        <pt x="696" y="1160" on="0"/>
        <pt x="667" y="1255" on="0"/>
        <pt x="616" y="1317" on="0"/>
        <pt x="548" y="1346" on="0"/>
        <pt x="510" y="1346" on="1"/>
        <pt x="473" y="1346" on="0"/>
        <pt x="407" y="1317" on="0"/>
        <pt x="356" y="1255" on="0"/>
        <pt x="326" y="1160" on="0"/>
        <pt x="326" y="1094" on="1"/>
        <pt x="326" y="1028" on="0"/>
        <pt x="353" y="922" on="0"/>
        <pt x="402" y="847" on="0"/>
        <pt x="470" y="807" on="0"/>
        <pt x="510" y="807" on="1"/>
        <pt x="550" y="807" on="0"/>
        <pt x="618" y="847" on="0"/>
        <pt x="668" y="922" on="0"/>
        <pt x="696" y="1028" on="0"/>
      </contour>
      <contour>
        <pt x="705" y="375" on="1"/>
        <pt x="705" y="444" on="0"/>
        <pt x="674" y="555" on="0"/>
        <pt x="621" y="632" on="0"/>
        <pt x="550" y="674" on="0"/>
        <pt x="510" y="674" on="1"/>
        <pt x="471" y="674" on="0"/>
        <pt x="401" y="632" on="0"/>
        <pt x="348" y="555" on="0"/>
        <pt x="317" y="444" on="0"/>
        <pt x="317" y="375" on="1"/>
        <pt x="317" y="306" on="0"/>
        <pt x="345" y="208" on="0"/>
        <pt x="396" y="147" on="0"/>
        <pt x="467" y="119" on="0"/>
        <pt x="510" y="119" on="1"/>
        <pt x="552" y="119" on="0"/>
        <pt x="624" y="147" on="0"/>
        <pt x="676" y="208" on="0"/>
        <pt x="705" y="306" on="0"/>
      </contour>
      <contour>
        <pt x="1313" y="995" on="1"/>
        <pt x="1473" y="995" on="1"/>
        <pt x="1473" y="500" on="1"/>
        <pt x="1313" y="500" on="1"/>
      </contour>
      <contour>
        <pt x="864" y="375" on="1"/>
        <pt x="864" y="273" on="0"/>
        <pt x="805" y="124" on="0"/>
        <pt x="707" y="27" on="0"/>
        <pt x="579" y="-20" on="0"/>
        <pt x="510" y="-20" on="1"/>
        <pt x="440" y="-20" on="0"/>
        <pt x="313" y="27" on="0"/>
        <pt x="216" y="124" on="0"/>
        <pt x="158" y="273" on="0"/>
        <pt x="158" y="375" on="1"/>
        <pt x="158" y="443" on="0"/>
        <pt x="197" y="559" on="0"/>
        <pt x="260" y="650" on="0"/>
        <pt x="342" y="714" on="0"/>
        <pt x="385" y="731" on="1"/>
        <pt x="385" y="739" on="1"/>
        <pt x="341" y="754" on="0"/>
        <pt x="262" y="821" on="0"/>
        <pt x="202" y="914" on="0"/>
        <pt x="166" y="1029" on="0"/>
        <pt x="166" y="1094" on="1"/>
        <pt x="166" y="1194" on="0"/>
        <pt x="226" y="1341" on="0"/>
        <pt x="324" y="1438" on="0"/>
        <pt x="447" y="1485" on="0"/>
        <pt x="510" y="1485" on="1"/>
        <pt x="575" y="1485" on="0"/>
        <pt x="700" y="1438" on="0"/>
        <pt x="797" y="1341" on="0"/>
        <pt x="856" y="1194" on="0"/>
        <pt x="856" y="1094" on="1"/>
        <pt x="856" y="1041" on="0"/>
        <pt x="824" y="944" on="0"/>
        <pt x="776" y="865" on="0"/>
        <pt x="719" y="811" on="0"/>
        <pt x="694" y="801" on="1"/>
        <pt x="696" y="793" on="1"/>
        <pt x="752" y="804" on="0"/>
        <pt x="918" y="811" on="0"/>
        <pt x="1020" y="811" on="1"/>
        <pt x="1049" y="811" on="1"/>
        <pt x="1049" y="995" on="1"/>
        <pt x="1208" y="995" on="1"/>
        <pt x="1208" y="500" on="1"/>
        <pt x="1049" y="500" on="1"/>
        <pt x="1049" y="672" on="1"/>
        <pt x="1020" y="672" on="1"/>
        <pt x="969" y="672" on="0"/>
        <pt x="875" y="673" on="0"/>
        <pt x="791" y="677" on="0"/>
        <pt x="721" y="684" on="0"/>
        <pt x="696" y="690" on="1"/>
        <pt x="694" y="682" on="1"/>
        <pt x="719" y="672" on="0"/>
        <pt x="778" y="620" on="0"/>
        <pt x="829" y="540" on="0"/>
        <pt x="864" y="436" on="0"/>
      </contour>
    </TTGlyph>
    <TTGlyph name="uniA53C" xMin="158" yMin="-20" xMax="1616" yMax="1485">
      <contour>
        <pt x="696" y="1094" on="1"/>
        <pt x="696" y="1160" on="0"/>
        <pt x="667" y="1255" on="0"/>
        <pt x="616" y="1317" on="0"/>
        <pt x="548" y="1346" on="0"/>
        <pt x="510" y="1346" on="1"/>
        <pt x="473" y="1346" on="0"/>
        <pt x="407" y="1317" on="0"/>
        <pt x="356" y="1255" on="0"/>
        <pt x="326" y="1160" on="0"/>
        <pt x="326" y="1094" on="1"/>
        <pt x="326" y="1028" on="0"/>
        <pt x="353" y="922" on="0"/>
        <pt x="402" y="847" on="0"/>
        <pt x="470" y="807" on="0"/>
        <pt x="510" y="807" on="1"/>
        <pt x="550" y="807" on="0"/>
        <pt x="618" y="847" on="0"/>
        <pt x="668" y="922" on="0"/>
        <pt x="696" y="1028" on="0"/>
      </contour>
      <contour>
        <pt x="705" y="375" on="1"/>
        <pt x="705" y="444" on="0"/>
        <pt x="674" y="555" on="0"/>
        <pt x="621" y="632" on="0"/>
        <pt x="550" y="674" on="0"/>
        <pt x="510" y="674" on="1"/>
        <pt x="471" y="674" on="0"/>
        <pt x="401" y="632" on="0"/>
        <pt x="348" y="555" on="0"/>
        <pt x="317" y="444" on="0"/>
        <pt x="317" y="375" on="1"/>
        <pt x="317" y="306" on="0"/>
        <pt x="345" y="208" on="0"/>
        <pt x="396" y="147" on="0"/>
        <pt x="467" y="119" on="0"/>
        <pt x="510" y="119" on="1"/>
        <pt x="552" y="119" on="0"/>
        <pt x="624" y="147" on="0"/>
        <pt x="676" y="208" on="0"/>
        <pt x="705" y="306" on="0"/>
      </contour>
      <contour>
        <pt x="1456" y="995" on="1"/>
        <pt x="1616" y="995" on="1"/>
        <pt x="1616" y="500" on="1"/>
        <pt x="1456" y="500" on="1"/>
      </contour>
      <contour>
        <pt x="1122" y="1067" on="1"/>
        <pt x="1122" y="1017" on="0"/>
        <pt x="1066" y="965" on="0"/>
        <pt x="1020" y="965" on="1"/>
        <pt x="970" y="965" on="0"/>
        <pt x="918" y="1017" on="0"/>
        <pt x="918" y="1067" on="1"/>
        <pt x="918" y="1115" on="0"/>
        <pt x="975" y="1169" on="0"/>
        <pt x="1020" y="1169" on="1"/>
        <pt x="1065" y="1169" on="0"/>
        <pt x="1122" y="1115" on="0"/>
      </contour>
      <contour>
        <pt x="1122" y="416" on="1"/>
        <pt x="1122" y="366" on="0"/>
        <pt x="1066" y="313" on="0"/>
        <pt x="1020" y="313" on="1"/>
        <pt x="970" y="313" on="0"/>
        <pt x="918" y="366" on="0"/>
        <pt x="918" y="416" on="1"/>
        <pt x="918" y="464" on="0"/>
        <pt x="975" y="518" on="0"/>
        <pt x="1020" y="518" on="1"/>
        <pt x="1065" y="518" on="0"/>
        <pt x="1122" y="464" on="0"/>
      </contour>
      <contour>
        <pt x="864" y="375" on="1"/>
        <pt x="864" y="273" on="0"/>
        <pt x="805" y="124" on="0"/>
        <pt x="707" y="27" on="0"/>
        <pt x="579" y="-20" on="0"/>
        <pt x="510" y="-20" on="1"/>
        <pt x="440" y="-20" on="0"/>
        <pt x="313" y="27" on="0"/>
        <pt x="216" y="124" on="0"/>
        <pt x="158" y="273" on="0"/>
        <pt x="158" y="375" on="1"/>
        <pt x="158" y="443" on="0"/>
        <pt x="197" y="559" on="0"/>
        <pt x="260" y="650" on="0"/>
        <pt x="342" y="714" on="0"/>
        <pt x="385" y="731" on="1"/>
        <pt x="385" y="739" on="1"/>
        <pt x="341" y="754" on="0"/>
        <pt x="262" y="821" on="0"/>
        <pt x="202" y="914" on="0"/>
        <pt x="166" y="1029" on="0"/>
        <pt x="166" y="1094" on="1"/>
        <pt x="166" y="1194" on="0"/>
        <pt x="226" y="1341" on="0"/>
        <pt x="324" y="1438" on="0"/>
        <pt x="447" y="1485" on="0"/>
        <pt x="510" y="1485" on="1"/>
        <pt x="575" y="1485" on="0"/>
        <pt x="700" y="1438" on="0"/>
        <pt x="797" y="1341" on="0"/>
        <pt x="856" y="1194" on="0"/>
        <pt x="856" y="1094" on="1"/>
        <pt x="856" y="1041" on="0"/>
        <pt x="824" y="944" on="0"/>
        <pt x="776" y="865" on="0"/>
        <pt x="719" y="811" on="0"/>
        <pt x="694" y="801" on="1"/>
        <pt x="696" y="793" on="1"/>
        <pt x="752" y="804" on="0"/>
        <pt x="918" y="811" on="0"/>
        <pt x="1020" y="811" on="1"/>
        <pt x="1192" y="811" on="1"/>
        <pt x="1192" y="995" on="1"/>
        <pt x="1352" y="995" on="1"/>
        <pt x="1352" y="500" on="1"/>
        <pt x="1192" y="500" on="1"/>
        <pt x="1192" y="672" on="1"/>
        <pt x="1020" y="672" on="1"/>
        <pt x="969" y="672" on="0"/>
        <pt x="875" y="673" on="0"/>
        <pt x="791" y="677" on="0"/>
        <pt x="721" y="684" on="0"/>
        <pt x="696" y="690" on="1"/>
        <pt x="694" y="682" on="1"/>
        <pt x="719" y="672" on="0"/>
        <pt x="778" y="620" on="0"/>
        <pt x="829" y="540" on="0"/>
        <pt x="864" y="436" on="0"/>
      </contour>
    </TTGlyph>
    <TTGlyph name="uniA53D" xMin="68" yMin="-20" xMax="1284" yMax="1483">
      <contour>
        <pt x="1217" y="-20" on="1"/>
        <pt x="358" y="375" on="1"/>
        <pt x="952" y="750" on="1"/>
        <pt x="367" y="1094" on="1"/>
        <pt x="1217" y="1483" on="1"/>
        <pt x="1282" y="1356" on="1"/>
        <pt x="700" y="1079" on="1"/>
        <pt x="1249" y="752" on="1"/>
        <pt x="674" y="403" on="1"/>
        <pt x="1284" y="106" on="1"/>
      </contour>
      <contour>
        <pt x="518" y="748" on="1"/>
        <pt x="518" y="695" on="0"/>
        <pt x="484" y="614" on="0"/>
        <pt x="423" y="557" on="0"/>
        <pt x="340" y="528" on="0"/>
        <pt x="291" y="528" on="1"/>
        <pt x="241" y="528" on="0"/>
        <pt x="159" y="557" on="0"/>
        <pt x="100" y="613" on="0"/>
        <pt x="68" y="694" on="0"/>
        <pt x="68" y="745" on="1"/>
        <pt x="68" y="796" on="0"/>
        <pt x="100" y="876" on="0"/>
        <pt x="159" y="932" on="0"/>
        <pt x="241" y="961" on="0"/>
        <pt x="291" y="961" on="1"/>
        <pt x="339" y="961" on="0"/>
        <pt x="422" y="932" on="0"/>
        <pt x="483" y="877" on="0"/>
        <pt x="518" y="798" on="0"/>
      </contour>
      <contour>
        <pt x="393" y="745" on="1"/>
        <pt x="393" y="793" on="0"/>
        <pt x="336" y="848" on="0"/>
        <pt x="291" y="848" on="1"/>
        <pt x="246" y="848" on="0"/>
        <pt x="188" y="793" on="0"/>
        <pt x="188" y="745" on="1"/>
        <pt x="188" y="696" on="0"/>
        <pt x="241" y="643" on="0"/>
        <pt x="291" y="643" on="1"/>
        <pt x="337" y="643" on="0"/>
        <pt x="393" y="696" on="0"/>
      </contour>
    </TTGlyph>
    <TTGlyph name="uniA53E" xMin="68" yMin="-20" xMax="1516" yMax="1483">
      <contour>
        <pt x="1217" y="-20" on="1"/>
        <pt x="358" y="375" on="1"/>
        <pt x="952" y="750" on="1"/>
        <pt x="367" y="1094" on="1"/>
        <pt x="1217" y="1483" on="1"/>
        <pt x="1282" y="1356" on="1"/>
        <pt x="700" y="1079" on="1"/>
        <pt x="1249" y="752" on="1"/>
        <pt x="674" y="403" on="1"/>
        <pt x="1284" y="106" on="1"/>
      </contour>
      <contour>
        <pt x="518" y="748" on="1"/>
        <pt x="518" y="695" on="0"/>
        <pt x="484" y="614" on="0"/>
        <pt x="423" y="557" on="0"/>
        <pt x="340" y="528" on="0"/>
        <pt x="291" y="528" on="1"/>
        <pt x="241" y="528" on="0"/>
        <pt x="159" y="557" on="0"/>
        <pt x="100" y="613" on="0"/>
        <pt x="68" y="694" on="0"/>
        <pt x="68" y="745" on="1"/>
        <pt x="68" y="796" on="0"/>
        <pt x="100" y="876" on="0"/>
        <pt x="159" y="932" on="0"/>
        <pt x="241" y="961" on="0"/>
        <pt x="291" y="961" on="1"/>
        <pt x="339" y="961" on="0"/>
        <pt x="422" y="932" on="0"/>
        <pt x="483" y="877" on="0"/>
        <pt x="518" y="798" on="0"/>
      </contour>
      <contour>
        <pt x="393" y="745" on="1"/>
        <pt x="393" y="793" on="0"/>
        <pt x="336" y="848" on="0"/>
        <pt x="291" y="848" on="1"/>
        <pt x="246" y="848" on="0"/>
        <pt x="188" y="793" on="0"/>
        <pt x="188" y="745" on="1"/>
        <pt x="188" y="696" on="0"/>
        <pt x="241" y="643" on="0"/>
        <pt x="291" y="643" on="1"/>
        <pt x="337" y="643" on="0"/>
        <pt x="393" y="696" on="0"/>
      </contour>
      <contour>
        <pt x="1516" y="745" on="1"/>
        <pt x="1516" y="696" on="0"/>
        <pt x="1460" y="643" on="0"/>
        <pt x="1413" y="643" on="1"/>
        <pt x="1364" y="643" on="0"/>
        <pt x="1311" y="696" on="0"/>
        <pt x="1311" y="745" on="1"/>
        <pt x="1311" y="793" on="0"/>
        <pt x="1368" y="848" on="0"/>
        <pt x="1413" y="848" on="1"/>
        <pt x="1458" y="848" on="0"/>
        <pt x="1516" y="793" on="0"/>
      </contour>
    </TTGlyph>
    <TTGlyph name="uniA53F" xMin="158" yMin="-20" xMax="1174" yMax="1462">
      <contour>
        <pt x="1174" y="1462" on="1"/>
        <pt x="1174" y="1321" on="1"/>
        <pt x="541" y="1321" on="1"/>
        <pt x="524" y="1296" on="0"/>
        <pt x="493" y="1244" on="0"/>
        <pt x="479" y="1217" on="1"/>
        <pt x="1010" y="1217" on="1"/>
        <pt x="1010" y="1075" on="1"/>
        <pt x="416" y="1075" on="1"/>
        <pt x="381" y="978" on="0"/>
        <pt x="335" y="749" on="0"/>
        <pt x="324" y="608" on="1"/>
        <pt x="330" y="606" on="1"/>
        <pt x="375" y="654" on="0"/>
        <pt x="503" y="721" on="0"/>
        <pt x="582" y="721" on="1"/>
        <pt x="647" y="721" on="0"/>
        <pt x="765" y="676" on="0"/>
        <pt x="854" y="585" on="0"/>
        <pt x="907" y="450" on="0"/>
        <pt x="907" y="360" on="1"/>
        <pt x="907" y="271" on="0"/>
        <pt x="841" y="130" on="0"/>
        <pt x="729" y="32" on="0"/>
        <pt x="580" y="-20" on="0"/>
        <pt x="496" y="-20" on="1"/>
        <pt x="432" y="-20" on="0"/>
        <pt x="311" y="23" on="0"/>
        <pt x="216" y="117" on="0"/>
        <pt x="158" y="266" on="0"/>
        <pt x="158" y="371" on="1"/>
        <pt x="158" y="584" on="0"/>
        <pt x="210" y="925" on="0"/>
        <pt x="297" y="1193" on="0"/>
        <pt x="411" y="1392" on="0"/>
        <pt x="473" y="1462" on="1"/>
      </contour>
      <contour>
        <pt x="317" y="461" on="1"/>
        <pt x="317" y="408" on="0"/>
        <pt x="327" y="286" on="0"/>
        <pt x="368" y="183" on="0"/>
        <pt x="450" y="115" on="0"/>
        <pt x="522" y="115" on="1"/>
        <pt x="566" y="115" on="0"/>
        <pt x="648" y="150" on="0"/>
        <pt x="712" y="214" on="0"/>
        <pt x="750" y="304" on="0"/>
        <pt x="750" y="360" on="1"/>
        <pt x="750" y="401" on="0"/>
        <pt x="728" y="482" on="0"/>
        <pt x="680" y="546" on="0"/>
        <pt x="603" y="586" on="0"/>
        <pt x="547" y="586" on="1"/>
        <pt x="505" y="586" on="0"/>
        <pt x="436" y="565" on="0"/>
        <pt x="379" y="531" on="0"/>
        <pt x="334" y="485" on="0"/>
      </contour>
    </TTGlyph>
    <TTGlyph name="uniA540" xMin="68" yMin="543" xMax="1788" yMax="1012">
      <contour>
        <pt x="1454" y="543" on="1"/>
        <pt x="1422" y="543" on="0"/>
        <pt x="1346" y="561" on="0"/>
        <pt x="1273" y="604" on="0"/>
        <pt x="1207" y="675" on="0"/>
        <pt x="1184" y="727" on="1"/>
        <pt x="1176" y="727" on="1"/>
        <pt x="1156" y="673" on="0"/>
        <pt x="1099" y="602" on="0"/>
        <pt x="1032" y="560" on="0"/>
        <pt x="957" y="543" on="0"/>
        <pt x="918" y="543" on="1"/>
        <pt x="879" y="543" on="0"/>
        <pt x="797" y="560" on="0"/>
        <pt x="724" y="602" on="0"/>
        <pt x="665" y="673" on="0"/>
        <pt x="649" y="727" on="1"/>
        <pt x="641" y="727" on="1"/>
        <pt x="618" y="675" on="0"/>
        <pt x="555" y="604" on="0"/>
        <pt x="485" y="561" on="0"/>
        <pt x="413" y="543" on="0"/>
        <pt x="381" y="543" on="1"/>
        <pt x="329" y="543" on="0"/>
        <pt x="233" y="583" on="0"/>
        <pt x="152" y="653" on="0"/>
        <pt x="89" y="750" on="0"/>
        <pt x="68" y="807" on="1"/>
        <pt x="193" y="870" on="1"/>
        <pt x="203" y="839" on="0"/>
        <pt x="244" y="775" on="0"/>
        <pt x="299" y="722" on="0"/>
        <pt x="365" y="688" on="0"/>
        <pt x="401" y="688" on="1"/>
        <pt x="440" y="688" on="0"/>
        <pt x="502" y="714" on="0"/>
        <pt x="545" y="775" on="0"/>
        <pt x="569" y="874" on="0"/>
        <pt x="569" y="948" on="1"/>
        <pt x="569" y="1012" on="1"/>
        <pt x="729" y="1012" on="1"/>
        <pt x="729" y="948" on="1"/>
        <pt x="729" y="874" on="0"/>
        <pt x="756" y="772" on="0"/>
        <pt x="805" y="707" on="0"/>
        <pt x="875" y="678" on="0"/>
        <pt x="918" y="678" on="1"/>
        <pt x="961" y="678" on="0"/>
        <pt x="1030" y="707" on="0"/>
        <pt x="1079" y="772" on="0"/>
        <pt x="1106" y="874" on="0"/>
        <pt x="1106" y="948" on="1"/>
        <pt x="1106" y="1012" on="1"/>
        <pt x="1266" y="1012" on="1"/>
        <pt x="1266" y="948" on="1"/>
        <pt x="1266" y="874" on="0"/>
        <pt x="1299" y="775" on="0"/>
        <pt x="1353" y="714" on="0"/>
        <pt x="1420" y="688" on="0"/>
        <pt x="1454" y="688" on="1"/>
        <pt x="1490" y="688" on="0"/>
        <pt x="1556" y="722" on="0"/>
        <pt x="1611" y="775" on="0"/>
        <pt x="1652" y="839" on="0"/>
        <pt x="1663" y="870" on="1"/>
        <pt x="1788" y="807" on="1"/>
        <pt x="1767" y="750" on="0"/>
        <pt x="1701" y="653" on="0"/>
        <pt x="1615" y="583" on="0"/>
        <pt x="1512" y="543" on="0"/>
      </contour>
    </TTGlyph>
    <TTGlyph name="uniA541" xMin="68" yMin="543" xMax="1788" yMax="1300">
      <contour>
        <pt x="750" y="1198" on="1"/>
        <pt x="750" y="1149" on="0"/>
        <pt x="694" y="1096" on="0"/>
        <pt x="647" y="1096" on="1"/>
        <pt x="598" y="1096" on="0"/>
        <pt x="545" y="1149" on="0"/>
        <pt x="545" y="1198" on="1"/>
        <pt x="545" y="1246" on="0"/>
        <pt x="602" y="1300" on="0"/>
        <pt x="647" y="1300" on="1"/>
        <pt x="692" y="1300" on="0"/>
        <pt x="750" y="1246" on="0"/>
      </contour>
      <contour>
        <pt x="1288" y="1198" on="1"/>
        <pt x="1288" y="1149" on="0"/>
        <pt x="1232" y="1096" on="0"/>
        <pt x="1186" y="1096" on="1"/>
        <pt x="1136" y="1096" on="0"/>
        <pt x="1083" y="1149" on="0"/>
        <pt x="1083" y="1198" on="1"/>
        <pt x="1083" y="1246" on="0"/>
        <pt x="1141" y="1300" on="0"/>
        <pt x="1186" y="1300" on="1"/>
        <pt x="1231" y="1300" on="0"/>
        <pt x="1288" y="1246" on="0"/>
      </contour>
      <contour>
        <pt x="1454" y="543" on="1"/>
        <pt x="1422" y="543" on="0"/>
        <pt x="1346" y="561" on="0"/>
        <pt x="1273" y="604" on="0"/>
        <pt x="1207" y="675" on="0"/>
        <pt x="1184" y="727" on="1"/>
        <pt x="1176" y="727" on="1"/>
        <pt x="1156" y="673" on="0"/>
        <pt x="1099" y="602" on="0"/>
        <pt x="1032" y="560" on="0"/>
        <pt x="957" y="543" on="0"/>
        <pt x="918" y="543" on="1"/>
        <pt x="879" y="543" on="0"/>
        <pt x="797" y="560" on="0"/>
        <pt x="724" y="602" on="0"/>
        <pt x="665" y="673" on="0"/>
        <pt x="649" y="727" on="1"/>
        <pt x="641" y="727" on="1"/>
        <pt x="618" y="675" on="0"/>
        <pt x="555" y="604" on="0"/>
        <pt x="485" y="561" on="0"/>
        <pt x="413" y="543" on="0"/>
        <pt x="381" y="543" on="1"/>
        <pt x="329" y="543" on="0"/>
        <pt x="233" y="583" on="0"/>
        <pt x="152" y="653" on="0"/>
        <pt x="89" y="750" on="0"/>
        <pt x="68" y="807" on="1"/>
        <pt x="193" y="870" on="1"/>
        <pt x="203" y="839" on="0"/>
        <pt x="244" y="775" on="0"/>
        <pt x="299" y="722" on="0"/>
        <pt x="365" y="688" on="0"/>
        <pt x="401" y="688" on="1"/>
        <pt x="440" y="688" on="0"/>
        <pt x="502" y="714" on="0"/>
        <pt x="545" y="775" on="0"/>
        <pt x="569" y="874" on="0"/>
        <pt x="569" y="948" on="1"/>
        <pt x="569" y="1012" on="1"/>
        <pt x="729" y="1012" on="1"/>
        <pt x="729" y="948" on="1"/>
        <pt x="729" y="874" on="0"/>
        <pt x="756" y="772" on="0"/>
        <pt x="805" y="707" on="0"/>
        <pt x="875" y="678" on="0"/>
        <pt x="918" y="678" on="1"/>
        <pt x="961" y="678" on="0"/>
        <pt x="1030" y="707" on="0"/>
        <pt x="1079" y="772" on="0"/>
        <pt x="1106" y="874" on="0"/>
        <pt x="1106" y="948" on="1"/>
        <pt x="1106" y="1012" on="1"/>
        <pt x="1266" y="1012" on="1"/>
        <pt x="1266" y="948" on="1"/>
        <pt x="1266" y="874" on="0"/>
        <pt x="1299" y="775" on="0"/>
        <pt x="1353" y="714" on="0"/>
        <pt x="1420" y="688" on="0"/>
        <pt x="1454" y="688" on="1"/>
        <pt x="1490" y="688" on="0"/>
        <pt x="1556" y="722" on="0"/>
        <pt x="1611" y="775" on="0"/>
        <pt x="1652" y="839" on="0"/>
        <pt x="1663" y="870" on="1"/>
        <pt x="1788" y="807" on="1"/>
        <pt x="1767" y="750" on="0"/>
        <pt x="1701" y="653" on="0"/>
        <pt x="1615" y="583" on="0"/>
        <pt x="1512" y="543" on="0"/>
      </contour>
    </TTGlyph>
    <TTGlyph name="uniA542" xMin="68" yMin="236" xMax="1788" yMax="1300">
      <contour>
        <pt x="1020" y="1198" on="1"/>
        <pt x="1020" y="1149" on="0"/>
        <pt x="964" y="1096" on="0"/>
        <pt x="918" y="1096" on="1"/>
        <pt x="868" y="1096" on="0"/>
        <pt x="815" y="1149" on="0"/>
        <pt x="815" y="1198" on="1"/>
        <pt x="815" y="1246" on="0"/>
        <pt x="873" y="1300" on="0"/>
        <pt x="918" y="1300" on="1"/>
        <pt x="963" y="1300" on="0"/>
        <pt x="1020" y="1246" on="0"/>
      </contour>
      <contour>
        <pt x="1020" y="338" on="1"/>
        <pt x="1020" y="288" on="0"/>
        <pt x="964" y="236" on="0"/>
        <pt x="918" y="236" on="1"/>
        <pt x="868" y="236" on="0"/>
        <pt x="815" y="288" on="0"/>
        <pt x="815" y="338" on="1"/>
        <pt x="815" y="386" on="0"/>
        <pt x="873" y="440" on="0"/>
        <pt x="918" y="440" on="1"/>
        <pt x="963" y="440" on="0"/>
        <pt x="1020" y="386" on="0"/>
      </contour>
      <contour>
        <pt x="1454" y="543" on="1"/>
        <pt x="1422" y="543" on="0"/>
        <pt x="1346" y="561" on="0"/>
        <pt x="1273" y="604" on="0"/>
        <pt x="1207" y="675" on="0"/>
        <pt x="1184" y="727" on="1"/>
        <pt x="1176" y="727" on="1"/>
        <pt x="1156" y="673" on="0"/>
        <pt x="1099" y="602" on="0"/>
        <pt x="1032" y="560" on="0"/>
        <pt x="957" y="543" on="0"/>
        <pt x="918" y="543" on="1"/>
        <pt x="879" y="543" on="0"/>
        <pt x="797" y="560" on="0"/>
        <pt x="724" y="602" on="0"/>
        <pt x="665" y="673" on="0"/>
        <pt x="649" y="727" on="1"/>
        <pt x="641" y="727" on="1"/>
        <pt x="618" y="675" on="0"/>
        <pt x="555" y="604" on="0"/>
        <pt x="485" y="561" on="0"/>
        <pt x="413" y="543" on="0"/>
        <pt x="381" y="543" on="1"/>
        <pt x="329" y="543" on="0"/>
        <pt x="233" y="583" on="0"/>
        <pt x="152" y="653" on="0"/>
        <pt x="89" y="750" on="0"/>
        <pt x="68" y="807" on="1"/>
        <pt x="193" y="870" on="1"/>
        <pt x="203" y="839" on="0"/>
        <pt x="244" y="775" on="0"/>
        <pt x="299" y="722" on="0"/>
        <pt x="365" y="688" on="0"/>
        <pt x="401" y="688" on="1"/>
        <pt x="440" y="688" on="0"/>
        <pt x="502" y="714" on="0"/>
        <pt x="545" y="775" on="0"/>
        <pt x="569" y="874" on="0"/>
        <pt x="569" y="948" on="1"/>
        <pt x="569" y="1012" on="1"/>
        <pt x="729" y="1012" on="1"/>
        <pt x="729" y="948" on="1"/>
        <pt x="729" y="874" on="0"/>
        <pt x="756" y="772" on="0"/>
        <pt x="805" y="707" on="0"/>
        <pt x="875" y="678" on="0"/>
        <pt x="918" y="678" on="1"/>
        <pt x="961" y="678" on="0"/>
        <pt x="1030" y="707" on="0"/>
        <pt x="1079" y="772" on="0"/>
        <pt x="1106" y="874" on="0"/>
        <pt x="1106" y="948" on="1"/>
        <pt x="1106" y="1012" on="1"/>
        <pt x="1266" y="1012" on="1"/>
        <pt x="1266" y="948" on="1"/>
        <pt x="1266" y="874" on="0"/>
        <pt x="1299" y="775" on="0"/>
        <pt x="1353" y="714" on="0"/>
        <pt x="1420" y="688" on="0"/>
        <pt x="1454" y="688" on="1"/>
        <pt x="1490" y="688" on="0"/>
        <pt x="1556" y="722" on="0"/>
        <pt x="1611" y="775" on="0"/>
        <pt x="1652" y="839" on="0"/>
        <pt x="1663" y="870" on="1"/>
        <pt x="1788" y="807" on="1"/>
        <pt x="1767" y="750" on="0"/>
        <pt x="1701" y="653" on="0"/>
        <pt x="1615" y="583" on="0"/>
        <pt x="1512" y="543" on="0"/>
      </contour>
    </TTGlyph>
</ttFont>
